<svg id="eWce091SZoI1" xmlns="http://www.w3.org/2000/svg" xmlns:xlink="http://www.w3.org/1999/xlink" viewBox="0 0 201 42" shape-rendering="geometricPrecision" text-rendering="geometricPrecision"><g id="eWce091SZoI2" transform="translate(.651001 0.190345)" opacity="0" clip-path="url(#eWce091SZoI16)"><g><path d="M47.6662,4.81818h1.5412v6.69672c0,.7126-.1674,1.344-.5021,1.8942-.3348.5469-.8054.9777-1.412,1.2926-.6065.3116-1.3174.4673-2.1328.4673-.812,0-1.5213-.1557-2.1278-.4673-.6066-.3149-1.0772-.7457-1.412-1.2926-.3347-.5502-.5021-1.1816-.5021-1.8942v-6.69672h1.5362v6.57242c0,.4607.1011.8701.3033,1.228.2055.358.4955.6397.87.8452.3746.2022.8187.3032,1.3324.3032.5171,0,.9628-.101,1.3374-.3032.3778-.2055.6662-.4872.865-.8452.2022-.3579.3033-.7673.3033-1.228v-6.57242Zm5.1419,5.64772v4.5341h-1.4865v-7.63636h1.4268v1.24289h.0945c.1756-.40435.4507-.72916.8252-.97443.3779-.24526.8535-.3679,1.4269-.3679.5204,0,.9761.10938,1.3672.32813.3911.21544.6943.53693.9098.96449s.3231.9562.3231,1.58598v4.8572h-1.4865v-4.6783c0-.55347-.1441-.986-.4325-1.29755-.2884-.31487-.6844-.4723-1.1882-.4723-.3447,0-.6513.07457-.9198.22372-.2651.14915-.4756.3679-.6313.65625-.1525.28504-.2287.62978-.2287,1.03408ZM59.6887,15v-7.63636h1.4865v7.63636h-1.4865Zm.7508-8.81463c-.2586,0-.4806-.08618-.6662-.25852-.1823-.17567-.2735-.38447-.2735-.62642c0-.24527.0912-.45408.2735-.62642.1856-.17567.4076-.2635.6662-.2635.2585,0,.4789.08783.6612.2635.1856.17234.2784.38115.2784.62642c0,.24195-.0928.45075-.2784.62642-.1823.17234-.4027.25852-.6612.25852Zm6.3002,1.17827v1.19318h-4.1712v-1.19318h4.1712ZM63.6871,5.53409h1.4866v7.22371c0,.2884.043.5055.1292.6513.0862.1425.1972.2403.3331.2933.1392.0497.29.0746.4524.0746.1193,0,.2237-.0083.3132-.0249s.1591-.0298.2088-.0397l.2685,1.2279c-.0862.0332-.2088.0663-.3679.0995-.1591.0364-.3579.0563-.5966.0596-.3911.0067-.7557-.0629-1.0937-.2088-.3381-.1458-.6115-.3712-.8203-.6761-.2089-.3049-.3133-.6877-.3133-1.1484v-7.53201Zm7.9061,9.62001c-.7524,0-1.4003-.1607-1.9439-.4822-.5402-.3248-.9578-.7806-1.2528-1.3672-.2917-.59-.4375-1.281-.4375-2.0732c0-.7822.1458-1.47156.4375-2.06815.295-.59659.706-1.06226,1.2329-1.39702.5303-.33475,1.1501-.50213,1.8594-.50213.4309,0,.8485.07126,1.2529.21378s.7672.36624,1.0887.67117.5751.70099.7607,1.18821c.1856.4839.2784,1.07224.2784,1.76494v.527h-6.0703v-1.1137h4.6136c0-.3911-.0795-.73743-.2386-1.03904-.1591-.30492-.3828-.54522-.6712-.72088-.285-.17566-.6198-.26349-1.0042-.26349-.4177,0-.7822.10274-1.0938.30824-.3082.20217-.5469.46733-.7159.79545-.1657.32481-.2486.67782-.2486,1.05892v.8701c0,.5104.0895.9446.2685,1.3025.1823.358.4358.6314.7606.8203.3248.1856.7043.2784,1.1385.2784.2818,0,.5386-.0397.7706-.1193.232-.0828.4326-.2055.6016-.3679s.2983-.3629.3878-.6015l1.4069.2535c-.1127.4143-.3148.7772-.6065,1.0888-.2884.3082-.6513.5485-1.0888.7209-.4342.169-.9297.2535-1.4865.2535Zm7.7843-.005c-.6165,0-1.1667-.1574-1.6506-.4723-.4806-.3181-.8584-.7706-1.1335-1.3572-.2718-.59-.4077-1.2976-.4077-2.1229s.1376-1.53122.4127-2.11786c.2784-.58665.6595-1.03575,1.1434-1.34731s1.0325-.46733,1.6456-.46733c.474,0,.8551.07955,1.1435.23864.2917.15578.517.33807.6761.54688.1624.2088.2884.39275.3779.55184h.0895v-3.78338h1.4865v10.18182h-1.4517v-1.1882h-.1243c-.0895.1624-.2188.348-.3878.5568-.1657.2088-.3944.3911-.6861.5469s-.6695.2336-1.1335.2336Zm.3281-1.2677c.4276,0,.7888-.1127,1.0838-.3381.2983-.2287.5237-.5452.6762-.9495.1557-.4044.2336-.8751.2336-1.412c0-.5303-.0762-.9943-.2287-1.39203-.1524-.39772-.3762-.70762-.6711-.92968-.295-.22207-.6596-.3331-1.0938-.3331-.4474,0-.8203.116-1.1186.34801s-.5237.54853-.6761.94957c-.1492.40103-.2238.85343-.2238,1.35723c0,.5104.0763.9695.2287,1.3771.1525.4077.3779.7309.6762.9695.3016.2353.6728.353,1.1136.353ZM89.967,15h-1.6307L92.0004,4.81818h1.7748L97.4393,15h-1.6307L92.93,6.66761h-.0795L89.967,15Zm.2734-3.9872h5.2898v1.2926h-5.2898v-1.2926ZM98.7903,15v-7.63636h1.4367v1.21306h.08c.139-.41098.384-.73413.735-.96946.355-.23863.756-.35795,1.204-.35795.092,0,.202.00331.328.00994.129.00663.23.01492.303.02486v1.42188c-.06-.01658-.166-.03481-.318-.05469-.153-.0232-.305-.0348-.458-.0348-.351,0-.664.07457-.939.22372-.272.14583-.487.34967-.647.6115-.159.25853-.238.5535-.238.8849v4.6634h-1.4867Zm7.5267.169c-.484,0-.921-.0895-1.312-.2684-.391-.1823-.701-.4458-.93-.7905-.225-.3447-.338-.7673-.338-1.2678c0-.4308.083-.7855.249-1.0639.165-.2784.389-.4988.671-.6612s.596-.2851.944-.3679.703-.1458,1.064-.1889c.458-.0531.829-.0961,1.114-.1293.285-.0365.492-.0945.621-.174.13-.0795.194-.2088.194-.38778v-.0348c0-.43419-.122-.7706-.368-1.00924-.242-.23863-.603-.35795-1.083-.35795-.501,0-.895.11103-1.184.3331-.285.21875-.482.46235-.591.73082l-1.397-.31818c.165-.46402.407-.83854.726-1.12358.321-.28835.691-.49716,1.108-.62642.418-.13258.857-.19887,1.318-.19887.305,0,.628.03646.969.10938.345.0696.666.19886.965.38778.301.18892.548.45905.74.81037.193.34801.289.80043.289,1.35725v5.07102h-1.452v-1.044h-.06c-.096.1922-.24.3811-.432.5667s-.439.3398-.741.4624-.663.1839-1.084.1839Zm.323-1.1931c.411,0,.763-.0813,1.054-.2437.295-.1624.519-.3745.672-.6363.155-.2652.233-.5486.233-.8502v-.9843c-.053.053-.156.1027-.308.1491-.149.0431-.32.0812-.512.1144-.192.0298-.38.058-.562.0845-.182.0232-.335.0431-.457.0596-.289.0365-.552.0978-.791.184-.235.0862-.424.2104-.566.3729-.14.159-.209.3712-.209.6363c0,.3679.136.6463.407.8352.272.1856.619.2785,1.039.2785ZM112.185,15v-10.18182h1.487v3.78338h.089c.086-.15909.21-.34304.373-.55184.162-.20881.388-.3911.676-.54688.288-.15909.67-.23864,1.143-.23864.617,0,1.167.15578,1.651.46733s.863.76066,1.139,1.34731c.278.58664.417,1.29256.417,2.11786s-.137,1.5329-.412,2.1229c-.276.5866-.653,1.0391-1.134,1.3572-.481.3149-1.029.4723-1.646.4723-.464,0-.843-.0778-1.138-.2336-.292-.1558-.52-.3381-.686-.5469s-.294-.3944-.383-.5568h-.124v1.1882h-1.452Zm1.457-3.8182c0,.5369.078,1.0076.233,1.412.156.4043.382.7208.676.9495.295.2254.657.3381,1.084.3381.444,0,.816-.1177,1.114-.353.298-.2386.524-.5618.676-.9695.156-.4076.234-.8667.234-1.3771c0-.5038-.076-.9562-.229-1.35723-.149-.40104-.374-.71756-.676-.94957-.298-.23201-.671-.34801-1.119-.34801-.431,0-.795.11103-1.093.3331-.295.22206-.519.53196-.672.92968-.152.39773-.228.86173-.228,1.39203ZM124.654,15v-10.18182h6.383v1.32244h-4.847v3.10228h4.514v1.3175h-4.514v3.1172h4.907v1.3224h-6.443Zm8.316,0v-7.63636h1.427v1.24289h.094c.159-.42092.42-.74905.781-.98437.361-.23864.794-.35796,1.297-.35796.511,0,.938.11932,1.283.35796.348.23864.605.56676.771.98437h.079c.183-.40767.473-.73248.87-.97443.398-.24526.872-.3679,1.422-.3679.693,0,1.258.2171,1.695.65128.441.43419.662,1.08878.662,1.96378v5.12074h-1.487v-4.9815c0-.51708-.141-.89161-.422-1.12361-.282-.23201-.619-.34801-1.01-.34801-.484,0-.86.14914-1.128.44744-.269.29498-.403.67448-.403,1.13848v4.8672h-1.481v-5.07599c0-.4143-.13-.7474-.388-.99929-.259-.2519-.595-.37784-1.009-.37784-.282,0-.542.07457-.781.22372-.235.14583-.426.34966-.572.6115-.142.26184-.214.56511-.214.9098v4.7081h-1.486Zm12.373,0v-7.63636h1.487v7.63636h-1.487Zm.751-8.81463c-.259,0-.481-.08618-.666-.25852-.183-.17567-.274-.38447-.274-.62642c0-.24527.091-.45408.274-.62642.185-.17567.407-.2635.666-.2635.258,0,.479.08783.661.2635.186.17234.278.38115.278.62642c0,.24195-.092.45075-.278.62642-.182.17234-.403.25852-.661.25852ZM148.829,15v-7.63636h1.437v1.21306h.08c.139-.41098.384-.73413.735-.96946.355-.23863.756-.35795,1.204-.35795.092,0,.202.00331.328.00994.129.00663.23.01492.303.02486v1.42188c-.06-.01658-.166-.03481-.318-.05469-.153-.0232-.305-.0348-.458-.0348-.351,0-.664.07457-.939.22372-.272.14583-.487.34967-.646.6115-.16.25853-.239.5535-.239.8849v4.6634h-1.487Zm7.527.169c-.484,0-.921-.0895-1.312-.2684-.391-.1823-.701-.4458-.93-.7905-.225-.3447-.338-.7673-.338-1.2678c0-.4308.083-.7855.249-1.0639.165-.2784.389-.4988.671-.6612s.596-.2851.944-.3679.703-.1458,1.064-.1889c.458-.0531.829-.0961,1.114-.1293.285-.0365.492-.0945.621-.174.13-.0795.194-.2088.194-.38778v-.0348c0-.43419-.122-.7706-.368-1.00924-.242-.23863-.603-.35795-1.083-.35795-.501,0-.895.11103-1.184.3331-.285.21875-.482.46235-.591.73082l-1.397-.31818c.165-.46402.407-.83854.726-1.12358.321-.28835.691-.49716,1.108-.62642.418-.13258.857-.19887,1.318-.19887.305,0,.628.03646.969.10938.345.0696.666.19886.965.38778.301.18892.548.45905.74.81037.193.34801.289.80043.289,1.35725v5.07102h-1.452v-1.044h-.06c-.096.1922-.24.3811-.432.5667s-.439.3398-.741.4624c-.301.1226-.663.1839-1.084.1839Zm.324-1.1931c.41,0,.762-.0813,1.053-.2437.295-.1624.519-.3745.672-.6363.155-.2652.233-.5486.233-.8502v-.9843c-.053.053-.155.1027-.308.1491-.149.0431-.32.0812-.512.1144-.192.0298-.379.058-.562.0845-.182.0232-.335.0431-.457.0596-.289.0365-.552.0978-.791.184-.235.0862-.424.2104-.566.3729-.14.159-.209.3712-.209.6363c0,.3679.136.6463.407.8352.272.1856.619.2785,1.04.2785Zm8.989-6.61226v1.19318h-4.171v-1.19318h4.171Zm-3.052-1.82955h1.486v7.22371c0,.2884.043.5055.13.6513.086.1425.197.2403.333.2933.139.0497.29.0746.452.0746.119,0,.224-.0083.313-.0249.09-.0165.159-.0298.209-.0397l.269,1.2279c-.087.0332-.209.0663-.368.0995-.159.0364-.358.0563-.597.0596-.391.0067-.756-.0629-1.094-.2088-.338-.1458-.611-.3712-.82-.6761s-.313-.6877-.313-1.1484v-7.53201Zm7.906,9.62001c-.752,0-1.4-.1607-1.944-.4822-.54-.3248-.958-.7806-1.253-1.3672-.291-.59-.437-1.281-.437-2.0732c0-.7822.146-1.47156.437-2.06815.295-.59659.706-1.06226,1.233-1.39702.53-.33475,1.15-.50213,1.86-.50213.43,0,.848.07126,1.252.21378.405.14252.768.36624,1.089.67117.322.30492.575.70099.761,1.18821.185.4839.278,1.07224.278,1.76494v.527h-6.07v-1.1137h4.614c0-.3911-.08-.73743-.239-1.03904-.159-.30492-.383-.54522-.671-.72088-.285-.17566-.62-.26349-1.005-.26349-.417,0-.782.10274-1.093.30824-.309.20217-.547.46733-.716.79545-.166.32481-.249.67782-.249,1.05892v.8701c0,.5104.09.9446.269,1.3025.182.358.436.6314.76.8203.325.1856.705.2784,1.139.2784.282,0,.538-.0397.77-.1193.232-.0828.433-.2055.602-.3679s.298-.3629.388-.6015l1.407.2535c-.113.4143-.315.7772-.607,1.0888-.288.3082-.651.5485-1.089.7209-.434.169-.929.2535-1.486.2535Zm10.648-5.92612l-1.347.23864c-.057-.17235-.146-.33641-.269-.49219-.119-.15578-.282-.28338-.487-.38281-.206-.09943-.463-.14915-.771-.14915-.421,0-.772.09446-1.054.28338-.281.18561-.422.4259-.422.72088c0,.25521.094.4607.283.61647s.494.2834.915.3828l1.213.2784c.703.1624,1.226.4127,1.571.7507.345.3381.517.7773.517,1.3175c0,.4574-.133.8651-.398,1.223-.262.3547-.628.6331-1.098.8353-.468.2021-1.01.3032-1.626.3032-.855,0-1.553-.1823-2.093-.5469-.54-.3679-.872-.8899-.995-1.566l1.437-.2188c.09.3746.274.658.552.8502.278.1889.641.2834,1.089.2834.487,0,.877-.1011,1.168-.3033.292-.2055.438-.4557.438-.7507c0-.2386-.09-.4392-.269-.6016-.175-.1624-.446-.285-.81-.3679l-1.293-.2834c-.712-.1624-1.239-.4209-1.581-.7755-.338-.3547-.507-.8038-.507-1.34732c0-.45076.126-.84517.378-1.18324s.6-.60156,1.044-.79048c.444-.19224.953-.28836,1.526-.28836.826,0,1.475.17898,1.949.53694.474.35464.787.83025.94,1.42684Z" fill="#fff"/><rect width="119" height="8" rx="4" ry="4" transform="translate(40 28)" fill="#eaecf0"/><rect width="28" height="8" rx="4" ry="4" transform="translate(40 28)" fill="#1eaae6"/><path d="M172.979,37v-1.1136l3.446-3.5696c.368-.3878.671-.7275.91-1.0192.241-.295.422-.5751.541-.8402.12-.2652.179-.5469.179-.8452c0-.3381-.079-.6297-.238-.875-.159-.2486-.376-.4391-.652-.5717-.275-.1359-.585-.2039-.929-.2039-.365,0-.683.0746-.955.2238-.272.1491-.48.3596-.626.6314s-.219.5899-.219.9545h-1.467c0-.6198.143-1.1617.428-1.6257s.676-.8236,1.173-1.0788c.497-.2586,1.063-.3878,1.696-.3878.639,0,1.203.1276,1.69.3828.49.2519.873.5966,1.148,1.0341.275.4342.413.9247.413,1.4716c0,.3778-.071.7474-.214,1.1086-.139.3613-.383.764-.731,1.2081-.348.4408-.831.9761-1.451,1.6059l-2.024,2.1179v.0745h4.584v1.3175h-6.702Zm11.947.1392c-.623,0-1.183-.1193-1.68-.358-.494-.2419-.889-.5733-1.184-.9943-.294-.4209-.452-.9015-.472-1.4417h1.492c.036.4375.23.7971.581,1.0788.352.2817.773.4226,1.263.4226.391,0,.738-.0895,1.039-.2685.305-.1823.544-.4325.716-.7507.176-.3182.264-.6811.264-1.0888c0-.4143-.09-.7838-.269-1.1086s-.426-.58-.741-.7657c-.311-.1856-.669-.28-1.073-.2833-.309,0-.619.053-.93.1591-.312.106-.564.2452-.756.4176l-1.407-.2088.572-5.1307h5.598v1.3175h-4.32l-.324,2.8487h.06c.199-.1923.462-.353.791-.4823.331-.1292.686-.1939,1.064-.1939.619,0,1.171.1475,1.655.4425.487.295.87.6977,1.148,1.2081.282.5071.421,1.0904.418,1.75.003.6596-.146,1.2479-.447,1.7649-.299.5171-.713.9247-1.243,1.223-.527.295-1.132.4425-1.815.4425Zm10.636-2.0483v-.5369c0-.3845.079-.7358.238-1.054.163-.3215.398-.5784.706-.7706.312-.1955.688-.2933,1.129-.2933.451,0,.828.0961,1.133.2883s.536.4491.691.7706c.159.3215.239.6745.239,1.059v.5369c0,.3845-.08.7375-.239,1.059-.159.3181-.392.575-.701.7706-.305.1922-.679.2883-1.123.2883-.448,0-.826-.0961-1.134-.2883-.308-.1956-.542-.4525-.701-.7706-.159-.3215-.238-.6745-.238-1.059Zm1.158-.5369v.5369c0,.285.068.5436.204.7756s.373.348.711.348c.335,0,.568-.116.701-.348.132-.232.199-.4906.199-.7756v-.5369c0-.2851-.065-.5436-.194-.7756-.126-.232-.362-.348-.706-.348-.332,0-.567.116-.706.348s-.209.4905-.209.7756Zm-6.279-5.2898v-.5369c0-.3845.079-.7375.239-1.059.162-.3215.397-.5783.705-.7706.312-.1922.688-.2883,1.129-.2883.451,0,.829.0961,1.134.2883.304.1923.535.4491.691.7706.155.3215.233.6745.233,1.059v.5369c0,.3845-.079.7375-.238,1.059-.156.3181-.388.575-.696.7706-.305.1922-.68.2883-1.124.2883-.451,0-.83-.0961-1.138-.2883-.305-.1956-.537-.4525-.696-.7706-.16-.3215-.239-.6745-.239-1.059Zm1.163-.5369v.5369c0,.285.067.5436.199.7756.136.232.373.348.711.348.331,0,.563-.116.696-.348.136-.232.204-.4906.204-.7756v-.5369c0-.2851-.065-.5436-.194-.7756s-.365-.348-.706-.348c-.331,0-.567.116-.706.348-.136.232-.204.4905-.204.7756ZM190.913,37l7-10.1818h1.188L192.101,37h-1.188Z" fill="#fff"/><g clip-path="url(#eWce091SZoI14)"><g><path d="M15,36c8.2843,0,15-6.7157,15-15s-6.7157-15-15-15-15,6.7157-15,15s6.71573,15,15,15Z" fill="#f0f0f0"/><path d="M8.47656,26.2161l1.30436,8.8497c1.62488.603,3.38258.9329,5.21738.9329c6.4494,0,11.9476-4.0706,14.0669-9.7826h-20.58864Z"/><path d="M8.47656,15.7834L9.78092,6.9336c1.62488-.60298,3.38258-.93287,5.21738-.93287c6.4494,0,11.9476,4.07067,14.0669,9.78267h-20.58864Z" fill="#6da544"/><path d="M0,20.9999c0,6.4494,4.07068,11.9476,9.78264,14.067v-28.13404C4.07068,9.05226,0,14.5504,0,20.9999Z" fill="#a2001d"/></g><clipPath id="eWce091SZoI14"><rect width="30" height="30" rx="0" ry="0" transform="translate(0 6)" fill="#fff"/></clipPath></g></g><clipPath id="eWce091SZoI16"><rect width="201" height="42" rx="0" ry="0" fill="#fff"/></clipPath></g><g id="eWce091SZoI18" transform="translate(.719498 0.056108)" opacity="0" clip-path="url(#eWce091SZoI32)"><g><path d="M49.5753,8.12926h-1.5512c-.0596-.33144-.1706-.62311-.333-.875-.1625-.25189-.3613-.46567-.5966-.64133s-.4989-.30824-.7905-.39773c-.2884-.08949-.595-.13423-.9198-.13423-.5866,0-1.1119.14749-1.576.44247-.4607.29498-.8252.72751-1.0937,1.29758-.2652.57008-.3977,1.2661-.3977,2.08807c0,.82861.1325,1.52791.3977,2.09801.2685.5701.6347,1.0009,1.0987,1.2926s.986.4375,1.5661.4375c.3215,0,.6264-.0431.9147-.1292.2917-.0895.5552-.2205.7905-.3928s.4342-.3828.5966-.6314c.1657-.2519.2801-.5402.343-.865l1.5512.0049c-.0829.5005-.2436.9612-.4823,1.3821-.2353.4176-.5385.7789-.9098,1.0838-.3679.3016-.7888.5353-1.2627.701s-.991.2486-1.5512.2486c-.8816,0-1.6671-.2088-2.3565-.6264-.6894-.4209-1.233-1.0225-1.6307-1.8047-.3944-.7822-.5916-1.7152-.5916-2.79901c0-1.08712.1988-2.02012.5966-2.79901.3977-.78219.9413-1.3821,1.6307-1.79971.6893-.42093,1.4732-.63139,2.3515-.63139.5403,0,1.0441.07789,1.5114.23366.4706.15246.8932.37784,1.2677.67614.3746.29498.6845.65625.9297,1.0838.2453.42425.411.90981.4972,1.45668ZM53.5165,15.169c-.4839,0-.9214-.0895-1.3125-.2684-.3911-.1823-.701-.4458-.9297-.7905-.2254-.3447-.338-.7673-.338-1.2678c0-.4308.0828-.7855.2485-1.0639s.3895-.4988.6712-.6612.5966-.2851.9446-.3679.7027-.1458,1.0639-.1889c.4574-.0531.8286-.0961,1.1137-.1293.285-.0365.4921-.0945.6214-.174s.1939-.2088.1939-.38778v-.0348c0-.43419-.1226-.7706-.3679-1.00924-.2419-.23863-.6032-.35795-1.0838-.35795-.5005,0-.8949.11103-1.1832.3331-.2851.21875-.4823.46235-.5917.73082l-1.397-.31818c.1657-.46402.4077-.83854.7259-1.12358.3215-.28835.691-.49716,1.1086-.62642.4177-.13258.8568-.19887,1.3175-.19887.3049,0,.6281.03646.9695.10938.3447.0696.6662.19886.9645.38778.3016.18892.5485.45905.7407.81037.1923.34801.2884.80043.2884,1.35725v5.07102h-1.4517v-1.044h-.0597c-.0961.1922-.2403.3811-.4325.5667s-.4392.3398-.7408.4624-.6629.1839-1.0838.1839Zm.3232-1.1931c.411,0,.7623-.0813,1.0539-.2437.295-.1624.5187-.3745.6712-.6363.1558-.2652.2337-.5486.2337-.8502v-.9843c-.0531.053-.1558.1027-.3083.1491-.1491.0431-.3198.0812-.512.1144-.1923.0298-.3795.058-.5618.0845-.1823.0232-.3348.0431-.4574.0596-.2884.0365-.5519.0978-.7905.184-.2353.0862-.4242.2104-.5668.3729-.1392.159-.2088.3712-.2088.6363c0,.3679.1359.6463.4077.8352.2718.1856.6181.2785,1.0391.2785Zm6.9117-3.51v4.5341h-1.4865v-7.63636h1.4269v1.24289h.0944c.1757-.40435.4508-.72916.8253-.97443.3778-.24526.8535-.3679,1.4269-.3679.5203,0,.976.10938,1.3671.32813.3911.21544.6944.53693.9098.96449.2155.42755.3232.9562.3232,1.58598v4.8572h-1.4865v-4.6783c0-.55347-.1442-.986-.4325-1.29755-.2884-.31487-.6845-.4723-1.1883-.4723-.3446,0-.6512.07457-.9197.22372-.2651.14915-.4756.3679-.6314.65625-.1524.28504-.2287.62978-.2287,1.03408Zm9.103,4.7031c-.4839,0-.9214-.0895-1.3125-.2684-.3911-.1823-.701-.4458-.9297-.7905-.2254-.3447-.3381-.7673-.3381-1.2678c0-.4308.0829-.7855.2486-1.0639s.3895-.4988.6712-.6612.5966-.2851.9446-.3679.7026-.1458,1.0639-.1889c.4574-.0531.8286-.0961,1.1137-.1293.285-.0365.4921-.0945.6214-.174s.1939-.2088.1939-.38778v-.0348c0-.43419-.1226-.7706-.3679-1.00924-.242-.23863-.6032-.35795-1.0838-.35795-.5005,0-.8949.11103-1.1833.3331-.285.21875-.4822.46235-.5916.73082l-1.397-.31818c.1657-.46402.4077-.83854.7259-1.12358.3215-.28835.691-.49716,1.1086-.62642.4176-.13258.8568-.19887,1.3175-.19887.3049,0,.6281.03646.9695.10938.3447.0696.6662.19886.9645.38778.3016.18892.5485.45905.7407.81037.1923.34801.2884.80043.2884,1.35725v5.07102h-1.4517v-1.044h-.0597c-.0961.1922-.2403.3811-.4325.5667-.1923.1856-.4392.3398-.7408.4624s-.6629.1839-1.0838.1839Zm.3232-1.1931c.4109,0,.7623-.0813,1.0539-.2437.295-.1624.5187-.3745.6712-.6363.1558-.2652.2337-.5486.2337-.8502v-.9843c-.0531.053-.1558.1027-.3083.1491-.1491.0431-.3198.0812-.512.1144-.1923.0298-.3795.058-.5618.0845-.1823.0232-.3348.0431-.4574.0596-.2884.0365-.5519.0978-.7905.184-.2353.0862-.4243.2104-.5668.3729-.1392.159-.2088.3712-.2088.6363c0,.3679.1359.6463.4077.8352.2718.1856.6181.2785,1.0391.2785Zm8.2839,1.1732c-.6165,0-1.1667-.1574-1.6506-.4723-.4806-.3181-.8584-.7706-1.1335-1.3572-.2718-.59-.4077-1.2976-.4077-2.1229s.1376-1.53122.4127-2.11786c.2784-.58665.6595-1.03575,1.1434-1.34731s1.0325-.46733,1.6456-.46733c.474,0,.8551.07955,1.1435.23864.2916.15578.517.33807.6761.54688.1624.2088.2884.39275.3779.55184h.0894v-3.78338h1.4866v10.18182h-1.4518v-1.1882h-.1242c-.0895.1624-.2188.348-.3878.5568-.1657.2088-.3944.3911-.6861.5469s-.6695.2336-1.1335.2336Zm.3281-1.2677c.4276,0,.7888-.1127,1.0838-.3381.2983-.2287.5237-.5452.6761-.9495.1558-.4044.2337-.8751.2337-1.412c0-.5303-.0762-.9943-.2287-1.39203s-.3762-.70762-.6712-.92968-.6595-.3331-1.0937-.3331c-.4474,0-.8203.116-1.1186.34801s-.5237.54853-.6761.94957c-.1492.40103-.2238.85343-.2238,1.35723c0,.5104.0763.9695.2287,1.3771.1525.4077.3779.7309.6762.9695.3016.2353.6728.353,1.1136.353Zm7.7992,1.2876c-.4839,0-.9214-.0895-1.3125-.2684-.3911-.1823-.701-.4458-.9297-.7905-.2254-.3447-.3381-.7673-.3381-1.2678c0-.4308.0829-.7855.2486-1.0639s.3894-.4988.6712-.6612.5966-.2851.9446-.3679.7026-.1458,1.0639-.1889c.4574-.0531.8286-.0961,1.1136-.1293.2851-.0365.4922-.0945.6215-.174s.1939-.2088.1939-.38778v-.0348c0-.43419-.1227-.7706-.3679-1.00924-.242-.23863-.6033-.35795-1.0838-.35795-.5005,0-.8949.11103-1.1833.3331-.285.21875-.4822.46235-.5916.73082l-1.397-.31818c.1657-.46402.4077-.83854.7258-1.12358.3215-.28835.6911-.49716,1.1087-.62642.4176-.13258.8568-.19887,1.3175-.19887.3049,0,.6281.03646.9694.10938.3447.0696.6662.19886.9645.38778.3016.18892.5486.45905.7408.81037.1922.34801.2883.80043.2883,1.35725v5.07102h-1.4517v-1.044h-.0596c-.0961.1922-.2403.3811-.4325.5667s-.4392.3398-.7408.4624-.6629.1839-1.0838.1839Zm.3231-1.1931c.411,0,.7623-.0813,1.054-.2437.295-.1624.5187-.3745.6712-.6363.1558-.2652.2336-.5486.2336-.8502v-.9843c-.053.053-.1557.1027-.3082.1491-.1491.0431-.3198.0812-.5121.1144-.1922.0298-.3795.058-.5618.0845-.1823.0232-.3347.0431-.4574.0596-.2883.0365-.5518.0978-.7904.184-.2354.0862-.4243.2104-.5668.3729-.1392.159-.2088.3712-.2088.6363c0,.3679.1359.6463.4077.8352.2717.1856.6181.2785,1.039.2785Z" fill="#fff"/><rect width="119" height="8" rx="4" ry="4" transform="translate(40 28)" fill="#eaecf0"/><rect width="38" height="8" rx="4" ry="4" transform="translate(40 28)" fill="#1eaae6"/><path d="M176.524,37.1392c-.683,0-1.292-.1177-1.829-.353-.534-.2353-.957-.5618-1.268-.9794-.308-.4209-.474-.9081-.497-1.4616h1.561c.02.3016.121.5634.303.7855.186.2187.428.3878.726.5071s.63.179.994.179c.401,0,.756-.0696,1.064-.2088.312-.1393.555-.3331.731-.5817.176-.2519.263-.5419.263-.8701c0-.3413-.087-.6413-.263-.8998-.172-.2618-.426-.4673-.761-.6165-.331-.1491-.732-.2237-1.203-.2237h-.86v-1.2528h.86c.378,0,.709-.068.994-.2039.289-.1359.514-.3248.677-.5667.162-.2453.243-.532.243-.8601c0-.3149-.071-.5883-.214-.8203-.139-.2354-.338-.4193-.596-.5519-.255-.1326-.557-.1989-.905-.1989-.331,0-.641.0614-.93.184-.285.1193-.517.2917-.696.517-.179.2221-.275.4889-.288.8005h-1.487c.017-.5502.179-1.0341.488-1.4517.311-.4177.722-.7441,1.233-.9794.51-.2354,1.077-.353,1.7-.353.653,0,1.216.1276,1.69.3828.478.2519.845.5883,1.104,1.0092.262.421.391.8817.388,1.3821.003.5701-.156,1.054-.478,1.4517-.318.3978-.742.6646-1.272.8005v.0795c.676.1027,1.2.3712,1.571.8054.374.4342.56.9728.557,1.6158.003.5601-.153,1.0622-.468,1.5064-.311.4441-.737.7938-1.277,1.049-.541.2519-1.159.3778-1.855.3778ZM182.346,37l4.444-8.7898v-.0745h-5.14v-1.3175h6.731v1.3622L183.952,37h-1.606Zm13.079-1.9091v-.5369c0-.3845.079-.7358.239-1.054.162-.3215.397-.5784.705-.7706.312-.1955.688-.2933,1.129-.2933.451,0,.829.0961,1.134.2883.304.1923.535.4491.691.7706.159.3215.238.6745.238,1.059v.5369c0,.3845-.079.7375-.238,1.059-.159.3181-.393.575-.701.7706-.305.1922-.68.2883-1.124.2883-.447,0-.825-.0961-1.133-.2883-.309-.1956-.542-.4525-.701-.7706-.16-.3215-.239-.6745-.239-1.059Zm1.158-.5369v.5369c0,.285.068.5436.204.7756s.373.348.711.348c.335,0,.568-.116.701-.348s.199-.4906.199-.7756v-.5369c0-.2851-.065-.5436-.194-.7756-.126-.232-.361-.348-.706-.348-.331,0-.567.116-.706.348s-.209.4905-.209.7756Zm-6.279-5.2898v-.5369c0-.3845.08-.7375.239-1.059.162-.3215.398-.5783.706-.7706.311-.1922.687-.2883,1.128-.2883.451,0,.829.0961,1.134.2883s.535.4491.691.7706.234.6745.234,1.059v.5369c0,.3845-.08.7375-.239,1.059-.156.3181-.388.575-.696.7706-.305.1922-.68.2883-1.124.2883-.45,0-.83-.0961-1.138-.2883-.305-.1956-.537-.4525-.696-.7706-.159-.3215-.239-.6745-.239-1.059Zm1.164-.5369v.5369c0,.285.066.5436.198.7756.136.232.373.348.711.348.332,0,.564-.116.696-.348.136-.232.204-.4906.204-.7756v-.5369c0-.2851-.064-.5436-.194-.7756-.129-.232-.364-.348-.706-.348-.331,0-.566.116-.706.348-.136.232-.203.4905-.203.7756ZM190.776,37l7-10.1818h1.189L191.965,37h-1.189Z" fill="#fff"/><g clip-path="url(#eWce091SZoI30)"><g><path d="M15,36c8.2843,0,15-6.7157,15-15s-6.7157-15-15-15-15,6.7157-15,15s6.71573,15,15,15Z" fill="#f0f0f0"/><path d="M30.0017,21.0013c0-5.9469-3.4608-11.0853-8.4783-13.51155v27.02315c5.0175-2.4262,8.4783-7.5646,8.4783-13.5116Z" fill="#d80027"/><path d="M0,21.0006C0,26.9475,3.46084,32.086,8.47828,34.5122v-27.02319C3.46084,9.91526,0,15.0537,0,21.0006Z" fill="#d80027"/><path d="M17.6073,22.9578l2.6087-1.3044-1.3043-.6521v-1.3044L16.303,21.0013l1.3043-2.6088h-1.3043L14.9986,16.436l-1.3043,1.9565h-1.3044l1.3044,2.6088-2.6088-1.3044v1.3044l-1.30425.6521l2.60865,1.3044-.6521,1.3043h2.6087v1.9565h1.3043v-1.9565h2.6087l-.6522-1.3043Z" fill="#d80027"/></g><clipPath id="eWce091SZoI30"><rect width="30" height="30" rx="0" ry="0" transform="translate(0 6)" fill="#fff"/></clipPath></g></g><clipPath id="eWce091SZoI32"><rect width="201" height="42" rx="0" ry="0" fill="#fff"/></clipPath></g><g id="eWce091SZoI34" transform="translate(.624497 0.190345)" opacity="0" clip-path="url(#eWce091SZoI46)"><g><path d="M42.6548,4.81818v10.18182h-1.5362v-10.18182h1.5362Zm3.6044,5.64772v4.5341h-1.4865v-7.63636h1.4269v1.24289h.0944c.1757-.40435.4508-.72916.8253-.97443.3779-.24526.8535-.3679,1.4269-.3679.5203,0,.9761.10938,1.3672.32813.3911.21544.6943.53693.9098.96449s.3231.9562.3231,1.58598v4.8572h-1.4865v-4.6783c0-.55347-.1442-.986-.4325-1.29755-.2884-.31487-.6844-.4723-1.1882-.4723-.3447,0-.6513.07457-.9198.22372-.2651.14915-.4756.3679-.6314.65625-.1524.28504-.2287.62978-.2287,1.03408Zm9.7394,4.6832c-.6165,0-1.1667-.1574-1.6506-.4723-.4806-.3181-.8584-.7706-1.1335-1.3572-.2718-.59-.4077-1.2976-.4077-2.1229s.1376-1.53122.4127-2.11786c.2784-.58665.6595-1.03575,1.1434-1.34731s1.0325-.46733,1.6456-.46733c.474,0,.8551.07955,1.1435.23864.2917.15578.517.33807.6761.54688.1624.2088.2884.39275.3779.55184h.0895v-3.78338h1.4865v10.18182h-1.4517v-1.1882h-.1243c-.0895.1624-.2188.348-.3878.5568-.1657.2088-.3944.3911-.6861.5469s-.6695.2336-1.1335.2336Zm.3281-1.2677c.4276,0,.7888-.1127,1.0838-.3381.2983-.2287.5237-.5452.6761-.9495.1558-.4044.2337-.8751.2337-1.412c0-.5303-.0762-.9943-.2287-1.39203-.1524-.39772-.3762-.70762-.6711-.92968s-.6596-.3331-1.0938-.3331c-.4474,0-.8203.116-1.1186.34801s-.5237.54853-.6761.94957c-.1492.40103-.2238.85343-.2238,1.35723c0,.5104.0763.9695.2287,1.3771.1525.4077.3779.7309.6762.9695.3016.2353.6728.353,1.1136.353Zm8.7935,1.2727c-.7159,0-1.3407-.164-1.8743-.4922-.5336-.3281-.9479-.7871-1.2429-1.3771s-.4425-1.2794-.4425-2.0682c0-.7921.1475-1.48483.4425-2.07811s.7093-1.05397,1.2429-1.3821s1.1584-.49219,1.8743-.49219s1.3407.16407,1.8743.49219.9479.78883,1.2429,1.3821.4425,1.28601.4425,2.07811c0,.7888-.1475,1.4782-.4425,2.0682s-.7093,1.049-1.2429,1.3771c-.5336.3282-1.1584.4922-1.8743.4922Zm.005-1.2479c.464,0,.8485-.1226,1.1534-.3678s.5303-.5718.6761-.9795c.1492-.4076.2237-.8567.2237-1.3473c0-.4872-.0745-.9346-.2237-1.34228-.1458-.41099-.3712-.74077-.6761-.98935s-.6894-.37287-1.1534-.37287c-.4674,0-.8551.12429-1.1634.37287-.3049.24858-.5319.57836-.6811.98935-.1458.40768-.2187.85508-.2187,1.34228c0,.4906.0729.9397.2187,1.3473.1492.4077.3762.7342.6811.9795.3083.2452.696.3678,1.1634.3678Zm6.7004-3.4403v4.5341h-1.4865v-7.63636h1.4269v1.24289h.0944c.1757-.40435.4508-.72916.8253-.97443.3779-.24526.8535-.3679,1.4269-.3679.5203,0,.9761.10938,1.3672.32813.3911.21544.6943.53693.9098.96449.2154.42755.3231.9562.3231,1.58598v4.8572h-1.4865v-4.6783c0-.55347-.1442-.986-.4325-1.29755-.2884-.31487-.6844-.4723-1.1882-.4723-.3447,0-.6513.07457-.9198.22372-.2651.14915-.4756.3679-.6314.65625-.1524.28504-.2287.62978-.2287,1.03408Zm10.1719,4.6882c-.7524,0-1.4003-.1607-1.9439-.4822-.5402-.3248-.9578-.7806-1.2528-1.3672-.2917-.59-.4375-1.281-.4375-2.0732c0-.7822.1458-1.47156.4375-2.06815.295-.59659.7059-1.06226,1.2329-1.39702.5303-.33475,1.1501-.50213,1.8594-.50213.4309,0,.8485.07126,1.2529.21378.4043.14252.7672.36624,1.0887.67117s.5751.70099.7607,1.18821c.1856.4839.2784,1.07224.2784,1.76494v.527h-6.0703v-1.1137h4.6136c0-.3911-.0795-.73743-.2386-1.03904-.1591-.30492-.3828-.54522-.6712-.72088-.285-.17566-.6198-.26349-1.0042-.26349-.4177,0-.7822.10274-1.0938.30824-.3082.20217-.5469.46733-.7159.79545-.1657.32481-.2486.67782-.2486,1.05892v.8701c0,.5104.0895.9446.2685,1.3025.1823.358.4358.6314.7606.8203.3248.1856.7043.2784,1.1385.2784.2818,0,.5386-.0397.7706-.1193.232-.0828.4326-.2055.6016-.3679s.2983-.3629.3878-.6015l1.4069.2535c-.1127.4143-.3148.7772-.6065,1.0888-.2884.3082-.6513.5485-1.0888.7209-.4342.169-.9297.2535-1.4865.2535ZM92.6454,9.22798l-1.3473.23864c-.0563-.17235-.1458-.33641-.2684-.49219-.1194-.15578-.2818-.28338-.4873-.38281s-.4623-.14915-.7706-.14915c-.4209,0-.7722.09446-1.0539.28338-.2818.18561-.4226.4259-.4226.72088c0,.25521.0944.4607.2834.61647s.4938.2834.9147.3828l1.2131.2784c.7027.1624,1.2263.4127,1.571.7507.3447.3381.5171.7773.5171,1.3175c0,.4574-.1326.8651-.3978,1.223-.2618.3547-.628.6331-1.0987.8353-.4673.2021-1.0092.3032-1.6257.3032-.8551,0-1.5528-.1823-2.093-.5469-.5403-.3679-.8717-.8899-.9944-1.566l1.4368-.2188c.0895.3746.2735.658.5519.8502.2784.1889.6413.2834,1.0888.2834.4872,0,.8766-.1011,1.1683-.3033.2917-.2055.4375-.4557.4375-.7507c0-.2386-.0895-.4392-.2685-.6016-.1756-.1624-.4458-.285-.8103-.3679l-1.2927-.2834c-.7126-.1624-1.2395-.4209-1.5809-.7755-.3381-.3547-.5071-.8038-.5071-1.34732c0-.45076.1259-.84517.3778-1.18324s.5999-.60156,1.044-.79048c.4442-.19224.9529-.28836,1.5263-.28836.8253,0,1.4749.17898,1.9489.53694.4739.35464.7872.83025.9396,1.42684ZM94.429,15v-7.63636h1.4865v7.63636h-1.4865Zm.7507-8.81463c-.2585,0-.4806-.08618-.6662-.25852-.1823-.17567-.2734-.38447-.2734-.62642c0-.24527.0911-.45408.2734-.62642.1856-.17567.4077-.2635.6662-.2635s.4789.08783.6612.2635c.1856.17234.2784.38115.2784.62642c0,.24195-.0928.45075-.2784.62642-.1823.17234-.4027.25852-.6612.25852ZM100.138,15.169c-.4843,0-.9218-.0895-1.3129-.2684-.3911-.1823-.701-.4458-.9297-.7905-.2254-.3447-.338-.7673-.338-1.2678c0-.4308.0828-.7855.2485-1.0639.1658-.2784.3895-.4988.6712-.6612s.5966-.2851.9446-.3679.7023-.1458,1.0643-.1889c.457-.0531.828-.0961,1.113-.1293.285-.0365.492-.0945.622-.174.129-.0795.194-.2088.194-.38778v-.0348c0-.43419-.123-.7706-.368-1.00924-.242-.23863-.604-.35795-1.084-.35795-.501,0-.895.11103-1.1833.3331-.2851.21875-.4823.46235-.5917.73082l-1.397-.31818c.1657-.46402.4077-.83854.7259-1.12358.3215-.28835.691-.49716,1.1086-.62642.4175-.13258.8565-.19887,1.3175-.19887.305,0,.628.03646.969.10938.345.0696.667.19886.965.38778.302.18892.548.45905.741.81037.192.34801.288.80043.288,1.35725v5.07102h-1.452v-1.044h-.059c-.096.1922-.241.3811-.433.5667s-.439.3398-.741.4624c-.301.1226-.662.1839-1.083.1839Zm.323-1.1931c.411,0,.762-.0813,1.054-.2437.295-.1624.518-.3745.671-.6363.156-.2652.234-.5486.234-.8502v-.9843c-.053.053-.156.1027-.309.1491-.149.0431-.32.0812-.512.1144-.192.0298-.379.058-.562.0845-.182.0232-.334.0431-.457.0596-.288.0365-.552.0978-.7904.184-.2353.0862-.4242.2104-.5668.3729-.1392.159-.2088.3712-.2088.6363c0,.3679.1359.6463.4077.8352.2718.1856.6183.2785,1.0393.2785Z" fill="#fff"/><rect width="119" height="8" rx="4" ry="4" transform="translate(40 28)" fill="#eaecf0"/><rect width="50" height="8" rx="4" ry="4" transform="translate(40 28)" fill="#1eaae6"/><path d="M171.766,35.0114v-1.2429l4.399-6.9503h.98v1.8295h-.622l-3.147,4.9816v.0795h6.031v1.3026h-7.641ZM176.593,37v-2.3665l.01-.5667v-7.2486h1.457v10.1818h-1.467Zm4.333-1.9886v-1.2429l4.4-6.9503h.979v1.8295h-.621l-3.147,4.9816v.0795h6.03v1.3026h-7.641ZM185.753,37v-2.3665l.01-.5667v-7.2486h1.457v10.1818h-1.467Zm9.861-1.9091v-.5369c0-.3845.08-.7358.239-1.054.162-.3215.398-.5784.706-.7706.312-.1955.688-.2933,1.129-.2933.45,0,.828.0961,1.133.2883s.535.4491.691.7706c.159.3215.239.6745.239,1.059v.5369c0,.3845-.08.7375-.239,1.059-.159.3181-.393.575-.701.7706-.305.1922-.679.2883-1.123.2883-.448,0-.826-.0961-1.134-.2883-.308-.1956-.542-.4525-.701-.7706-.159-.3215-.239-.6745-.239-1.059Zm1.159-.5369v.5369c0,.285.068.5436.204.7756.135.232.372.348.711.348.334,0,.568-.116.7-.348.133-.232.199-.4906.199-.7756v-.5369c0-.2851-.064-.5436-.194-.7756-.125-.232-.361-.348-.705-.348-.332,0-.567.116-.706.348-.14.232-.209.4905-.209.7756Zm-6.279-5.2898v-.5369c0-.3845.079-.7375.238-1.059.163-.3215.398-.5783.706-.7706.312-.1922.688-.2883,1.129-.2883.451,0,.828.0961,1.133.2883s.536.4491.691.7706c.156.3215.234.6745.234,1.059v.5369c0,.3845-.08.7375-.239,1.059-.155.3181-.387.575-.696.7706-.305.1922-.679.2883-1.123.2883-.451,0-.83-.0961-1.139-.2883-.305-.1956-.537-.4525-.696-.7706-.159-.3215-.238-.6745-.238-1.059Zm1.163-.5369v.5369c0,.285.066.5436.199.7756.136.232.373.348.711.348.331,0,.563-.116.696-.348.136-.232.204-.4906.204-.7756v-.5369c0-.2851-.065-.5436-.194-.7756-.13-.232-.365-.348-.706-.348-.332,0-.567.116-.706.348-.136.232-.204.4905-.204.7756ZM190.966,37l7-10.1818h1.188L192.154,37h-1.188Z" fill="#fff"/><g clip-path="url(#eWce091SZoI44)"><g><path d="M15,36c8.2843,0,15-6.7157,15-15s-6.7157-15-15-15-15,6.7157-15,15s6.71573,15,15,15Z" fill="#f0f0f0"/><path d="M0,21C0,12.7158,6.71578,6,15,6s15,6.7158,15,15" fill="#a2001d"/></g><clipPath id="eWce091SZoI44"><rect width="30" height="30" rx="0" ry="0" transform="translate(0 6)" fill="#fff"/></clipPath></g></g><clipPath id="eWce091SZoI46"><rect width="201" height="42" rx="0" ry="0" fill="#fff"/></clipPath></g><g id="eWce091SZoI48" transform="translate(.973503 0.190345)" opacity="0" clip-path="url(#eWce091SZoI72)"><g><g clip-path="url(#eWce091SZoI66)"><g><path d="M15,36c8.2843,0,15-6.7157,15-15s-6.7157-15-15-15-15,6.7157-15,15s6.71573,15,15,15Z" fill="#f0f0f0"/><path d="M3.09967,11.8662c-1.17826,1.533-2.06672,3.2999-2.584045,5.2194h7.803395L3.09967,11.8662Z" fill="#0052b4"/><path d="M29.483,17.0858c-.5173-1.9195-1.4059-3.6864-2.5841-5.2193l-5.2192,5.2193h7.8033Z" fill="#0052b4"/><path d="M0.515625,24.9128c.517385,1.9195,1.405845,3.6864,2.584045,5.2193l5.21918-5.2193h-7.803225Z" fill="#0052b4"/><path d="M24.1334,9.09973c-1.533-1.17826-3.2999-2.06672-5.2193-2.58411v7.80338l5.2193-5.21927Z" fill="#0052b4"/><path d="M5.86719,32.8972c1.53299,1.1782,3.29988,2.0667,5.21931,2.5841v-7.8033L5.86719,32.8972Z" fill="#0052b4"/><path d="M11.0864,6.51562c-1.91939.51739-3.68628,1.40584-5.21921,2.58405L11.0864,14.3189v-7.80328Z" fill="#0052b4"/><path d="M18.9141,35.4813c1.9194-.5174,3.6863-1.4059,5.2192-2.5841L18.9141,27.678v7.8033Z" fill="#0052b4"/><path d="M21.6797,24.9128l5.2192,5.2193c1.1782-1.5329,2.0668-3.2998,2.5841-5.2193h-7.8033Z" fill="#0052b4"/><path d="M29.873,19.0435h-12.9164v0-12.91653C16.3161,6.04359,15.6631,6,15,6s-1.3161.04359-1.9565.12697v12.91643v0h-12.916527C0.043594,19.6839,0,20.3369,0,21s.043594,1.3161.126973,1.9565h12.916427v0v12.9165C13.6839,35.9564,14.3368,36,15,36s1.3161-.0435,1.9565-.127v-12.9164v0h12.9165C29.9564,22.3161,30,21.6632,30,21s-.0436-1.3161-.127-1.9565Z" fill="#d80027"/><path d="M18.9141,24.9141l6.6935,6.6935c.3078-.3077.6015-.6294.8817-.9629l-5.7306-5.7306h-1.8446v0Z" fill="#d80027"/><path d="M11.0842,24.9141h-.0001L4.39062,31.6075c.30774.3079.62948.6015.96299.8817l5.73059-5.7307v-1.8444Z" fill="#d80027"/><path d="M11.083,17.0865v-.0001L4.38953,10.3928c-.30785.3078-.60152.6295-.88172.963l5.73065,5.7307h1.84454v0Z" fill="#d80027"/><path d="M18.9141,17.0877l6.6935-6.6936c-.3077-.3078-.6294-.60151-.9629-.88165L18.9141,15.2431v1.8446Z" fill="#d80027"/></g><clipPath id="eWce091SZoI66"><rect width="30" height="30" rx="0" ry="0" transform="translate(0 6)" fill="#fff"/></clipPath></g><path d="M47.6662,4.81818h1.5412v6.69672c0,.7126-.1674,1.344-.5021,1.8942-.3348.5469-.8054.9777-1.412,1.2926-.6065.3116-1.3174.4673-2.1328.4673-.812,0-1.5213-.1557-2.1278-.4673-.6066-.3149-1.0772-.7457-1.412-1.2926-.3347-.5502-.5021-1.1816-.5021-1.8942v-6.69672h1.5362v6.57242c0,.4607.1011.8701.3033,1.228.2055.358.4955.6397.87.8452.3746.2022.8187.3032,1.3324.3032.5171,0,.9628-.101,1.3374-.3032.3778-.2055.6662-.4872.865-.8452.2022-.3579.3033-.7673.3033-1.228v-6.57242Zm5.1419,5.64772v4.5341h-1.4865v-7.63636h1.4268v1.24289h.0945c.1756-.40435.4507-.72916.8252-.97443.3779-.24526.8535-.3679,1.4269-.3679.5204,0,.9761.10938,1.3672.32813.3911.21544.6943.53693.9098.96449s.3231.9562.3231,1.58598v4.8572h-1.4865v-4.6783c0-.55347-.1441-.986-.4325-1.29755-.2884-.31487-.6844-.4723-1.1882-.4723-.3447,0-.6513.07457-.9198.22372-.2651.14915-.4756.3679-.6313.65625-.1525.28504-.2287.62978-.2287,1.03408ZM59.6887,15v-7.63636h1.4865v7.63636h-1.4865Zm.7508-8.81463c-.2586,0-.4806-.08618-.6662-.25852-.1823-.17567-.2735-.38447-.2735-.62642c0-.24527.0912-.45408.2735-.62642.1856-.17567.4076-.2635.6662-.2635.2585,0,.4789.08783.6612.2635.1856.17234.2784.38115.2784.62642c0,.24195-.0928.45075-.2784.62642-.1823.17234-.4027.25852-.6612.25852Zm6.3002,1.17827v1.19318h-4.1712v-1.19318h4.1712ZM63.6871,5.53409h1.4866v7.22371c0,.2884.043.5055.1292.6513.0862.1425.1972.2403.3331.2933.1392.0497.29.0746.4524.0746.1193,0,.2237-.0083.3132-.0249s.1591-.0298.2088-.0397l.2685,1.2279c-.0862.0332-.2088.0663-.3679.0995-.1591.0364-.3579.0563-.5966.0596-.3911.0067-.7557-.0629-1.0937-.2088-.3381-.1458-.6115-.3712-.8203-.6761-.2089-.3049-.3133-.6877-.3133-1.1484v-7.53201Zm7.9061,9.62001c-.7524,0-1.4003-.1607-1.9439-.4822-.5402-.3248-.9578-.7806-1.2528-1.3672-.2917-.59-.4375-1.281-.4375-2.0732c0-.7822.1458-1.47156.4375-2.06815.295-.59659.706-1.06226,1.2329-1.39702.5303-.33475,1.1501-.50213,1.8594-.50213.4309,0,.8485.07126,1.2529.21378s.7672.36624,1.0887.67117.5751.70099.7607,1.18821c.1856.4839.2784,1.07224.2784,1.76494v.527h-6.0703v-1.1137h4.6136c0-.3911-.0795-.73743-.2386-1.03904-.1591-.30492-.3828-.54522-.6712-.72088-.285-.17566-.6198-.26349-1.0042-.26349-.4177,0-.7822.10274-1.0938.30824-.3082.20217-.5469.46733-.7159.79545-.1657.32481-.2486.67782-.2486,1.05892v.8701c0,.5104.0895.9446.2685,1.3025.1823.358.4358.6314.7606.8203.3248.1856.7043.2784,1.1385.2784.2818,0,.5386-.0397.7706-.1193.232-.0828.4326-.2055.6016-.3679s.2983-.3629.3878-.6015l1.4069.2535c-.1127.4143-.3148.7772-.6065,1.0888-.2884.3082-.6513.5485-1.0888.7209-.4342.169-.9297.2535-1.4865.2535Zm7.7843-.005c-.6165,0-1.1667-.1574-1.6506-.4723-.4806-.3181-.8584-.7706-1.1335-1.3572-.2718-.59-.4077-1.2976-.4077-2.1229s.1376-1.53122.4127-2.11786c.2784-.58665.6595-1.03575,1.1434-1.34731s1.0325-.46733,1.6456-.46733c.474,0,.8551.07955,1.1435.23864.2917.15578.517.33807.6761.54688.1624.2088.2884.39275.3779.55184h.0895v-3.78338h1.4865v10.18182h-1.4517v-1.1882h-.1243c-.0895.1624-.2188.348-.3878.5568-.1657.2088-.3944.3911-.6861.5469s-.6695.2336-1.1335.2336Zm.3281-1.2677c.4276,0,.7888-.1127,1.0838-.3381.2983-.2287.5237-.5452.6762-.9495.1557-.4044.2336-.8751.2336-1.412c0-.5303-.0762-.9943-.2287-1.39203-.1524-.39772-.3762-.70762-.6711-.92968-.295-.22207-.6596-.3331-1.0938-.3331-.4474,0-.8203.116-1.1186.34801s-.5237.54853-.6761.94957c-.1492.40103-.2238.85343-.2238,1.35723c0,.5104.0763.9695.2287,1.3771.1525.4077.3779.7309.6762.9695.3016.2353.6728.353,1.1136.353ZM89.1069,15v-10.18182h1.5362v4.86222h.1243L95.038,4.81818h1.9339L92.8654,9.40199L96.9869,15h-1.8495l-3.2912-4.549-1.2031,1.3821v3.1669h-1.5362Zm9.6561,0v-7.63636h1.486v7.63636h-1.486Zm.7507-8.81463c-.2586,0-.4806-.08618-.6662-.25852-.1823-.17567-.2735-.38447-.2735-.62642c0-.24527.0912-.45408.2735-.62642.1856-.17567.4076-.2635.6662-.2635.2585,0,.4789.08783.6613.2635.185.17234.278.38115.278.62642c0,.24195-.093.45075-.278.62642-.1824.17234-.4028.25852-.6613.25852Zm4.2223,4.28053v4.5341h-1.487v-7.63636h1.427v1.24289h.095c.175-.40435.45-.72916.825-.97443.378-.24526.853-.3679,1.427-.3679.52,0,.976.10938,1.367.32813.391.21544.694.53693.91.96449.215.42755.323.9562.323,1.58598v4.8572h-1.487v-4.6783c0-.55347-.144-.986-.432-1.29755-.289-.31487-.685-.4723-1.188-.4723-.345,0-.652.07457-.92.22372-.265.14915-.476.3679-.632.65625-.152.28504-.228.62978-.228,1.03408Zm10.082,7.5568c-.606,0-1.128-.0795-1.566-.2386-.434-.1591-.789-.3696-1.064-.6314s-.48-.5485-.616-.8601l1.277-.527c.09.1459.209.3.358.4624.153.1657.358.3066.617.4226.262.116.598.174,1.009.174.564,0,1.029-.1376,1.397-.4127.368-.2717.552-.7059.552-1.3025v-1.5014h-.094c-.09.1624-.219.343-.388.5419-.166.1988-.395.3712-.686.517-.292.1458-.672.2188-1.139.2188-.603,0-1.147-.1409-1.631-.4226-.48-.2851-.861-.7043-1.143-1.2578-.278-.5569-.418-1.2413-.418-2.0533s.138-1.50806.413-2.08808c.278-.58002.66-1.02415,1.143-1.33239.484-.31155,1.033-.46733,1.646-.46733.474,0,.857.07955,1.149.23864.291.15578.518.33807.681.54688.165.2088.293.39275.382.55184h.11v-1.23792h1.456v7.80536c0,.6563-.152,1.1949-.457,1.6158s-.717.7325-1.238.9347c-.517.2021-1.1.3032-1.75.3032Zm-.015-4.37c.428,0,.789-.0994,1.084-.2983.298-.2022.524-.4905.676-.8651.156-.3778.234-.8302.234-1.3572c0-.5137-.076-.9661-.229-1.35724-.152-.3911-.376-.69602-.671-.91477-.295-.22207-.66-.3331-1.094-.3331-.447,0-.82.116-1.118.34801-.299.22869-.524.54025-.676.93466-.15.39444-.224.83524-.224,1.32244c0,.5005.076.9396.228,1.3175.153.3778.378.6728.677.8849.301.2121.672.3182,1.113.3182Zm8.313,1.4964c-.617,0-1.167-.1574-1.651-.4723-.48-.3181-.858-.7706-1.133-1.3572-.272-.59-.408-1.2976-.408-2.1229s.138-1.53122.413-2.11786c.278-.58665.659-1.03575,1.143-1.34731s1.033-.46733,1.646-.46733c.474,0,.855.07955,1.143.23864.292.15578.517.33807.676.54688.163.2088.289.39275.378.55184h.09v-3.78338h1.486v10.18182h-1.452v-1.1882h-.124c-.089.1624-.219.348-.388.5568-.165.2088-.394.3911-.686.5469-.291.1558-.669.2336-1.133.2336Zm.328-1.2677c.427,0,.789-.1127,1.084-.3381.298-.2287.523-.5452.676-.9495.156-.4044.234-.8751.234-1.412c0-.5303-.077-.9943-.229-1.39203-.153-.39772-.376-.70762-.671-.92968s-.66-.3331-1.094-.3331c-.448,0-.82.116-1.119.34801-.298.23201-.523.54853-.676.94957-.149.40103-.224.85343-.224,1.35723c0,.5104.077.9695.229,1.3771.153.4077.378.7309.676.9695.302.2353.673.353,1.114.353Zm8.793,1.2727c-.716,0-1.34-.164-1.874-.4922-.534-.3281-.948-.7871-1.243-1.3771s-.442-1.2794-.442-2.0682c0-.7921.147-1.48483.442-2.07811s.709-1.05397,1.243-1.3821s1.158-.49219,1.874-.49219s1.341.16407,1.875.49219c.533.32813.948.78883,1.243,1.3821s.442,1.28601.442,2.07811c0,.7888-.147,1.4782-.442,2.0682s-.71,1.049-1.243,1.3771c-.534.3282-1.159.4922-1.875.4922Zm.005-1.2479c.464,0,.849-.1226,1.154-.3678s.53-.5718.676-.9795c.149-.4076.224-.8567.224-1.3473c0-.4872-.075-.9346-.224-1.34228-.146-.41099-.371-.74077-.676-.98935s-.69-.37287-1.154-.37287c-.467,0-.855.12429-1.163.37287-.305.24858-.532.57836-.681.98935-.146.40768-.219.85508-.219,1.34228c0,.4906.073.9397.219,1.3473.149.4077.376.7342.681.9795.308.2452.696.3678,1.163.3678ZM136.456,15v-7.63636h1.427v1.24289h.095c.159-.42092.419-.74905.78-.98437.361-.23864.794-.35796,1.298-.35796.51,0,.938.11932,1.282.35796.348.23864.605.56676.771.98437h.08c.182-.40767.472-.73248.87-.97443.397-.24526.871-.3679,1.421-.3679.693,0,1.258.2171,1.696.65128.441.43419.661,1.08878.661,1.96378v5.12074h-1.487v-4.9815c0-.51708-.14-.89161-.422-1.12361s-.618-.34801-1.009-.34801c-.484,0-.86.14914-1.129.44744-.268.29498-.403.67448-.403,1.13848v4.8672h-1.481v-5.07599c0-.4143-.129-.7474-.388-.99929-.258-.2519-.595-.37784-1.009-.37784-.282,0-.542.07457-.781.22372-.235.14583-.426.34966-.571.6115-.143.26184-.214.56511-.214.9098v4.7081h-1.487Z" fill="#fff"/><rect width="119" height="8" rx="4" ry="4" transform="translate(40 28)" fill="#eaecf0"/><rect width="23.9737" height="8" rx="4" ry="4" transform="translate(40 28)" fill="#1eaae6"/><path d="M171.979,37v-1.1136l3.446-3.5696c.368-.3878.671-.7275.91-1.0192.241-.295.422-.5751.541-.8402.12-.2652.179-.5469.179-.8452c0-.3381-.079-.6297-.238-.875-.159-.2486-.376-.4391-.652-.5717-.275-.1359-.585-.2039-.929-.2039-.365,0-.683.0746-.955.2238-.272.1491-.48.3596-.626.6314s-.219.5899-.219.9545h-1.467c0-.6198.143-1.1617.428-1.6257s.676-.8236,1.173-1.0788c.497-.2586,1.063-.3878,1.696-.3878.639,0,1.203.1276,1.69.3828.49.2519.873.5966,1.148,1.0341.275.4342.413.9247.413,1.4716c0,.3778-.071.7474-.214,1.1086-.139.3613-.383.764-.731,1.2081-.348.4408-.831.9761-1.451,1.6059l-2.024,2.1179v.0745h4.584v1.3175h-6.702Zm12.131.169c-.785-.0033-1.457-.2104-2.013-.6214-.557-.411-.983-1.0092-1.278-1.7948-.295-.7855-.443-1.7317-.443-2.8387c0-1.1037.148-2.0467.443-2.8289.298-.7822.726-1.3788,1.283-1.7897.56-.411,1.229-.6165,2.008-.6165s1.447.2071,2.004.6214c.556.411.982,1.0076,1.277,1.7898.299.7789.448,1.7202.448,2.8239c0,1.1103-.148,2.0582-.443,2.8437-.295.7822-.721,1.3805-1.277,1.7948-.557.4109-1.227.6164-2.009.6164Zm0-1.3274c.689,0,1.228-.3364,1.616-1.0092.391-.6728.586-1.6456.586-2.9183c0-.8452-.089-1.5595-.268-2.1428-.176-.5866-.429-1.0308-.761-1.3324-.328-.3049-.719-.4574-1.173-.4574-.686,0-1.225.3381-1.616,1.0142-.391.6762-.588,1.6489-.591,2.9184c0,.8484.088,1.566.263,2.1527.179.5833.433,1.0258.761,1.3274.328.2983.722.4474,1.183.4474Zm10.807-.7507v-.5369c0-.3845.08-.7358.239-1.054.162-.3215.397-.5784.706-.7706.311-.1955.687-.2933,1.128-.2933.451,0,.829.0961,1.134.2883s.535.4491.691.7706c.159.3215.238.6745.238,1.059v.5369c0,.3845-.079.7375-.238,1.059-.159.3181-.393.575-.701.7706-.305.1922-.68.2883-1.124.2883-.447,0-.825-.0961-1.133-.2883-.309-.1956-.542-.4525-.701-.7706-.159-.3215-.239-.6745-.239-1.059Zm1.158-.5369v.5369c0,.285.068.5436.204.7756s.373.348.711.348c.335,0,.569-.116.701-.348.133-.232.199-.4906.199-.7756v-.5369c0-.2851-.065-.5436-.194-.7756-.126-.232-.361-.348-.706-.348-.331,0-.567.116-.706.348s-.209.4905-.209.7756Zm-6.279-5.2898v-.5369c0-.3845.08-.7375.239-1.059.162-.3215.398-.5783.706-.7706.311-.1922.688-.2883,1.128-.2883.451,0,.829.0961,1.134.2883s.535.4491.691.7706.234.6745.234,1.059v.5369c0,.3845-.08.7375-.239,1.059-.156.3181-.388.575-.696.7706-.305.1922-.679.2883-1.124.2883-.45,0-.83-.0961-1.138-.2883-.305-.1956-.537-.4525-.696-.7706-.159-.3215-.239-.6745-.239-1.059Zm1.164-.5369v.5369c0,.285.066.5436.199.7756.135.232.372.348.71.348.332,0,.564-.116.697-.348.135-.232.203-.4906.203-.7756v-.5369c0-.2851-.064-.5436-.194-.7756-.129-.232-.364-.348-.706-.348-.331,0-.566.116-.705.348-.136.232-.204.4905-.204.7756ZM190.269,37l7-10.1818h1.188L191.457,37h-1.188Z" fill="#fff"/></g><clipPath id="eWce091SZoI72"><rect width="201" height="42" rx="0" ry="0" fill="#fff"/></clipPath></g><g id="eWce091SZoI74" transform="translate(.754502 0.190345)" clip-path="url(#eWce091SZoI87)"><g><path d="M49.3366,4.81818v10.18182h-1.4119L42.7493,7.53267h-.0945v7.46733h-1.5362v-10.18182h1.4219l5.1804,7.47732h.0944v-7.47732h1.5213ZM51.4583,15v-7.63636h1.4865v7.63636h-1.4865Zm.7507-8.81463c-.2585,0-.4806-.08618-.6662-.25852-.1823-.17567-.2734-.38447-.2734-.62642c0-.24527.0911-.45408.2734-.62642.1856-.17567.4077-.2635.6662-.2635s.4789.08783.6612.2635c.1856.17234.2784.38115.2784.62642c0,.24195-.0928.45075-.2784.62642-.1823.17234-.4027.25852-.6612.25852ZM58.1463,18.0227c-.6065,0-1.1285-.0795-1.566-.2386-.4342-.1591-.7889-.3696-1.064-.6314s-.4806-.5485-.6164-.8601l1.2777-.527c.0894.1459.2088.3.3579.4624.1525.1657.358.3066.6165.4226.2618.116.5982.174,1.0092.174.5635,0,1.0291-.1376,1.397-.4127.3679-.2717.5519-.7059.5519-1.3025v-1.5014h-.0945c-.0895.1624-.2187.343-.3878.5419-.1657.1988-.3944.3712-.686.517s-.6712.2188-1.1385.2188c-.6033,0-1.1468-.1409-1.6307-.4226-.4806-.2851-.8618-.7043-1.1435-1.2578-.2784-.5569-.4176-1.2413-.4176-2.0533s.1376-1.50806.4126-2.08808c.2785-.58002.6596-1.02415,1.1435-1.33239.4839-.31155,1.0324-.46733,1.6456-.46733.474,0,.8568.07955,1.1484.23864.2917.15578.5188.33807.6812.54688.1657.2088.2933.39275.3828.55184h.1093v-1.23792h1.4567v7.80536c0,.6563-.1524,1.1949-.4574,1.6158-.3049.4209-.7175.7325-1.2379.9347-.517.2021-1.1004.3032-1.75.3032Zm-.0149-4.37c.4275,0,.7888-.0994,1.0838-.2983.2983-.2022.5237-.4905.6761-.8651.1558-.3778.2337-.8302.2337-1.3572c0-.5137-.0762-.9661-.2287-1.35724s-.3762-.69602-.6712-.91477c-.2949-.22207-.6595-.3331-1.0937-.3331-.4475,0-.8203.116-1.1186.34801-.2983.22869-.5237.54025-.6762.93466-.1491.39444-.2237.83524-.2237,1.32244c0,.5005.0763.9396.2287,1.3175.1525.3778.3779.6728.6762.8849.3016.2121.6728.3182,1.1136.3182Zm8.745,1.5014c-.7523,0-1.4003-.1607-1.9439-.4822-.5402-.3248-.9578-.7806-1.2528-1.3672-.2917-.59-.4375-1.281-.4375-2.0732c0-.7822.1458-1.47156.4375-2.06815.295-.59659.706-1.06226,1.2329-1.39702.5303-.33475,1.1501-.50213,1.8594-.50213.4309,0,.8485.07126,1.2529.21378.4043.14252.7672.36624,1.0887.67117s.5751.70099.7607,1.18821c.1856.4839.2784,1.07224.2784,1.76494v.527h-6.0703v-1.1137h4.6136c0-.3911-.0795-.73743-.2386-1.03904-.1591-.30492-.3828-.54522-.6712-.72088-.285-.17566-.6198-.26349-1.0042-.26349-.4177,0-.7822.10274-1.0938.30824-.3082.20217-.5469.46733-.7159.79545-.1657.32481-.2486.67782-.2486,1.05892v.8701c0,.5104.0895.9446.2685,1.3025.1823.358.4358.6314.7606.8203.3249.1856.7043.2784,1.1385.2784.2818,0,.5386-.0397.7706-.1193.232-.0828.4326-.2055.6016-.3679s.2983-.3629.3878-.6015l1.4069.2535c-.1127.4143-.3148.7772-.6065,1.0888-.2883.3082-.6513.5485-1.0888.7209-.4342.169-.9297.2535-1.4865.2535ZM71.802,15v-7.63636h1.4368v1.21306h.0796c.1392-.41098.3844-.73413.7358-.96946.3546-.23863.7556-.35795,1.2031-.35795.0928,0,.2022.00331.3281.00994.1293.00663.2304.01492.3033.02486v1.42188c-.0597-.01658-.1657-.03481-.3182-.05469-.1525-.0232-.3049-.0348-.4574-.0348-.3513,0-.6645.07457-.9396.22372-.2718.14583-.4872.34967-.6463.6115-.1591.25853-.2387.5535-.2387.8849v4.6634h-1.4865Zm5.3731,0v-7.63636h1.4865v7.63636h-1.4865Zm.7507-8.81463c-.2585,0-.4806-.08618-.6662-.25852-.1823-.17567-.2734-.38447-.2734-.62642c0-.24527.0911-.45408.2734-.62642.1856-.17567.4077-.2635.6662-.2635s.4789.08783.6612.2635c.1856.17234.2784.38115.2784.62642c0,.24195-.0928.45075-.2784.62642-.1823.17234-.4027.25852-.6612.25852ZM82.8837,15.169c-.4839,0-.9214-.0895-1.3125-.2684-.3911-.1823-.701-.4458-.9297-.7905-.2254-.3447-.3381-.7673-.3381-1.2678c0-.4308.0829-.7855.2486-1.0639s.3895-.4988.6712-.6612.5966-.2851.9446-.3679.7026-.1458,1.0639-.1889c.4574-.0531.8286-.0961,1.1136-.1293.2851-.0365.4922-.0945.6215-.174s.1939-.2088.1939-.38778v-.0348c0-.43419-.1226-.7706-.3679-1.00924-.242-.23863-.6032-.35795-1.0838-.35795-.5005,0-.8949.11103-1.1833.3331-.285.21875-.4822.46235-.5916.73082l-1.397-.31818c.1657-.46402.4077-.83854.7259-1.12358.3215-.28835.691-.49716,1.1086-.62642.4176-.13258.8568-.19887,1.3175-.19887.3049,0,.6281.03646.9695.10938.3447.0696.6662.19886.9644.38778.3017.18892.5486.45905.7408.81037.1922.34801.2884.80043.2884,1.35725v5.07102h-1.4517v-1.044h-.0597c-.0961.1922-.2403.3811-.4325.5667s-.4392.3398-.7408.4624-.6629.1839-1.0838.1839Zm.3232-1.1931c.4109,0,.7623-.0813,1.0539-.2437.295-.1624.5187-.3745.6712-.6363.1558-.2652.2337-.5486.2337-.8502v-.9843c-.0531.053-.1558.1027-.3083.1491-.1491.0431-.3198.0812-.5121.1144-.1922.0298-.3794.058-.5617.0845-.1823.0232-.3348.0431-.4574.0596-.2884.0365-.5519.0978-.7905.184-.2353.0862-.4243.2104-.5668.3729-.1392.159-.2088.3712-.2088.6363c0,.3679.1359.6463.4077.8352.2718.1856.6181.2785,1.0391.2785Z" fill="#fff"/><rect width="119" height="8" rx="4" ry="4" transform="translate(40 28)" fill="#eaecf0"/><rect width="34" height="8" rx="4" ry="4" transform="translate(40 28)" fill="#1eaae6"/><path d="M175.524,37.1392c-.683,0-1.292-.1177-1.829-.353-.534-.2353-.957-.5618-1.268-.9794-.308-.4209-.474-.9081-.497-1.4616h1.561c.02.3016.121.5634.303.7855.186.2187.428.3878.726.5071s.63.179.994.179c.401,0,.756-.0696,1.064-.2088.312-.1393.555-.3331.731-.5817.176-.2519.263-.5419.263-.8701c0-.3413-.087-.6413-.263-.8998-.172-.2618-.426-.4673-.761-.6165-.331-.1491-.732-.2237-1.203-.2237h-.86v-1.2528h.86c.378,0,.709-.068.994-.2039.289-.1359.514-.3248.677-.5667.162-.2453.243-.532.243-.8601c0-.3149-.071-.5883-.214-.8203-.139-.2354-.338-.4193-.596-.5519-.255-.1326-.557-.1989-.905-.1989-.331,0-.641.0614-.93.184-.285.1193-.517.2917-.696.517-.179.2221-.275.4889-.288.8005h-1.487c.017-.5502.179-1.0341.488-1.4517.311-.4177.722-.7441,1.233-.9794.51-.2354,1.077-.353,1.7-.353.653,0,1.216.1276,1.69.3828.478.2519.845.5883,1.104,1.0092.262.421.391.8817.388,1.3821.003.5701-.156,1.054-.478,1.4517-.318.3978-.742.6646-1.272.8005v.0795c.676.1027,1.2.3712,1.571.8054.374.4342.56.9728.557,1.6158.003.5601-.153,1.0622-.468,1.5064-.311.4441-.737.7938-1.277,1.049-.541.2519-1.159.3778-1.855.3778Zm9.024.0298c-.786-.0033-1.457-.2104-2.014-.6214s-.983-1.0092-1.278-1.7948c-.295-.7855-.442-1.7317-.442-2.8387c0-1.1037.147-2.0467.442-2.8289.299-.7822.726-1.3788,1.283-1.7897.56-.411,1.23-.6165,2.009-.6165.778,0,1.446.2071,2.003.6214.557.411.983,1.0076,1.278,1.7898.298.7789.447,1.7202.447,2.8239c0,1.1103-.147,2.0582-.442,2.8437-.295.7822-.721,1.3805-1.278,1.7948-.557.4109-1.226.6164-2.008.6164Zm0-1.3274c.689,0,1.228-.3364,1.615-1.0092.391-.6728.587-1.6456.587-2.9183c0-.8452-.089-1.5595-.268-2.1428-.176-.5866-.43-1.0308-.761-1.3324-.328-.3049-.719-.4574-1.173-.4574-.686,0-1.225.3381-1.616,1.0142-.391.6762-.588,1.6489-.592,2.9184c0,.8484.088,1.566.264,2.1527.179.5833.432,1.0258.76,1.3274.328.2983.723.4474,1.184.4474Zm10.807-.7507v-.5369c0-.3845.079-.7358.238-1.054.163-.3215.398-.5784.706-.7706.312-.1955.688-.2933,1.129-.2933.45,0,.828.0961,1.133.2883s.536.4491.691.7706c.159.3215.239.6745.239,1.059v.5369c0,.3845-.08.7375-.239,1.059-.159.3181-.392.575-.701.7706-.305.1922-.679.2883-1.123.2883-.448,0-.826-.0961-1.134-.2883-.308-.1956-.542-.4525-.701-.7706-.159-.3215-.238-.6745-.238-1.059Zm1.158-.5369v.5369c0,.285.068.5436.204.7756s.373.348.711.348c.334,0,.568-.116.701-.348.132-.232.199-.4906.199-.7756v-.5369c0-.2851-.065-.5436-.194-.7756-.126-.232-.362-.348-.706-.348-.332,0-.567.116-.706.348s-.209.4905-.209.7756Zm-6.279-5.2898v-.5369c0-.3845.079-.7375.238-1.059.163-.3215.398-.5783.706-.7706.312-.1922.688-.2883,1.129-.2883.451,0,.829.0961,1.134.2883.304.1923.535.4491.691.7706.155.3215.233.6745.233,1.059v.5369c0,.3845-.079.7375-.238,1.059-.156.3181-.388.575-.696.7706-.305.1922-.68.2883-1.124.2883-.451,0-.83-.0961-1.138-.2883-.305-.1956-.537-.4525-.697-.7706-.159-.3215-.238-.6745-.238-1.059Zm1.163-.5369v.5369c0,.285.066.5436.199.7756.136.232.373.348.711.348.331,0,.563-.116.696-.348.136-.232.204-.4906.204-.7756v-.5369c0-.2851-.065-.5436-.194-.7756s-.365-.348-.706-.348c-.331,0-.567.116-.706.348-.136.232-.204.4905-.204.7756ZM190.706,37l7-10.1818h1.188L191.894,37h-1.188Z" fill="#fff"/><g clip-path="url(#eWce091SZoI85)"><g><path d="M15,35c8.2843,0,15-6.7157,15-15s-6.7157-15-15-15-15,6.7157-15,15s6.71573,15,15,15Z" fill="#f0f0f0"/><path d="M0,20.0003c0,6.4495,4.07062,11.9476,9.78264,14.0671v-28.13405C4.07062,8.05269,0,13.5509,0,20.0003Z" fill="#6da544"/><path d="M30.0014,20.0003c0-6.4494-4.0706-11.94761-9.7826-14.06695v28.13405c5.712-2.1195,9.7826-7.6176,9.7826-14.0671Z" fill="#6da544"/></g><clipPath id="eWce091SZoI85"><rect width="30" height="30" rx="0" ry="0" transform="translate(0 5)" fill="#fff"/></clipPath></g></g><clipPath id="eWce091SZoI87"><rect width="201" height="42" rx="0" ry="0" fill="#fff"/></clipPath></g>
<script><![CDATA[
!function(t,e){"object"==typeof exports&&"undefined"!=typeof module?module.exports=e():"function"==typeof define&&define.amd?define(e):((t="undefined"!=typeof globalThis?globalThis:t||self).__SVGATOR_PLAYER__=t.__SVGATOR_PLAYER__||{},t.__SVGATOR_PLAYER__["91c80d77"]=e())}(this,(function(){"use strict";function t(t,e){var n=Object.keys(t);if(Object.getOwnPropertySymbols){var r=Object.getOwnPropertySymbols(t);e&&(r=r.filter((function(e){return Object.getOwnPropertyDescriptor(t,e).enumerable}))),n.push.apply(n,r)}return n}function e(e){for(var n=1;n<arguments.length;n++){var r=null!=arguments[n]?arguments[n]:{};n%2?t(Object(r),!0).forEach((function(t){u(e,t,r[t])})):Object.getOwnPropertyDescriptors?Object.defineProperties(e,Object.getOwnPropertyDescriptors(r)):t(Object(r)).forEach((function(t){Object.defineProperty(e,t,Object.getOwnPropertyDescriptor(r,t))}))}return e}function n(t){return(n="function"==typeof Symbol&&"symbol"==typeof Symbol.iterator?function(t){return typeof t}:function(t){return t&&"function"==typeof Symbol&&t.constructor===Symbol&&t!==Symbol.prototype?"symbol":typeof t})(t)}function r(t,e){if(!(t instanceof e))throw new TypeError("Cannot call a class as a function")}function i(t,e){for(var n=0;n<e.length;n++){var r=e[n];r.enumerable=r.enumerable||!1,r.configurable=!0,"value"in r&&(r.writable=!0),Object.defineProperty(t,r.key,r)}}function o(t,e,n){return e&&i(t.prototype,e),n&&i(t,n),t}function u(t,e,n){return e in t?Object.defineProperty(t,e,{value:n,enumerable:!0,configurable:!0,writable:!0}):t[e]=n,t}function a(t){return(a=Object.setPrototypeOf?Object.getPrototypeOf:function(t){return t.__proto__||Object.getPrototypeOf(t)})(t)}function s(t,e){return(s=Object.setPrototypeOf||function(t,e){return t.__proto__=e,t})(t,e)}function l(){if("undefined"==typeof Reflect||!Reflect.construct)return!1;if(Reflect.construct.sham)return!1;if("function"==typeof Proxy)return!0;try{return Boolean.prototype.valueOf.call(Reflect.construct(Boolean,[],(function(){}))),!0}catch(t){return!1}}function f(t,e,n){return(f=l()?Reflect.construct:function(t,e,n){var r=[null];r.push.apply(r,e);var i=new(Function.bind.apply(t,r));return n&&s(i,n.prototype),i}).apply(null,arguments)}function c(t,e){if(e&&("object"==typeof e||"function"==typeof e))return e;if(void 0!==e)throw new TypeError("Derived constructors may only return object or undefined");return function(t){if(void 0===t)throw new ReferenceError("this hasn't been initialised - super() hasn't been called");return t}(t)}function h(t,e,n){return(h="undefined"!=typeof Reflect&&Reflect.get?Reflect.get:function(t,e,n){var r=function(t,e){for(;!Object.prototype.hasOwnProperty.call(t,e)&&null!==(t=a(t)););return t}(t,e);if(r){var i=Object.getOwnPropertyDescriptor(r,e);return i.get?i.get.call(n):i.value}})(t,e,n||t)}function v(t){return function(t){if(Array.isArray(t))return y(t)}(t)||function(t){if("undefined"!=typeof Symbol&&null!=t[Symbol.iterator]||null!=t["@@iterator"])return Array.from(t)}(t)||function(t,e){if(!t)return;if("string"==typeof t)return y(t,e);var n=Object.prototype.toString.call(t).slice(8,-1);"Object"===n&&t.constructor&&(n=t.constructor.name);if("Map"===n||"Set"===n)return Array.from(t);if("Arguments"===n||/^(?:Ui|I)nt(?:8|16|32)(?:Clamped)?Array$/.test(n))return y(t,e)}(t)||function(){throw new TypeError("Invalid attempt to spread non-iterable instance.\nIn order to be iterable, non-array objects must have a [Symbol.iterator]() method.")}()}function y(t,e){(null==e||e>t.length)&&(e=t.length);for(var n=0,r=new Array(e);n<e;n++)r[n]=t[n];return r}Number.isInteger||(Number.isInteger=function(t){return"number"==typeof t&&isFinite(t)&&Math.floor(t)===t}),Number.EPSILON||(Number.EPSILON=2220446049250313e-31);var d=g(Math.pow(10,-6));function g(t){var e=arguments.length>1&&void 0!==arguments[1]?arguments[1]:6;if(Number.isInteger(t))return t;var n=Math.pow(10,e);return Math.round((+t+Number.EPSILON)*n)/n}function p(t,e){var n=arguments.length>2&&void 0!==arguments[2]?arguments[2]:d;return Math.abs(t-e)<n}var m=Math.PI/180;function b(t){return t}function k(t,e,n){var r=1-n;return 3*n*r*(t*r+e*n)+n*n*n}function w(){var t=arguments.length>0&&void 0!==arguments[0]?arguments[0]:0,e=arguments.length>1&&void 0!==arguments[1]?arguments[1]:0,n=arguments.length>2&&void 0!==arguments[2]?arguments[2]:1,r=arguments.length>3&&void 0!==arguments[3]?arguments[3]:1;return t<0||t>1||n<0||n>1?null:p(t,e)&&p(n,r)?b:function(i){if(i<=0)return t>0?i*e/t:0===e&&n>0?i*r/n:0;if(i>=1)return n<1?1+(i-1)*(r-1)/(n-1):1===n&&t<1?1+(i-1)*(e-1)/(t-1):1;for(var o,u=0,a=1;u<a;){var s=k(t,n,o=(u+a)/2);if(p(i,s))break;s<i?u=o:a=o}return k(e,r,o)}}function x(){return 1}function A(t){return 1===t?1:0}function _(){var t=arguments.length>0&&void 0!==arguments[0]?arguments[0]:1,e=arguments.length>1&&void 0!==arguments[1]?arguments[1]:0;if(1===t){if(0===e)return A;if(1===e)return x}var n=1/t;return function(t){return t>=1?1:(t+=e*n)-t%n}}var O=Math.sin,S=Math.cos,E=Math.acos,P=Math.asin,M=Math.tan,j=Math.atan2,B=Math.PI/180,T=180/Math.PI,I=Math.sqrt,R=function(){function t(){var e=arguments.length>0&&void 0!==arguments[0]?arguments[0]:1,n=arguments.length>1&&void 0!==arguments[1]?arguments[1]:0,i=arguments.length>2&&void 0!==arguments[2]?arguments[2]:0,o=arguments.length>3&&void 0!==arguments[3]?arguments[3]:1,u=arguments.length>4&&void 0!==arguments[4]?arguments[4]:0,a=arguments.length>5&&void 0!==arguments[5]?arguments[5]:0;r(this,t),this.m=[e,n,i,o,u,a],this.i=null,this.w=null,this.s=null}return o(t,[{key:"determinant",get:function(){var t=this.m;return t[0]*t[3]-t[1]*t[2]}},{key:"isIdentity",get:function(){if(null===this.i){var t=this.m;this.i=1===t[0]&&0===t[1]&&0===t[2]&&1===t[3]&&0===t[4]&&0===t[5]}return this.i}},{key:"point",value:function(t,e){var n=this.m;return{x:n[0]*t+n[2]*e+n[4],y:n[1]*t+n[3]*e+n[5]}}},{key:"translateSelf",value:function(){var t=arguments.length>0&&void 0!==arguments[0]?arguments[0]:0,e=arguments.length>1&&void 0!==arguments[1]?arguments[1]:0;if(!t&&!e)return this;var n=this.m;return n[4]+=n[0]*t+n[2]*e,n[5]+=n[1]*t+n[3]*e,this.w=this.s=this.i=null,this}},{key:"rotateSelf",value:function(){var t=arguments.length>0&&void 0!==arguments[0]?arguments[0]:0;if(t%=360){var e=O(t*=B),n=S(t),r=this.m,i=r[0],o=r[1];r[0]=i*n+r[2]*e,r[1]=o*n+r[3]*e,r[2]=r[2]*n-i*e,r[3]=r[3]*n-o*e,this.w=this.s=this.i=null}return this}},{key:"scaleSelf",value:function(){var t=arguments.length>0&&void 0!==arguments[0]?arguments[0]:1,e=arguments.length>1&&void 0!==arguments[1]?arguments[1]:1;if(1!==t||1!==e){var n=this.m;n[0]*=t,n[1]*=t,n[2]*=e,n[3]*=e,this.w=this.s=this.i=null}return this}},{key:"skewSelf",value:function(t,e){if(e%=360,(t%=360)||e){var n=this.m,r=n[0],i=n[1],o=n[2],u=n[3];t&&(t=M(t*B),n[2]+=r*t,n[3]+=i*t),e&&(e=M(e*B),n[0]+=o*e,n[1]+=u*e),this.w=this.s=this.i=null}return this}},{key:"resetSelf",value:function(){var t=arguments.length>0&&void 0!==arguments[0]?arguments[0]:1,e=arguments.length>1&&void 0!==arguments[1]?arguments[1]:0,n=arguments.length>2&&void 0!==arguments[2]?arguments[2]:0,r=arguments.length>3&&void 0!==arguments[3]?arguments[3]:1,i=arguments.length>4&&void 0!==arguments[4]?arguments[4]:0,o=arguments.length>5&&void 0!==arguments[5]?arguments[5]:0,u=this.m;return u[0]=t,u[1]=e,u[2]=n,u[3]=r,u[4]=i,u[5]=o,this.w=this.s=this.i=null,this}},{key:"recomposeSelf",value:function(){var t=arguments.length>0&&void 0!==arguments[0]?arguments[0]:null,e=arguments.length>1&&void 0!==arguments[1]?arguments[1]:null,n=arguments.length>2&&void 0!==arguments[2]?arguments[2]:null,r=arguments.length>3&&void 0!==arguments[3]?arguments[3]:null,i=arguments.length>4&&void 0!==arguments[4]?arguments[4]:null;return this.isIdentity||this.resetSelf(),t&&(t.x||t.y)&&this.translateSelf(t.x,t.y),e&&this.rotateSelf(e),n&&(n.x&&this.skewSelf(n.x,0),n.y&&this.skewSelf(0,n.y)),!r||1===r.x&&1===r.y||this.scaleSelf(r.x,r.y),i&&(i.x||i.y)&&this.translateSelf(i.x,i.y),this}},{key:"decompose",value:function(){var t=arguments.length>0&&void 0!==arguments[0]?arguments[0]:0,e=arguments.length>1&&void 0!==arguments[1]?arguments[1]:0,n=this.m,r=n[0]*n[0]+n[1]*n[1],i=[[n[0],n[1]],[n[2],n[3]]],o=I(r);if(0===o)return{origin:{x:g(n[4]),y:g(n[5])},translate:{x:g(t),y:g(e)},scale:{x:0,y:0},skew:{x:0,y:0},rotate:0};i[0][0]/=o,i[0][1]/=o;var u=n[0]*n[3]-n[1]*n[2]<0;u&&(o=-o);var a=i[0][0]*i[1][0]+i[0][1]*i[1][1];i[1][0]-=i[0][0]*a,i[1][1]-=i[0][1]*a;var s=I(i[1][0]*i[1][0]+i[1][1]*i[1][1]);if(0===s)return{origin:{x:g(n[4]),y:g(n[5])},translate:{x:g(t),y:g(e)},scale:{x:g(o),y:0},skew:{x:0,y:0},rotate:0};i[1][0]/=s,i[1][1]/=s,a/=s;var l=0;return i[1][1]<0?(l=E(i[1][1])*T,i[0][1]<0&&(l=360-l)):l=P(i[0][1])*T,u&&(l=-l),a=j(a,I(i[0][0]*i[0][0]+i[0][1]*i[0][1]))*T,u&&(a=-a),{origin:{x:g(n[4]),y:g(n[5])},translate:{x:g(t),y:g(e)},scale:{x:g(o),y:g(s)},skew:{x:g(a),y:0},rotate:g(l)}}},{key:"clone",value:function(){var t=this.m;return new this.constructor(t[0],t[1],t[2],t[3],t[4],t[5])}},{key:"toString",value:function(){var t=arguments.length>0&&void 0!==arguments[0]?arguments[0]:" ";if(null===this.s){var e=this.m.map((function(t){return g(t)}));1===e[0]&&0===e[1]&&0===e[2]&&1===e[3]?this.s="translate("+e[4]+t+e[5]+")":this.s="matrix("+e.join(t)+")"}return this.s}}],[{key:"create",value:function(t){return t?Array.isArray(t)?f(this,v(t)):t instanceof this?t.clone():(new this).recomposeSelf(t.origin,t.rotate,t.skew,t.scale,t.translate):new this}}]),t}();function N(t,e,n){return t>=.5?n:e}function F(t,e,n){return 0===t||e===n?e:t*(n-e)+e}function C(t,e,n){var r=F(t,e,n);return r<=0?0:r}function L(t,e,n){var r=F(t,e,n);return r<=0?0:r>=1?1:r}function D(t,e,n){return 0===t?e:1===t?n:{x:F(t,e.x,n.x),y:F(t,e.y,n.y)}}function q(t,e,n){return 0===t?e:1===t?n:{x:C(t,e.x,n.x),y:C(t,e.y,n.y)}}function V(t,e,n){var r=function(t,e,n){return Math.round(F(t,e,n))}(t,e,n);return r<=0?0:r>=255?255:r}function z(t,e,n){return 0===t?e:1===t?n:{r:V(t,e.r,n.r),g:V(t,e.g,n.g),b:V(t,e.b,n.b),a:F(t,null==e.a?1:e.a,null==n.a?1:n.a)}}function Y(t,e,n){var r=e.length;if(r!==n.length)return N(t,e,n);for(var i=new Array(r),o=0;o<r;o++)i[o]=F(t,e[o],n[o]);return i}function G(t,e){for(var n=[],r=0;r<t;r++)n.push(e);return n}function U(t,e){if(--e<=0)return t;var n=(t=Object.assign([],t)).length;do{for(var r=0;r<n;r++)t.push(t[r])}while(--e>0);return t}var $,W=function(){function t(e){r(this,t),this.list=e,this.length=e.length}return o(t,[{key:"setAttribute",value:function(t,e){for(var n=this.list,r=0;r<this.length;r++)n[r].setAttribute(t,e)}},{key:"removeAttribute",value:function(t){for(var e=this.list,n=0;n<this.length;n++)e[n].removeAttribute(t)}},{key:"style",value:function(t,e){for(var n=this.list,r=0;r<this.length;r++)n[r].style[t]=e}}]),t}(),H=/-./g,Q=function(t,e){return e.toUpperCase()};function X(t){return"function"==typeof t?t:N}function J(t){return t?"function"==typeof t?t:Array.isArray(t)?function(t){var e=arguments.length>1&&void 0!==arguments[1]?arguments[1]:b;if(!Array.isArray(t))return e;switch(t.length){case 1:return _(t[0])||e;case 2:return _(t[0],t[1])||e;case 4:return w(t[0],t[1],t[2],t[3])||e}return e}(t,null):function(t,e){var n=arguments.length>2&&void 0!==arguments[2]?arguments[2]:b;switch(t){case"linear":return b;case"steps":return _(e.steps||1,e.jump||0)||n;case"bezier":case"cubic-bezier":return w(e.x1||0,e.y1||0,e.x2||0,e.y2||0)||n}return n}(t.type,t.value,null):null}function K(t,e,n){var r=arguments.length>3&&void 0!==arguments[3]&&arguments[3],i=e.length-1;if(t<=e[0].t)return r?[0,0,e[0].v]:e[0].v;if(t>=e[i].t)return r?[i,1,e[i].v]:e[i].v;var o,u=e[0],a=null;for(o=1;o<=i;o++){if(!(t>e[o].t)){a=e[o];break}u=e[o]}return null==a?r?[i,1,e[i].v]:e[i].v:u.t===a.t?r?[o,1,a.v]:a.v:(t=(t-u.t)/(a.t-u.t),u.e&&(t=u.e(t)),r?[o,t,n(t,u.v,a.v)]:n(t,u.v,a.v))}function Z(t,e){var n=arguments.length>2&&void 0!==arguments[2]?arguments[2]:null;return t&&t.length?"function"!=typeof e?null:("function"!=typeof n&&(n=null),function(r){var i=K(r,t,e);return null!=i&&n&&(i=n(i)),i}):null}function tt(t,e){return t.t-e.t}function et(t,e,r,i,o){var u,a="@"===r[0],s="#"===r[0],l=$[r],f=N;switch(a?(u=r.substr(1),r=u.replace(H,Q)):s&&(r=r.substr(1)),n(l)){case"function":if(f=l(i,o,K,J,r,a,e,t),s)return f;break;case"string":f=Z(i,X(l));break;case"object":if((f=Z(i,X(l.i),l.f))&&"function"==typeof l.u)return l.u(e,f,r,a,t)}return f?function(t,e,n){if(arguments.length>3&&void 0!==arguments[3]&&arguments[3])return t instanceof W?function(r){return t.style(e,n(r))}:function(r){return t.style[e]=n(r)};if(Array.isArray(e)){var r=e.length;return function(i){var o=n(i);if(null==o)for(var u=0;u<r;u++)t[u].removeAttribute(e);else for(var a=0;a<r;a++)t[a].setAttribute(e,o)}}return function(r){var i=n(r);null==i?t.removeAttribute(e):t.setAttribute(e,i)}}(e,r,f,a):null}function nt(t,e,r,i){if(!i||"object"!==n(i))return null;var o=null,u=null;return Array.isArray(i)?u=function(t){if(!t||!t.length)return null;for(var e=0;e<t.length;e++)t[e].e&&(t[e].e=J(t[e].e));return t.sort(tt)}(i):(u=i.keys,o=i.data||null),u?et(t,e,r,u,o):null}function rt(t,e,n){if(!n)return null;var r=[];for(var i in n)if(n.hasOwnProperty(i)){var o=nt(t,e,i,n[i]);o&&r.push(o)}return r.length?r:null}function it(t,e){if(!e.settings.duration||e.settings.duration<0)return null;var n,r,i,o,u,a=function(t,e){if(!e)return null;var n=[];if(Array.isArray(e))for(var r=e.length,i=0;i<r;i++){var o=e[i];if(2===o.length){var u=null;if("string"==typeof o[0])u=t.getElementById(o[0]);else if(Array.isArray(o[0])){u=[];for(var a=0;a<o[0].length;a++)if("string"==typeof o[0][a]){var s=t.getElementById(o[0][a]);s&&u.push(s)}u=u.length?1===u.length?u[0]:new W(u):null}if(u){var l=rt(t,u,o[1]);l&&(n=n.concat(l))}}}else for(var f in e)if(e.hasOwnProperty(f)){var c=t.getElementById(f);if(c){var h=rt(t,c,e[f]);h&&(n=n.concat(h))}}return n.length?n:null}(t,e.elements);return a?(n=a,r=e.settings,i=r.duration,o=n.length,u=null,function(t,e){var a=r.iterations||1/0,s=(r.alternate&&a%2==0)^r.direction>0?i:0,l=t%i,f=1+(t-l)/i;e*=r.direction,r.alternate&&f%2==0&&(e=-e);var c=!1;if(f>a)l=s,c=!0,-1===r.fill&&(l=r.direction>0?0:i);else if(e<0&&(l=i-l),l===u)return!1;u=l;for(var h=0;h<o;h++)n[h](l);return c}):null}function ot(t,e){if($=e,!t||!t.root||!Array.isArray(t.animations))return null;var n=function(t){for(var e=document.getElementsByTagName("svg"),n=0;n<e.length;n++)if(e[n].id===t.root&&!e[n].svgatorAnimation)return e[n].svgatorAnimation=!0,e[n];return null}(t);if(!n)return null;var r=t.animations.map((function(t){return it(n,t)})).filter((function(t){return!!t}));return r.length?{svg:n,animations:r,animationSettings:t.animationSettings,options:t.options||void 0}:null}function ut(t){return+("0x"+(t.replace(/[^0-9a-fA-F]+/g,"")||27))}function at(t,e,n){return!t||!n||e>t.length?t:t.substring(0,e)+at(t.substring(e+1),n,n)}function st(t){var e=arguments.length>1&&void 0!==arguments[1]?arguments[1]:27;return!t||t%e?t%e:st(t/e,e)}function lt(t,e,n){if(t&&t.length){var r=ut(n),i=ut(e),o=st(r)+5,u=at(t,st(r,5),o);return u=u.replace(/\x7c$/g,"==").replace(/\x2f$/g,"="),u=function(t,e,n){var r=+("0x"+t.substring(0,4));t=t.substring(4);for(var i=e%r+n%27,o=[],u=0;u<t.length;u+=2)if("|"!==t[u]){var a=+("0x"+t[u]+t[u+1])-i;o.push(a)}else{var s=+("0x"+t.substring(u+1,u+1+4))-i;u+=3,o.push(s)}return String.fromCharCode.apply(String,o)}(u=(u=atob(u)).replace(/[\x41-\x5A]/g,""),i,r),u=JSON.parse(u)}}var ft=[{key:"alternate",def:!1},{key:"fill",def:1},{key:"iterations",def:0},{key:"direction",def:1},{key:"speed",def:1},{key:"fps",def:100}],ct=function(){function t(e,n){var i=this,o=arguments.length>2&&void 0!==arguments[2]?arguments[2]:null;r(this,t),this._id=0,this._running=!1,this._rollingBack=!1,this._animations=e,this._settings=n,(!o||o<"2022-05-02")&&delete this._settings.speed,ft.forEach((function(t){i._settings[t.key]=i._settings[t.key]||t.def})),this.duration=n.duration,this.offset=n.offset||0,this.rollbackStartOffset=0}return o(t,[{key:"alternate",get:function(){return this._settings.alternate}},{key:"fill",get:function(){return this._settings.fill}},{key:"iterations",get:function(){return this._settings.iterations}},{key:"direction",get:function(){return this._settings.direction}},{key:"speed",get:function(){return this._settings.speed}},{key:"fps",get:function(){return this._settings.fps}},{key:"maxFiniteDuration",get:function(){return this.iterations>0?this.iterations*this.duration:this.duration}},{key:"_apply",value:function(t){for(var e=arguments.length>1&&void 0!==arguments[1]?arguments[1]:{},n=this._animations,r=n.length,i=0,o=0;o<r;o++)e[o]?i++:(e[o]=n[o](t,1),e[o]&&i++);return i}},{key:"_rollback",value:function(t){var e=this,n=1/0,r=null;this.rollbackStartOffset=t,this._rollingBack=!0,this._running=!0;this._id=window.requestAnimationFrame((function i(o){if(e._rollingBack){null==r&&(r=o);var u=Math.round(t-(o-r)*e.speed);if(u>e.duration&&n!==1/0){var a=!!e.alternate&&u/e.duration%2>1,s=u%e.duration;u=(s+=a?e.duration:0)||e.duration}var l=(e.fps?1e3/e.fps:0)*e.speed,f=Math.max(0,u);f<=n-l&&(e.offset=f,n=f,e._apply(f));var c=e.iterations>0&&-1===e.fill&&u>=e.maxFiniteDuration;(u<=0||e.offset<u||c)&&e.stop(),e._id=window.requestAnimationFrame(i)}}))}},{key:"_start",value:function(){var t=this,e=arguments.length>0&&void 0!==arguments[0]?arguments[0]:0,n=-1/0,r=null,i={};this._running=!0;var o=function o(u){null==r&&(r=u);var a=Math.round((u-r)*t.speed+e),s=(t.fps?1e3/t.fps:0)*t.speed;if(a>=n+s&&!t._rollingBack&&(t.offset=a,n=a,t._apply(a,i)===t._animations.length))return void t.pause(!0);t._id=window.requestAnimationFrame(o)};this._id=window.requestAnimationFrame(o)}},{key:"_pause",value:function(){this._id&&window.cancelAnimationFrame(this._id),this._running=!1}},{key:"play",value:function(){if(!this._running)return this._rollingBack?this._rollback(this.offset):this._start(this.offset)}},{key:"stop",value:function(){this._pause(),this.offset=0,this.rollbackStartOffset=0,this._rollingBack=!1,this._apply(0)}},{key:"reachedToEnd",value:function(){return this.iterations>0&&this.offset>=this.iterations*this.duration}},{key:"restart",value:function(){var t=arguments.length>0&&void 0!==arguments[0]&&arguments[0];this.stop(t),this.play(t)}},{key:"pause",value:function(){this._pause()}},{key:"reverse",value:function(){this.direction=-this.direction}}],[{key:"build",value:function(t,e){delete t.animationSettings,t.options=lt(t.options,t.root,"91c80d77"),t.animations.map((function(e){e.settings=lt(e.s,t.root,"91c80d77"),delete e.s,t.animationSettings||(t.animationSettings=e.settings)}));var n=t.version;if(!(t=ot(t,e)))return null;var r=t.options||{},i=new this(t.animations,t.animationSettings,n);return{el:t.svg,options:r,player:i}}},{key:"push",value:function(t){return this.build(t)}},{key:"init",value:function(){var t=this,e=window.__SVGATOR_PLAYER__&&window.__SVGATOR_PLAYER__["91c80d77"];Array.isArray(e)&&e.splice(0).forEach((function(e){return t.build(e)}))}}]),t}();!function(){for(var t=0,e=["ms","moz","webkit","o"],n=0;n<e.length&&!window.requestAnimationFrame;++n)window.requestAnimationFrame=window[e[n]+"RequestAnimationFrame"],window.cancelAnimationFrame=window[e[n]+"CancelAnimationFrame"]||window[e[n]+"CancelRequestAnimationFrame"];window.requestAnimationFrame||(window.requestAnimationFrame=function(e){var n=Date.now(),r=Math.max(0,16-(n-t)),i=window.setTimeout((function(){e(n+r)}),r);return t=n+r,i},window.cancelAnimationFrame=window.clearTimeout)}();var ht=function(t,e){var n=!1,r=null;return function(i){n&&clearTimeout(n),n=setTimeout((function(){return function(){for(var i=0,o=window.innerHeight,u=0,a=window.innerWidth,s=t.parentNode;s instanceof Element;){var l=window.getComputedStyle(s);if("visible"!==l.overflowY||"visible"!==l.overflowX){var f=s.getBoundingClientRect();"visible"!==l.overflowY&&(i=Math.max(i,f.top),o=Math.min(o,f.bottom)),"visible"!==l.overflowX&&(u=Math.max(u,f.left),a=Math.min(a,f.right))}if(s===s.parentNode)break;s=s.parentNode}n=!1;var c=t.getBoundingClientRect(),h=Math.min(c.height,Math.max(0,i-c.top)),v=Math.min(c.height,Math.max(0,c.bottom-o)),y=Math.min(c.width,Math.max(0,u-c.left)),d=Math.min(c.width,Math.max(0,c.right-a)),g=(c.height-h-v)/c.height,p=(c.width-y-d)/c.width,m=Math.round(g*p*100);null!==r&&r===m||(r=m,e(m))}()}),100)}},vt=function(){function t(e,n,i){r(this,t),n=Math.max(1,n||1),n=Math.min(n,100),this.el=e,this._handlers=[],this.onThresholdChange=i&&i.call?i:function(){},this.thresholdPercent=n||1,this.currentVisibility=null,this.visibilityCalculator=ht(e,this.onVisibilityUpdate.bind(this)),this.bindScrollWatchers(),this.visibilityCalculator()}return o(t,[{key:"bindScrollWatchers",value:function(){for(var t=this.el.parentNode;t&&(this._handlers.push({element:t,event:"scroll",handler:this.visibilityCalculator}),t.addEventListener("scroll",this.visibilityCalculator),t!==t.parentNode&&t!==document);)t=t.parentNode}},{key:"onVisibilityUpdate",value:function(t){var e=this.currentVisibility>=this.thresholdPercent,n=t>=this.thresholdPercent;if(null===this.currentVisibility||e!==n)return this.currentVisibility=t,void this.onThresholdChange(n);this.currentVisibility=t}},{key:"destruct",value:function(){this._handlers.forEach((function(t){t.element.removeEventListener(t.event,t.handler)}))}}]),t}();function yt(t){return g(t)+""}function dt(t){var e=arguments.length>1&&void 0!==arguments[1]?arguments[1]:" ";return t&&t.length?t.map(yt).join(e):""}function gt(t){return yt(t.x)+","+yt(t.y)}function pt(t){if(!t)return"transparent";if(null==t.a||t.a>=1){var e=function(t){return 1===(t=parseInt(t).toString(16)).length?"0"+t:t},n=function(t){return t.charAt(0)===t.charAt(1)},r=e(t.r),i=e(t.g),o=e(t.b);return n(r)&&n(i)&&n(o)&&(r=r.charAt(0),i=i.charAt(0),o=o.charAt(0)),"#"+r+i+o}return"rgba("+t.r+","+t.g+","+t.b+","+t.a+")"}function mt(t){return t?"url(#"+t+")":"none"}var bt={f:null,i:q,u:function(t,e){return function(n){var r=e(n);t.setAttribute("rx",yt(r.x)),t.setAttribute("ry",yt(r.y))}}},kt={f:null,i:function(t,e,n){return 0===t?e:1===t?n:{width:C(t,e.width,n.width),height:C(t,e.height,n.height)}},u:function(t,e){return function(n){var r=e(n);t.setAttribute("width",yt(r.width)),t.setAttribute("height",yt(r.height))}}};Object.freeze({M:2,L:2,Z:0,H:1,V:1,C:6,Q:4,T:2,S:4,A:7});var wt={},xt=null;function At(t){var e=function(){if(xt)return xt;if("object"!==("undefined"==typeof document?"undefined":n(document))||!document.createElementNS)return{};var t=document.createElementNS("http://www.w3.org/2000/svg","svg");return t&&t.style?(t.style.position="absolute",t.style.opacity="0.01",t.style.zIndex="-9999",t.style.left="-9999px",t.style.width="1px",t.style.height="1px",xt={svg:t}):{}}().svg;if(!e)return function(t){return null};var r=document.createElementNS(e.namespaceURI,"path");r.setAttributeNS(null,"d",t),r.setAttributeNS(null,"fill","none"),r.setAttributeNS(null,"stroke","none"),e.appendChild(r);var i=r.getTotalLength();return function(t){var e=r.getPointAtLength(i*t);return{x:e.x,y:e.y}}}function _t(t){return wt[t]?wt[t]:wt[t]=At(t)}function Ot(t,e,n,r){if(!t||!r)return!1;var i=["M",t.x,t.y];if(e&&n&&(i.push("C"),i.push(e.x),i.push(e.y),i.push(n.x),i.push(n.y)),e?!n:n){var o=e||n;i.push("Q"),i.push(o.x),i.push(o.y)}return e||n||i.push("L"),i.push(r.x),i.push(r.y),i.join(" ")}function St(t,e,n,r){var i=arguments.length>4&&void 0!==arguments[4]?arguments[4]:1,o=Ot(t,e,n,r),u=_t(o);try{return u(i)}catch(t){return null}}function Et(t,e,n){return t+(e-t)*n}function Pt(t,e,n){var r=arguments.length>3&&void 0!==arguments[3]&&arguments[3],i={x:Et(t.x,e.x,n),y:Et(t.y,e.y,n)};return r&&(i.a=Mt(t,e)),i}function Mt(t,e){return Math.atan2(e.y-t.y,e.x-t.x)}function jt(t,e,n,r){var i=1-r;return i*i*t+2*i*r*e+r*r*n}function Bt(t,e,n,r){return 2*(1-r)*(e-t)+2*r*(n-e)}function Tt(t,e,n,r){var i=arguments.length>4&&void 0!==arguments[4]&&arguments[4],o=St(t,e,null,n,r);return o||(o={x:jt(t.x,e.x,n.x,r),y:jt(t.y,e.y,n.y,r)}),i&&(o.a=It(t,e,n,r)),o}function It(t,e,n,r){return Math.atan2(Bt(t.y,e.y,n.y,r),Bt(t.x,e.x,n.x,r))}function Rt(t,e,n,r,i){var o=i*i;return i*o*(r-t+3*(e-n))+3*o*(t+n-2*e)+3*i*(e-t)+t}function Nt(t,e,n,r,i){var o=1-i;return 3*(o*o*(e-t)+2*o*i*(n-e)+i*i*(r-n))}function Ft(t,e,n,r,i){var o=arguments.length>5&&void 0!==arguments[5]&&arguments[5],u=St(t,e,n,r,i);return u||(u={x:Rt(t.x,e.x,n.x,r.x,i),y:Rt(t.y,e.y,n.y,r.y,i)}),o&&(u.a=Ct(t,e,n,r,i)),u}function Ct(t,e,n,r,i){return Math.atan2(Nt(t.y,e.y,n.y,r.y,i),Nt(t.x,e.x,n.x,r.x,i))}function Lt(t,e,n){var r=arguments.length>3&&void 0!==arguments[3]&&arguments[3];if(qt(e)){if(Vt(n))return Tt(e,n.start,n,t,r)}else if(qt(n)){if(zt(e))return Tt(e,e.end,n,t,r)}else{if(zt(e))return Vt(n)?Ft(e,e.end,n.start,n,t,r):Tt(e,e.end,n,t,r);if(Vt(n))return Tt(e,n.start,n,t,r)}return Pt(e,n,t,r)}function Dt(t,e,n){var r=Lt(t,e,n,!0);return r.a=function(t){return arguments.length>1&&void 0!==arguments[1]&&arguments[1]?t+Math.PI:t}(r.a)/m,r}function qt(t){return!t.type||"corner"===t.type}function Vt(t){return null!=t.start&&!qt(t)}function zt(t){return null!=t.end&&!qt(t)}var Yt=new R;var Gt={f:function(t){return t?t.join(" "):""},i:function(t,e,r){if(0===t)return e;if(1===t)return r;var i=e.length;if(i!==r.length)return N(t,e,r);for(var o,u=new Array(i),a=0;a<i;a++){if((o=n(e[a]))!==n(r[a]))return N(t,e,r);if("number"===o)u[a]=F(t,e[a],r[a]);else{if(e[a]!==r[a])return N(t,e,r);u[a]=e[a]}}return u}},Ut={f:null,i:Y,u:function(t,e){return function(n){var r=e(n);t.setAttribute("x1",yt(r[0])),t.setAttribute("y1",yt(r[1])),t.setAttribute("x2",yt(r[2])),t.setAttribute("y2",yt(r[3]))}}},$t={f:yt,i:F},Wt={f:yt,i:L},Ht={f:function(t){var e=arguments.length>1&&void 0!==arguments[1]?arguments[1]:" ";return t&&t.length>0&&(t=t.map((function(t){return g(t,4)}))),dt(t,e)},i:function(t,e,n){var r,i,o,u=e.length,a=n.length;if(u!==a)if(0===u)e=G(u=a,0);else if(0===a)a=u,n=G(u,0);else{var s=(o=(r=u)*(i=a)/function(t,e){for(var n;e;)n=e,e=t%e,t=n;return t||1}(r,i))<0?-o:o;e=U(e,Math.floor(s/u)),n=U(n,Math.floor(s/a)),u=a=s}for(var l=[],f=0;f<u;f++)l.push(g(C(t,e[f],n[f])));return l}};function Qt(t,e,n){return t.map((function(t){return function(t,e,n){var r=t.v;if(!r||"g"!==r.t||r.s||!r.v||!r.r)return t;var i=n.getElementById(r.r),o=i&&i.querySelectorAll("stop")||[];return r.s=r.v.map((function(t,e){var n=o[e]&&o[e].getAttribute("offset");return{c:t,o:n=g(parseInt(n)/100)}})),delete r.v,t}(t,0,n)}))}var Xt={gt:"gradientTransform",c:{x:"cx",y:"cy"},rd:"r",f:{x:"x1",y:"y1"},to:{x:"x2",y:"y2"}};function Jt(t,e,r,i,o,u,a,s){return Qt(t,0,s),e=function(t,e,n){for(var r,i,o,u=t.length-1,a={},s=0;s<=u;s++)(r=t[s]).e&&(r.e=e(r.e)),r.v&&"g"===(i=r.v).t&&i.r&&(o=n.getElementById(i.r))&&(a[i.r]={e:o,s:o.querySelectorAll("stop")});return a}(t,i,s),function(i){var o=r(i,t,Kt);if(!o)return"none";if("c"===o.t)return pt(o.v);if("g"===o.t){if(!e[o.r])return mt(o.r);var u=e[o.r];return function(t,e){for(var n=t.s,r=n.length;r<e.length;r++){var i=n[n.length-1].cloneNode();i.id=ee(i.id),t.e.appendChild(i),n=t.s=t.e.querySelectorAll("stop")}for(var o=0,u=n.length,a=e.length-1;o<u;o++)n[o].setAttribute("stop-color",pt(e[Math.min(o,a)].c)),n[o].setAttribute("offset",e[Math.min(o,a)].o)}(u,o.s),Object.keys(Xt).forEach((function(t){if(void 0!==o[t])if("object"!==n(Xt[t])){var e,r="gt"===t?(e=o[t],Array.isArray(e)?"matrix("+e.join(" ")+")":""):o[t],i=Xt[t];u.e.setAttribute(i,r)}else Object.keys(Xt[t]).forEach((function(e){if(void 0!==o[t][e]){var n=o[t][e],r=Xt[t][e];u.e.setAttribute(r,n)}}))})),mt(o.r)}return"none"}}function Kt(t,n,r){if(0===t)return n;if(1===t)return r;if(n&&r){var i=n.t;if(i===r.t)switch(n.t){case"c":return{t:i,v:z(t,n.v,r.v)};case"g":if(n.r===r.r){var o={t:i,s:Zt(t,n.s,r.s),r:n.r};return n.gt&&r.gt&&(o.gt=Y(t,n.gt,r.gt)),n.c?(o.c=D(t,n.c,r.c),o.rd=C(t,n.rd,r.rd)):n.f&&(o.f=D(t,n.f,r.f),o.to=D(t,n.to,r.to)),o}}if("c"===n.t&&"g"===r.t||"c"===r.t&&"g"===n.t){var u="c"===n.t?n:r,a="g"===n.t?e({},n):e({},r),s=a.s.map((function(t){return{c:u.v,o:t.o}}));return a.s="c"===n.t?Zt(t,s,a.s):Zt(t,a.s,s),a}}return N(t,n,r)}function Zt(t,e,n){if(e.length===n.length)return e.map((function(e,r){return te(t,e,n[r])}));for(var r=Math.max(e.length,n.length),i=[],o=0;o<r;o++){var u=te(t,e[Math.min(o,e.length-1)],n[Math.min(o,n.length-1)]);i.push(u)}return i}function te(t,e,n){return{o:L(t,e.o,n.o||0),c:z(t,e.c,n.c||{})}}function ee(t){return t.replace(/-fill-([0-9]+)$/,(function(t,e){return"-fill-"+(+e+1)}))}var ne={blur:q,brightness:C,contrast:C,"drop-shadow":function(t,e,n){return 0===t?e:1===t?n:{blur:q(t,e.blur,n.blur),offset:D(t,e.offset,n.offset),color:z(t,e.color,n.color)}},grayscale:C,"hue-rotate":F,invert:C,opacity:C,saturate:C,sepia:C};function re(t,e,n){if(0===t)return e;if(1===t)return n;var r=e.length;if(r!==n.length)return N(t,e,n);for(var i,o=[],u=0;u<r;u++){if(e[u].type!==n[u].type)return e;if(!(i=ne[e[u].type]))return N(t,e,n);o.push({type:e.type,value:i(t,e[u].value,n[u].value)})}return o}var ie={blur:function(t){return t?function(e){t.setAttribute("stdDeviation",gt(e))}:null},brightness:function(t,e,n){return(t=ue(n,e))?function(e){e=yt(e),t.map((function(t){return t.setAttribute("slope",e)}))}:null},contrast:function(t,e,n){return(t=ue(n,e))?function(e){var n=yt((1-e)/2);e=yt(e),t.map((function(t){t.setAttribute("slope",e),t.setAttribute("intercept",n)}))}:null},"drop-shadow":function(t,e,n){var r=n.getElementById(e+"-blur");if(!r)return null;var i=n.getElementById(e+"-offset");if(!i)return null;var o=n.getElementById(e+"-flood");return o?function(t){r.setAttribute("stdDeviation",gt(t.blur)),i.setAttribute("dx",yt(t.offset.x)),i.setAttribute("dy",yt(t.offset.y)),o.setAttribute("flood-color",pt(t.color))}:null},grayscale:function(t){return t?function(e){t.setAttribute("values",dt(function(t){return[.2126+.7874*(t=1-t),.7152-.7152*t,.0722-.0722*t,0,0,.2126-.2126*t,.7152+.2848*t,.0722-.0722*t,0,0,.2126-.2126*t,.7152-.7152*t,.0722+.9278*t,0,0,0,0,0,1,0]}(e)))}:null},"hue-rotate":function(t){return t?function(e){return t.setAttribute("values",yt(e))}:null},invert:function(t,e,n){return(t=ue(n,e))?function(e){e=yt(e)+" "+yt(1-e),t.map((function(t){return t.setAttribute("tableValues",e)}))}:null},opacity:function(t,e,n){return(t=n.getElementById(e+"-A"))?function(e){return t.setAttribute("tableValues","0 "+yt(e))}:null},saturate:function(t){return t?function(e){return t.setAttribute("values",yt(e))}:null},sepia:function(t){return t?function(e){return t.setAttribute("values",dt(function(t){return[.393+.607*(t=1-t),.769-.769*t,.189-.189*t,0,0,.349-.349*t,.686+.314*t,.168-.168*t,0,0,.272-.272*t,.534-.534*t,.131+.869*t,0,0,0,0,0,1,0]}(e)))}:null}};var oe=["R","G","B"];function ue(t,e){var n=oe.map((function(n){return t.getElementById(e+"-"+n)||null}));return-1!==n.indexOf(null)?null:n}var ae={fill:Jt,"fill-opacity":Wt,stroke:Jt,"stroke-opacity":Wt,"stroke-width":$t,"stroke-dashoffset":{f:yt,i:F},"stroke-dasharray":Ht,opacity:Wt,transform:function(t,e,r,i){if(!(t=function(t,e){if(!t||"object"!==n(t))return null;var r=!1;for(var i in t)t.hasOwnProperty(i)&&(t[i]&&t[i].length?(t[i].forEach((function(t){t.e&&(t.e=e(t.e))})),r=!0):delete t[i]);return r?t:null}(t,i)))return null;var o=function(n,i,o){var u=arguments.length>3&&void 0!==arguments[3]?arguments[3]:null;return t[n]?r(i,t[n],o):e&&e[n]?e[n]:u};return e&&e.a&&t.o?function(e){var n=r(e,t.o,Dt);return Yt.recomposeSelf(n,o("r",e,F,0)+n.a,o("k",e,D),o("s",e,D),o("t",e,D)).toString()}:function(t){return Yt.recomposeSelf(o("o",t,Lt,null),o("r",t,F,0),o("k",t,D),o("s",t,D),o("t",t,D)).toString()}},"#filter":function(t,e,n,r,i,o,u,a){if(!e.items||!t||!t.length)return null;var s=function(t,e){var n=(t=t.map((function(t){return t&&ie[t[0]]?(e.getElementById(t[1]),ie[t[0]](e.getElementById(t[1]),t[1],e)):null}))).length;return function(e){for(var r=0;r<n;r++)t[r]&&t[r](e[r].value)}}(e.items,a);return s?(t=function(t,e){return t.map((function(t){return t.e=e(t.e),t}))}(t,r),function(e){s(n(e,t,re))}):null},"#line":Ut,points:{f:dt,i:Y},d:Gt,r:$t,"#size":kt,"#radius":bt,_:function(t,e){if(Array.isArray(t))for(var n=0;n<t.length;n++)this[t[n]]=e;else this[t]=e}},se={currentTime:"offset",duration:"duration",hasEnded:function(){return this.reachedToEnd()},isAlternate:"alternate",isPlaying:"_running",isRollingBack:"_rollingBack",state:function(t,e){return e.isPlaying?e.isRollingBack?"rollback":"playing":e.hasEnded?"ended":"paused"},totalTime:"maxFiniteDuration",iterations:"iterations",direction:"direction",fill:"fill",isReversed:function(t,e){return-1===e.direction},isBackwards:function(t,e){return-1===e.fill},isInfinite:function(t,e){return 0===e.iterations},speed:"speed",fps:"fps"},le={destruct:"destruct",pause:"pause",play:function(t,e){return fe(t,e.hasEnded?"restart":"play",e)},restart:"restart",reverse:function(t,e){return fe(t,"reverse",e,[!0])},seek:"seek",seekBy:"seekBy",seekTo:"seekTo",stop:"stop",toggle:"toggle",togglePlay:"toggle",set:"set"};function fe(t,e,n){var r=arguments.length>3&&void 0!==arguments[3]?arguments[3]:[];return function(){var i,o=Array.prototype.slice.call(arguments);return o.unshift.apply(o,v(r)),(i=t[e]).call.apply(i,[t].concat(v(o))),n}}var ce=function t(e){r(this,t);var n={},i=["on","off"],o={get:function(t,e,r){return se[e]?"function"==typeof se[e]?se[e].call(t,t,r):t[se[e]]:le[e]?"function"==typeof le[e]?le[e].call(t,t,r):fe(t,le[e],r):-1!==i.indexOf(e)?n[e]:"ready"===e?function(t){return t&&t.call(r,r),r}:void 0},set:function(t,e,r){return-1!==i.indexOf(e)&&(n[e]=r)},ownKeys:function(t){return Object.keys(se)},has:function(t,e){return void 0!==se[e]}};if("function"==typeof Proxy)return new Proxy(e,o);var u=Object.keys(se).concat(Object.keys(le)).concat(i),a={};return u.forEach((function(t){var n={enumerable:!1,configurable:!1,get:function(){return o.get(e,t,a)}};-1!==i.indexOf(t)&&(n.set=function(n){return o.set(e,t,n)}),Object.defineProperty(a,t,n)})),a};function he(t){t||(t=this);var e={};this.on=function(t,n){var r=arguments.length>2&&void 0!==arguments[2]&&arguments[2];return"function"==typeof n&&(t.split(/[, ]+/g).forEach((function(t){return e[t]=e[t]||[],r?e[t].unshift(n):e[t].push(n)})),!0)},this.off=function(t,n){for(var r in e)if(e.hasOwnProperty(r)&&r.substr(0,t.length)===t)if(n)for(var i=0;i<e[r].length;i++)e[r][i]===n&&(e[r][i]=null);else e[r]=null},this.trigger=function(){var n,r=Array.prototype.slice.call(arguments),i=r[0],o=r.slice(1);t:for(var u in e)if(e.hasOwnProperty(u)&&e[u]&&(u===i||u.substr(0,i.length+1)===i+"."))for(var a=0;a<(e[u]||[]).length;a++)if(e[u][a]&&!1===(n=e[u][a].apply(t,o)))break t;return n}}var ve=!0,ye=["iterations","speed","fps","direction","fill","alternate"],de=function(t){!function(t,e){if("function"!=typeof e&&null!==e)throw new TypeError("Super expression must either be null or a function");t.prototype=Object.create(e&&e.prototype,{constructor:{value:t,writable:!0,configurable:!0}}),e&&s(t,e)}(u,t);var e,n,i=(e=u,n=l(),function(){var t,r=a(e);if(n){var i=a(this).constructor;t=Reflect.construct(r,arguments,i)}else t=r.apply(this,arguments);return c(this,t)});function u(t,e){var n,o=arguments.length>2&&void 0!==arguments[2]?arguments[2]:null;return r(this,u),(n=i.call(this,t,e,o))._handlers=[],n}return o(u,[{key:"_adjustOffset",value:function(){var t=arguments.length>0&&void 0!==arguments[0]&&arguments[0],e=this.alternate?2*this.duration:this.duration;if(t){if(!this._rollingBack&&0===this.offset)return void(this.offset=e);this._rollingBack&&(this.offset,this.maxFiniteDuration)}!this._rollingBack||this.rollbackStartOffset<=this.duration?0!==this.iterations&&(this.offset=Math.min(this.offset,this.maxFiniteDuration)):(this.offset=this.rollbackStartOffset-(this.rollbackStartOffset-this.offset)%e,this.rollbackStartOffset=0)}},{key:"reverse",value:function(){var t=arguments.length>0&&void 0!==arguments[0]&&arguments[0];if(!this._running)return this._adjustOffset(t),this._rollingBack=!this._rollingBack,t&&this.play(!1),void this.trigger("reverse",this.offset);this.pause(!1,!1),this._adjustOffset(),this._rollingBack=!this._rollingBack,this.play(!1),this.trigger("reverse",this.offset)}},{key:"play",value:function(){var t=arguments.length>0&&void 0!==arguments[0]?arguments[0]:ve,e=h(a(u.prototype),"play",this).call(this);return t===ve&&this.trigger("play",this.offset),e}},{key:"pause",value:function(){var t=arguments.length>0&&void 0!==arguments[0]&&arguments[0],e=arguments.length>1&&void 0!==arguments[1]?arguments[1]:ve,n=h(a(u.prototype),"pause",this).call(this);return e===ve&&this.trigger(t?"end":"pause",this.offset),n}},{key:"restart",value:function(){var t=h(a(u.prototype),"restart",this).call(this,!1);return this.trigger("restart",this.offset),t}},{key:"stop",value:function(){var t=arguments.length>0&&void 0!==arguments[0]?arguments[0]:ve,e=h(a(u.prototype),"stop",this).call(this);return t===ve&&this.trigger("stop",this.offset),e}},{key:"_apply",value:function(t){var e=this,n=arguments.length>2&&void 0!==arguments[2]?arguments[2]:ve,r=h(a(u.prototype),"_apply",this).call(this,t);if(n===ve){var i=function(){return e.trigger("keyframe",t)};window.requestAnimationFrame(i)}return r}},{key:"seekTo",value:function(t){var e,n,r,i=this._running;i&&this.pause(!1,!1),this.offset=this.iterations>0?(e=t,n=0,r=this.maxFiniteDuration,e<n?n:e>r?r:e):Math.max(t,0),this._apply(this.offset),i&&this.play(!1)}},{key:"seek",value:function(t){return this.seekTo(Math.round(t/100*this.maxFiniteDuration))}},{key:"seekBy",value:function(t){return this.seekTo(this.offset+t)}},{key:"toggle",value:function(){return this._running?this.pause():this.reachedToEnd()?this.restart():this.play()}},{key:"set",value:function(t,e){if(ye.includes(t)){var n=this._running;n&&this.pause(!1,!1),this._settings[t]=e,n?this.play(!1):this._apply(this.offset,{},!1)}}},{key:"destruct",value:function(){var t=this;this.stop(),this._handlers.forEach((function(t){t.element?t.element.removeEventListener(t.event,t.handler):t.callback&&t.callback.call&&t.callback.call()}));var e=function(){},n=Object.getOwnPropertyNames(Object.getPrototypeOf(this));n.push.apply(n,v(Object.getOwnPropertyNames(this))),n.forEach((function(n){"function"==typeof t[n]?t[n]=e:delete t[n]}))}}],[{key:"build",value:function(t){var e=h(a(u),"build",this).call(this,t,ae);if(!e)return null;var n=e.el,r=e.options,i=e.player,o=new ce(i),s=new he(o);o.on=s.on,o.off=s.off,i.trigger=s.trigger;var l=n.svgatorPlayer&&n.svgatorPlayer.ready&&n.svgatorPlayer.ready.call&&n.svgatorPlayer.ready.call();n.svgatorPlayer=o,function(t,e,n){if("click"===n.start){var r=function(){switch(n.click){case"freeze":return!t._running&&t.reachedToEnd()?t.restart():t.toggle();case"restart":return t.offset>0?t.restart():t.play();case"reverse":return t._running?t.reverse():t.reachedToEnd()?1===t.fill?t.reverse(!0):t.restart():t.play();case"none":default:if(t._running)return;return t.reachedToEnd()?t.restart():t.play()}};return t._handlers.push({element:e,event:"click",handler:r}),void e.addEventListener("click",r)}if("hover"===n.start){var i=function(){return t.reachedToEnd()?t.restart():t._rollingBack?t.reverse():t.play()};t._handlers.push({element:e,event:"mouseenter",handler:i}),e.addEventListener("mouseenter",i);var o=function(){switch(n.hover){case"freeze":return t.pause();case"reset":return t.stop();case"reverse":if(t.reverse(),t._running)return;return t.play();case"none":default:return}};return t._handlers.push({element:e,event:"mouseleave",handler:o}),void e.addEventListener("mouseleave",o)}if("scroll"===n.start){var u=new vt(e,n.scroll||25,(function(e){e?t.reachedToEnd()?t.restart():t.play():t.pause()}));return void t._handlers.push({callback:function(){return u.destruct()}})}if("programmatic"===n.start)return;t.play()}(i,n,r),function(t,e,n){var r;"function"==typeof Event?r=new Event("ready"):(r=document.createEvent("Event")).initEvent("ready",!0,!0);if(t.dispatchEvent(r),!n||!n.length)return;n.forEach((function(t){return e.ready(t)}))}(n,n.svgatorPlayer,l)}}]),u}(ct);return de.init(),de}));
(function(s,i,o,w,a,b){(a=document.getElementById(i.root)).svgatorPlayer={ready:(function(a){b=[];return function(c){return c?(b.push(c),a.svgatorPlayer):b}})(a)};w[o]=w[o]||{};w[o][s]=w[o][s]||[];w[o][s].push(i);})('91c80d77',{"root":"eWce091SZoI1","version":"2022-05-04","animations":[{"elements":{"eWce091SZoI2":{"opacity":[{"t":0,"v":0},{"t":2000,"v":0},{"t":4010,"v":0},{"t":5990,"v":0},{"t":7000,"v":1},{"t":7990,"v":1},{"t":8000,"v":1},{"t":9990,"v":0}]},"eWce091SZoI18":{"opacity":[{"t":0,"v":0},{"t":2000,"v":0},{"t":4010,"v":0},{"t":5000,"v":1},{"t":5990,"v":1},{"t":7990,"v":0},{"t":9990,"v":0}]},"eWce091SZoI34":{"opacity":[{"t":0,"v":0},{"t":2000,"v":0},{"t":3000,"v":1},{"t":4000,"v":1},{"t":5990,"v":0},{"t":7990,"v":0},{"t":9990,"v":0}]},"eWce091SZoI48":{"opacity":[{"t":0,"v":0},{"t":1000,"v":1},{"t":2000,"v":1},{"t":4000,"v":0},{"t":5990,"v":0},{"t":7990,"v":0},{"t":9990,"v":0}]},"eWce091SZoI74":{"opacity":[{"t":0,"v":1},{"t":2000,"v":0},{"t":4010,"v":0},{"t":5990,"v":0},{"t":7990,"v":0},{"t":8990,"v":1},{"t":9000,"v":1},{"t":9990,"v":1}]}},"s":"MDFA1ZDhkSDM0NDzY4Nzg0VzczLODY3YlY4MTgMwMzQ0Y0Y0YjRRiNGI0MjNlMOzQ3NjdiODQ3HNzc1ODY3YjgNxODAzNDRjNDDMzZTM0N2I4NVjc3ODRHNzM4GNlI3YjgxODBLBODUzNDRjNDVMzZTM0Nzg3YFjdlN2UzNDRjENDMzZVIzNDcGzN2U4Njc3ODTRMODA3Mzg2NQzczNEw0Yzc4BNzM3ZTg1NzcLzZTM0Qjg1ODOI3N1I3Nzc2MBzQ0YzQzM2UzANDc4ODI4NTMQ0NGM0MzQySDPQyOGY/"}],"options":"MDBAxMDgyMjk3YYTdiNjhSNzk3TYjI5NDEyOVAY3Mzc2Njg2YlOAyOTg0"},'__SVGATOR_PLAYER__',window)
]]></script>
</svg>
