<svg width="106" height="106" viewBox="0 0 106 106" fill="none" xmlns="http://www.w3.org/2000/svg">
<path d="M36.0719 38.4035L38.7688 39.7749L43.7511 61.2587C43.9338 62.0358 44.6197 62.5842 45.3967 62.5842H65.9663C66.9264 62.5842 67.7034 61.8071 67.7034 60.8471C67.7034 59.887 66.9264 59.11 65.9663 59.11H46.768L46.3567 57.3729L66.8349 57.3736C67.795 57.328 68.6631 56.6421 68.8462 55.6824L71.0861 43.752C71.2688 42.975 70.766 42.1979 69.9433 42.0149C69.8518 42.0149 69.7606 41.9693 69.6691 41.9693L42.3801 40.2781L41.8773 38.1297C41.7401 37.6269 41.42 37.2156 40.9631 36.987L37.5805 35.2958C36.7119 34.8845 35.7063 35.2502 35.295 36.0728C34.8833 36.9411 35.2491 37.9923 36.072 38.4036L36.0719 38.4035ZM67.2921 45.3059L65.692 53.9909H45.5795L43.2484 43.8432L67.2921 45.3059Z" fill="white"/>
<path d="M50.5128 67.7038C50.5128 69.5971 48.9782 71.1321 47.0845 71.1321C45.1912 71.1321 43.6562 69.5971 43.6562 67.7038C43.6562 65.8105 45.1912 64.2755 47.0845 64.2755C48.9782 64.2755 50.5128 65.8105 50.5128 67.7038Z" fill="white"/>
<path d="M65.9659 67.7038C65.9659 69.5971 64.431 71.1321 62.5376 71.1321C60.6443 71.1321 59.1094 69.5971 59.1094 67.7038C59.1094 65.8105 60.6443 64.2755 62.5376 64.2755C64.431 64.2755 65.9659 65.8105 65.9659 67.7038Z" fill="white"/>
</svg>
