<svg width="106" height="106" viewBox="0 0 106 106" fill="none" xmlns="http://www.w3.org/2000/svg">
<path fill-rule="evenodd" clip-rule="evenodd" d="M38.2086 53.2086C38.2086 44.9243 44.9243 38.2086 53.2086 38.2086C61.4929 38.2086 68.2086 44.9243 68.2086 53.2086C68.2086 61.4929 61.4929 68.2086 53.2086 68.2086C44.9243 68.2086 38.2086 61.4929 38.2086 53.2086ZM53.2086 34.875C43.0836 34.875 34.875 43.0829 34.875 53.2086C34.875 63.3343 43.0829 71.5421 53.2086 71.5421C63.3343 71.5421 71.5421 63.3343 71.5421 53.2086C71.5421 43.0829 63.3343 34.875 53.2086 34.875V34.875ZM62.72 49.3871C63.371 48.7362 63.371 47.6809 62.72 47.03C62.0693 46.3791 61.0141 46.3791 60.3631 47.03L51.5417 55.8514L47.72 52.0297C47.0693 51.379 46.0141 51.379 45.3631 52.0297C44.7122 52.6807 44.7122 53.7359 45.3631 54.3869L50.3631 59.3869C51.0141 60.0375 52.0694 60.0375 52.72 59.3869L62.72 49.3871Z" fill="white"/>
</svg>
