<svg width="300" height="77" viewBox="0 0 300 77" fill="none" xmlns="http://www.w3.org/2000/svg">
<g clip-path="url(#clip0_1566_4306)">
<path d="M80.7976 72.3585C81.5876 70.4287 80.6819 68.2163 78.7748 67.417C76.8677 66.6176 74.6813 67.534 73.8913 69.4638C73.1013 71.3936 74.007 73.606 75.9141 74.4053C77.8212 75.2047 80.0077 74.2883 80.7976 72.3585Z" fill="#72CBCC"/>
<path d="M39.8647 54.8981C41.4469 54.8981 42.7295 53.6003 42.7295 51.9993C42.7295 50.3984 41.4469 49.1006 39.8647 49.1006C38.2826 49.1006 37 50.3984 37 51.9993C37 53.6003 38.2826 54.8981 39.8647 54.8981Z" fill="#72CBCC"/>
<path d="M87.5737 17.7553C89.5827 17.2755 90.827 15.2385 90.3528 13.2056C89.8786 11.1727 87.8656 9.91361 85.8565 10.3934C83.8474 10.8732 82.6032 12.9102 83.0773 14.9431C83.5515 16.9761 85.5646 18.2351 87.5737 17.7553Z" fill="#72CBCC"/>
<path d="M86.7163 1.69287C85.1373 1.69287 83.8516 2.99299 83.8516 4.59162C83.8516 6.19025 85.1364 7.49037 86.7163 7.49037C88.2962 7.49037 89.581 6.19025 89.581 4.59162C89.581 2.99299 88.2962 1.69287 86.7163 1.69287Z" fill="#72CBCC"/>
<path d="M58.6069 1.69287C57.028 1.69287 55.7422 2.99299 55.7422 4.59162C55.7422 6.19025 57.027 7.49037 58.6069 7.49037C60.1868 7.49037 61.4716 6.19025 61.4716 4.59162C61.4716 2.99299 60.1859 1.69287 58.6069 1.69287Z" fill="#72CBCC"/>
<path d="M96.0991 44.6559C97.678 44.6559 98.9638 43.3558 98.9638 41.7571C98.9638 40.1585 97.679 38.8584 96.0991 38.8584C94.5192 38.8584 93.2344 40.1585 93.2344 41.7571C93.2344 43.3558 94.5192 44.6559 96.0991 44.6559Z" fill="#72CBCC"/>
<path d="M96.0971 65.2521C98.1613 65.2521 99.8348 63.5588 99.8348 61.4701C99.8348 59.3813 98.1613 57.688 96.0971 57.688C94.0328 57.688 92.3594 59.3813 92.3594 61.4701C92.3594 63.5588 94.0328 65.2521 96.0971 65.2521Z" fill="#72CBCC"/>
<path d="M96.0987 30.8813C94.9243 30.8813 93.9688 31.8482 93.9688 33.0366C93.9688 34.225 94.9243 35.1919 96.0987 35.1919C97.2732 35.1919 98.2287 34.225 98.2287 33.0366C98.2287 31.8482 97.2732 30.8813 96.0987 30.8813Z" fill="#72CBCC"/>
<path d="M49.2319 20.6558C47.653 20.6558 46.3672 21.9559 46.3672 23.5545C46.3672 25.1531 47.652 26.4533 49.2319 26.4533C50.8118 26.4533 52.0966 25.1531 52.0966 23.5545C52.0966 21.9559 50.8118 20.6558 49.2319 20.6558Z" fill="#72CBCC"/>
<path d="M96.0991 20.6558C94.5202 20.6558 93.2344 21.9559 93.2344 23.5545C93.2344 25.1531 94.5192 26.4533 96.0991 26.4533C97.679 26.4533 98.9638 25.1531 98.9638 23.5545C98.9638 21.9559 97.679 20.6558 96.0991 20.6558Z" fill="#72CBCC"/>
<path d="M49.2319 30.1377C47.653 30.1377 46.3672 31.4378 46.3672 33.0364C46.3672 34.6351 47.652 35.9352 49.2319 35.9352C50.8118 35.9352 52.0966 34.6351 52.0966 33.0364C52.0966 31.4378 50.8118 30.1377 49.2319 30.1377Z" fill="#72CBCC"/>
<path d="M49.2319 49.1006C47.653 49.1006 46.3672 50.4007 46.3672 51.9993C46.3672 53.598 47.652 54.8981 49.2319 54.8981C50.8118 54.8981 52.0966 53.598 52.0966 51.9993C52.0966 50.4007 50.8118 49.1006 49.2319 49.1006Z" fill="#72CBCC"/>
<path d="M58.6069 58.5825C57.028 58.5825 55.7422 59.8826 55.7422 61.4813C55.7422 63.0799 57.027 64.38 58.6069 64.38C60.1868 64.38 61.4716 63.0799 61.4716 61.4813C61.4716 59.8826 60.1868 58.5825 58.6069 58.5825Z" fill="#72CBCC"/>
<path d="M96.0987 52.6348C97.2751 52.6348 98.2287 51.6698 98.2287 50.4795C98.2287 49.2892 97.2751 48.3242 96.0987 48.3242C94.9224 48.3242 93.9688 49.2892 93.9688 50.4795C93.9688 51.6698 94.9224 52.6348 96.0987 52.6348Z" fill="#72CBCC"/>
<path d="M86.7163 58.5825C85.1373 58.5825 83.8516 59.8826 83.8516 61.4813C83.8516 63.0799 85.1364 64.38 86.7163 64.38C88.2962 64.38 89.581 63.0799 89.581 61.4813C89.581 59.8826 88.2962 58.5825 86.7163 58.5825Z" fill="#72CBCC"/>
<path d="M77.3491 58.5825C75.7702 58.5825 74.4844 59.8826 74.4844 61.4813C74.4844 63.0799 75.7692 64.38 77.3491 64.38C78.929 64.38 80.2129 63.0799 80.2129 61.4813C80.2129 59.8826 78.928 58.5825 77.3491 58.5825Z" fill="#72CBCC"/>
<path d="M67.9741 16.9713C69.553 16.9713 70.8388 15.6712 70.8388 14.0726C70.8388 12.4739 69.554 11.1738 67.9741 11.1738C66.3942 11.1738 65.1094 12.4739 65.1094 14.0726C65.1094 15.6712 66.3942 16.9713 67.9741 16.9713Z" fill="#72CBCC"/>
<path d="M77.3487 16.2281C78.5232 16.2281 79.4787 15.2612 79.4787 14.0728C79.4787 12.8844 78.5232 11.9175 77.3487 11.9175C76.1743 11.9175 75.2188 12.8844 75.2188 14.0728C75.2188 15.2612 76.1743 16.2281 77.3487 16.2281Z" fill="#72CBCC"/>
<path d="M49.2316 16.2281C50.406 16.2281 51.3615 15.2612 51.3615 14.0728C51.3615 12.8844 50.406 11.9175 49.2316 11.9175C48.0571 11.9175 47.1016 12.8844 47.1016 14.0728C47.1016 15.2612 48.0571 16.2281 49.2316 16.2281Z" fill="#72CBCC"/>
<path d="M96.0831 16.2281C97.2576 16.2281 98.2131 15.2612 98.2131 14.0728C98.2131 12.8844 97.2576 11.9175 96.0831 11.9175C94.9086 11.9175 93.9531 12.8844 93.9531 14.0728C93.9531 15.2612 94.9086 16.2281 96.0831 16.2281Z" fill="#72CBCC"/>
<path d="M67.9737 6.74612C69.1482 6.74612 70.1037 5.77925 70.1037 4.59083C70.1037 3.40242 69.1482 2.43555 67.9737 2.43555C66.7993 2.43555 65.8438 3.40242 65.8438 4.59083C65.8438 5.77925 66.7993 6.74612 67.9737 6.74612Z" fill="#72CBCC"/>
<path d="M58.6066 73.0659C59.781 73.0659 60.7365 72.0991 60.7365 70.9107C60.7365 69.7222 59.781 68.7554 58.6066 68.7554C57.4321 68.7554 56.4766 69.7222 56.4766 70.9107C56.4766 72.0991 57.4321 73.0659 58.6066 73.0659Z" fill="#72CBCC"/>
<path d="M49.2316 44.6729C50.406 44.6729 51.3615 43.706 51.3615 42.5176C51.3615 41.3292 50.406 40.3623 49.2316 40.3623C48.0571 40.3623 47.1016 41.3292 47.1016 42.5176C47.1016 43.706 48.0571 44.6729 49.2316 44.6729Z" fill="#72CBCC"/>
<path d="M67.9737 59.3262C66.7993 59.3262 65.8438 60.293 65.8438 61.4815C65.8438 62.6699 66.7993 63.6358 67.9737 63.6358C69.1482 63.6358 70.1037 62.6689 70.1037 61.4815C70.1037 60.294 69.1482 59.3262 67.9737 59.3262Z" fill="#72CBCC"/>
<path d="M86.7159 68.7563C85.5415 68.7563 84.5859 69.7232 84.5859 70.9116C84.5859 72.1 85.5415 73.066 86.7159 73.066C87.8904 73.066 88.8459 72.0991 88.8459 70.9116C88.8459 69.7242 87.8904 68.7563 86.7159 68.7563Z" fill="#72CBCC"/>
<path d="M105.458 11.9185C104.284 11.9185 103.328 12.8853 103.328 14.0737C103.328 15.2622 104.284 16.2281 105.458 16.2281C106.633 16.2281 107.588 15.2612 107.588 14.0737C107.588 12.8863 106.633 11.9185 105.458 11.9185Z" fill="#72CBCC"/>
<path d="M105.458 59.3159C104.284 59.3159 103.328 60.2828 103.328 61.4712C103.328 62.6596 104.284 63.6256 105.458 63.6256C106.633 63.6256 107.588 62.6587 107.588 61.4712C107.588 60.2837 106.633 59.3159 105.458 59.3159Z" fill="#72CBCC"/>
<path d="M49.2316 59.3262C48.0571 59.3262 47.1016 60.293 47.1016 61.4815C47.1016 62.6699 48.0571 63.6358 49.2316 63.6358C50.406 63.6358 51.3615 62.6689 51.3615 61.4815C51.3615 60.294 50.406 59.3262 49.2316 59.3262Z" fill="#72CBCC"/>
<path d="M39.8644 25.709C41.0388 25.709 41.9944 24.7422 41.9944 23.5547C41.9944 22.3672 41.0388 21.3994 39.8644 21.3994C38.6899 21.3994 37.7344 22.3663 37.7344 23.5547C37.7344 24.7431 38.6899 25.709 39.8644 25.709Z" fill="#72CBCC"/>
<path d="M58.6049 10.2905C56.5435 10.2905 54.8672 11.9877 54.8672 14.0726C54.8672 16.1575 56.5445 17.8547 58.6049 17.8547C60.6653 17.8547 62.3426 16.1575 62.3426 14.0726C62.3426 11.9877 60.6653 10.2905 58.6049 10.2905Z" fill="#72CBCC"/>
<path d="M105.455 30.521C104.084 30.521 102.969 31.6493 102.969 33.0367C102.969 34.4242 104.084 35.5516 105.455 35.5516C106.826 35.5516 107.94 34.4232 107.94 33.0367C107.94 31.6503 106.825 30.521 105.455 30.521Z" fill="#72CBCC"/>
<path d="M85.9451 49.2227L67.0377 49.2302C63.2267 49.2171 61.6905 47.762 61.6042 44.0598V40.5931H88.6818L88.6642 30.164C88.6215 24.251 85.0907 20.6971 79.2193 20.6558C73.6067 20.6163 70.2763 20.622 66.1323 20.6727C64.7092 20.6905 63.4726 20.8792 62.454 21.2331C58.8461 22.4909 56.6763 25.7295 56.6484 29.8974H56.6521V44.7281C56.6948 50.6411 60.2256 54.1951 66.097 54.2364C71.7096 54.2758 83.1843 54.2701 87.3283 54.2195V50.6223C87.3283 49.8488 86.7086 49.2217 85.9442 49.2217L85.9451 49.2227ZM61.6042 30.8708C61.6042 27.1047 63.1785 25.6807 66.9514 25.6647C70.78 25.6478 73.7143 25.6478 78.2786 25.6638C82.0896 25.6769 83.6258 27.1319 83.7121 30.8342V35.5794L61.6042 35.5935V30.8718V30.8708Z" fill="white"/>
<path d="M164.126 20.6558H147.084C142.827 20.6558 139.375 24.1478 139.375 28.4565V46.4366C139.375 50.7444 142.826 54.2373 147.084 54.2373H164.126C168.383 54.2373 171.835 50.7453 171.835 46.4366V28.4565C171.835 24.1487 168.384 20.6558 164.126 20.6558ZM166.879 44.4522C166.879 47.0862 164.769 49.2227 162.165 49.2227H149.045C146.442 49.2227 144.331 47.0871 144.331 44.4522V30.4372C144.331 27.8031 146.441 25.6666 149.045 25.6666H162.165C164.768 25.6666 166.879 27.8022 166.879 30.4372V44.4522Z" fill="white"/>
<path d="M221.969 20.6557H210.66C208.426 20.6557 206.42 21.6226 205.012 23.1593C203.604 21.6235 201.598 20.6557 199.364 20.6557H188.407C186.747 20.6557 185.214 21.1917 183.956 22.0948C183.848 21.2837 183.169 20.6557 182.338 20.6557H180.32V54.2363H185.276V30.4362C185.276 27.8022 187.387 25.6656 189.991 25.6656H197.809C200.396 25.6656 202.493 27.7731 202.521 30.3836L202.524 54.2363H207.48L207.482 30.3836C207.51 27.774 209.608 25.6656 212.194 25.6656H220.008C222.611 25.6656 224.723 27.8012 224.723 30.4362V54.2363H229.678V28.4555C229.678 24.1477 226.227 20.6548 221.969 20.6548V20.6557Z" fill="white"/>
<path d="M238.227 54.5856H266.003C266.003 52.3815 265.013 49.2218 262.059 49.2218H245.362L264.385 26.7583L264.369 26.7518C265.678 25.0649 265.984 23.4775 266.002 21.8047V20.6558H238.227V24.2661C238.227 25.0396 238.846 25.6657 239.61 25.6657H258.782L239.55 48.4464C238.09 50.1295 238.232 51.6127 238.232 53.3915V54.5846" fill="white"/>
<path d="M113.09 49.223H130.754C131.518 49.223 132.137 49.85 132.137 50.6226V54.2507L112.128 54.2329V54.2366C108.01 54.2085 104.808 52.0128 103.565 48.3622C103.214 47.3314 103.028 46.0801 103.011 44.6402C102.96 40.4469 102.956 35.8923 102.995 30.2131C103.035 24.2719 106.548 20.6983 112.391 20.656L132.137 20.6382V24.2663C132.137 25.0398 131.518 25.6659 130.754 25.6659H113.053C109.395 25.7532 107.956 27.3077 107.943 31.164C107.927 35.7825 107.928 39.9372 107.944 43.8103C107.96 47.629 109.367 49.2211 113.089 49.2211L113.09 49.223Z" fill="white"/>
</g>
<defs>
<clipPath id="clip0_1566_4306">
<rect width="229" height="73" fill="white" transform="translate(37 1.69287)"/>
</clipPath>
</defs>
</svg>
