<svg width="70" height="70" viewBox="0 0 70 70" fill="none" xmlns="http://www.w3.org/2000/svg">
<path d="M29.4895 44.88C34.6699 44.88 38.8695 40.6804 38.8695 35.5C38.8695 30.3195 34.6699 26.1199 29.4895 26.1199C24.309 26.1199 20.1094 30.3195 20.1094 35.5C20.1094 40.6804 24.309 44.88 29.4895 44.88Z" stroke="white" stroke-width="1.8" stroke-miterlimit="10" stroke-linecap="square"/>
<path d="M41.5129 44.88C46.6934 44.88 50.893 40.6804 50.893 35.5C50.893 30.3195 46.6934 26.1199 41.5129 26.1199C36.3324 26.1199 32.1328 30.3195 32.1328 35.5C32.1328 40.6804 36.3324 44.88 41.5129 44.88Z" stroke="white" stroke-width="1.8" stroke-miterlimit="10" stroke-linecap="square"/>
<path d="M32.4766 34.4955L36.8775 30.1306" stroke="white" stroke-width="1.8" stroke-miterlimit="10" stroke-linecap="square"/>
<path d="M32.75 38.1809L38.2133 32.761" stroke="white" stroke-width="1.8" stroke-miterlimit="10" stroke-linecap="square"/>
<path d="M34.0234 40.8188L38.4172 36.4612" stroke="white" stroke-width="1.8" stroke-miterlimit="10" stroke-linecap="square"/>
</svg>
