<svg width="70" height="70" viewBox="0 0 70 70" fill="none" xmlns="http://www.w3.org/2000/svg">
<g clip-path="url(#clip0_870_4439)">
<path d="M41.6146 49.7778C42.8523 49.7778 44.0392 49.2862 44.9144 48.411C45.7896 47.5358 46.2812 46.3488 46.2812 45.1112V26.4445C46.2812 25.2068 45.7896 24.0198 44.9144 23.1447C44.0392 22.2695 42.8523 21.7778 41.6146 21.7778H29.9479C28.7102 21.7778 27.5233 22.2695 26.6481 23.1447C25.7729 24.0198 25.2812 25.2068 25.2812 26.4445V45.1112C25.2812 46.3488 25.7729 47.5358 26.6481 48.411C27.5233 49.2862 28.7102 49.7778 29.9479 49.7778H41.6146ZM27.6146 45.1112V26.4445C27.6146 25.8257 27.8604 25.2322 28.298 24.7946C28.7356 24.357 29.3291 24.1112 29.9479 24.1112H41.6146C42.2334 24.1112 42.8269 24.357 43.2645 24.7946C43.7021 25.2322 43.9479 25.8257 43.9479 26.4445V45.1112C43.9479 45.73 43.7021 46.3235 43.2645 46.7611C42.8269 47.1987 42.2334 47.4445 41.6146 47.4445H29.9479C29.3291 47.4445 28.7356 47.1987 28.298 46.7611C27.8604 46.3235 27.6146 45.73 27.6146 45.1112Z" fill="white"/>
<path d="M31.112 43.9444H40.4453C40.7547 43.9444 41.0515 43.8215 41.2703 43.6027C41.4891 43.3839 41.612 43.0872 41.612 42.7778C41.612 42.4683 41.4891 42.1716 41.2703 41.9528C41.0515 41.734 40.7547 41.6111 40.4453 41.6111H31.112C30.8026 41.6111 30.5058 41.734 30.287 41.9528C30.0682 42.1716 29.9453 42.4683 29.9453 42.7778C29.9453 43.0872 30.0682 43.3839 30.287 43.6027C30.5058 43.8215 30.8026 43.9444 31.112 43.9444Z" fill="white"/>
<path d="M34.612 27.6112H36.9453C37.2547 27.6112 37.5515 27.4882 37.7703 27.2695C37.9891 27.0507 38.112 26.7539 38.112 26.4445C38.112 26.1351 37.9891 25.8383 37.7703 25.6195C37.5515 25.4007 37.2547 25.2778 36.9453 25.2778H34.612C34.3026 25.2778 34.0058 25.4007 33.787 25.6195C33.5682 25.8383 33.4453 26.1351 33.4453 26.4445C33.4453 26.7539 33.5682 27.0507 33.787 27.2695C34.0058 27.4882 34.3026 27.6112 34.612 27.6112V27.6112Z" fill="white"/>
</g>
<defs>
<clipPath id="clip0_870_4439">
<rect width="28" height="28" fill="white" transform="translate(21.7812 21.7778)"/>
</clipPath>
</defs>
</svg>
