<svg width="106" height="106" viewBox="0 0 106 106" fill="none" xmlns="http://www.w3.org/2000/svg">
<g clip-path="url(#clip0_870_4380)">
<path d="M60.5 71C62.0913 71 63.6174 70.3679 64.7426 69.2426C65.8679 68.1174 66.5 66.5913 66.5 65V41C66.5 39.4087 65.8679 37.8826 64.7426 36.7574C63.6174 35.6321 62.0913 35 60.5 35H45.5C43.9087 35 42.3826 35.6321 41.2574 36.7574C40.1321 37.8826 39.5 39.4087 39.5 41V65C39.5 66.5913 40.1321 68.1174 41.2574 69.2426C42.3826 70.3679 43.9087 71 45.5 71H60.5ZM42.5 65V41C42.5 40.2044 42.8161 39.4413 43.3787 38.8787C43.9413 38.3161 44.7044 38 45.5 38H60.5C61.2956 38 62.0587 38.3161 62.6213 38.8787C63.1839 39.4413 63.5 40.2044 63.5 41V65C63.5 65.7956 63.1839 66.5587 62.6213 67.1213C62.0587 67.6839 61.2956 68 60.5 68H45.5C44.7044 68 43.9413 67.6839 43.3787 67.1213C42.8161 66.5587 42.5 65.7956 42.5 65Z" fill="white"/>
<path d="M47 63.5H59C59.3978 63.5 59.7794 63.342 60.0607 63.0607C60.342 62.7794 60.5 62.3978 60.5 62C60.5 61.6022 60.342 61.2206 60.0607 60.9393C59.7794 60.658 59.3978 60.5 59 60.5H47C46.6022 60.5 46.2206 60.658 45.9393 60.9393C45.658 61.2206 45.5 61.6022 45.5 62C45.5 62.3978 45.658 62.7794 45.9393 63.0607C46.2206 63.342 46.6022 63.5 47 63.5Z" fill="white"/>
<path d="M51.5 42.5H54.5C54.8978 42.5 55.2794 42.342 55.5607 42.0607C55.842 41.7794 56 41.3978 56 41C56 40.6022 55.842 40.2206 55.5607 39.9393C55.2794 39.658 54.8978 39.5 54.5 39.5H51.5C51.1022 39.5 50.7206 39.658 50.4393 39.9393C50.158 40.2206 50 40.6022 50 41C50 41.3978 50.158 41.7794 50.4393 42.0607C50.7206 42.342 51.1022 42.5 51.5 42.5V42.5Z" fill="white"/>
</g>
<defs>
<clipPath id="clip0_870_4380">
<rect width="36" height="36" fill="white" transform="translate(35 35)"/>
</clipPath>
</defs>
</svg>
