<?xml version="1.0" encoding="utf-8"?>
<!-- Generator: Adobe Illustrator 23.0.1, SVG Export Plug-In . SVG Version: 6.00 Build 0)  -->
<svg version="1.1" id="Layer_1" xmlns="http://www.w3.org/2000/svg" xmlns:xlink="http://www.w3.org/1999/xlink" x="0px" y="0px"
	 viewBox="0 0 1582.87 773.29" style="enable-background:new 0 0 1582.87 773.29;" xml:space="preserve">
<style type="text/css">
	.st0{clip-path:url(#SVGID_2_);fill:#ffffff;}
	.st1{clip-path:url(#SVGID_4_);fill:url(#SVGID_5_);}
	.st2{clip-path:url(#SVGID_7_);fill:url(#SVGID_8_);}
	.st3{clip-path:url(#SVGID_10_);fill:url(#SVGID_11_);}
	.st4{clip-path:url(#SVGID_13_);fill:url(#SVGID_14_);}
	.st5{clip-path:url(#SVGID_16_);fill:#ffffff;}
</style>
<g>
	<defs>
		<rect id="SVGID_1_" x="-165.29" y="-153.48" width="1920" height="1080"/>
	</defs>
	<clipPath id="SVGID_2_">
		<use xlink:href="#SVGID_1_"  style="overflow:visible;"/>
	</clipPath>
	<path class="st0" d="M1163.3,529.86c0,52.65-37,86.8-91.78,86.8h-36.29v78.25h-56.2V442.35h92.49
		C1126.3,442.35,1163.3,476.14,1163.3,529.86 M1106.38,529.86c0-27.03-17.43-35.93-40.2-35.93h-30.95v71.14h30.95
		C1088.95,565.07,1106.38,556.89,1106.38,529.86"/>
	<path class="st0" d="M1159.42,602.42c0-64.38,46.24-96.04,88.22-96.04c32.73,0,51.94,17.79,54.78,24.55h1.07v-20.98h55.14v184.97
		h-55.14v-20.99h-1.07c-2.84,6.76-22.05,24.55-54.78,24.55C1205.67,698.47,1159.42,666.81,1159.42,602.42 M1304.91,602.42
		c0-30.24-21.7-46.95-45.89-46.95c-23.48,0-45.18,17.07-45.18,46.95c0,29.88,21.7,46.96,45.18,46.96
		C1283.21,649.38,1304.91,632.66,1304.91,602.42"/>
	<polygon class="st0" points="1570.69,509.94 1493.15,694.91 1464.69,762.49 1410.62,762.49 1441.21,692.78 1364.38,509.94 
		1420.58,509.94 1467.54,630.17 1514.5,509.94 	"/>
</g>
<g>
	<defs>
		<path id="SVGID_3_" d="M1467.29,12.23c-13.85,1.52-22.22,16.15-17.08,29.09l49.54,124.58c5.27,13.24,21.93,17.91,33.02,8.96
			c32.01-25.82,45.9-71.02,28.47-109.54c-15.14-33.44-48.97-53.63-84.06-53.63C1473.9,11.69,1470.59,11.87,1467.29,12.23"/>
	</defs>
	<clipPath id="SVGID_4_">
		<use xlink:href="#SVGID_3_"  style="overflow:visible;"/>
	</clipPath>
	
		<linearGradient id="SVGID_5_" gradientUnits="userSpaceOnUse" x1="-165.2913" y1="926.5113" x2="-164.2913" y2="926.5113" gradientTransform="matrix(601.3273 -114.8915 -114.8915 -601.3273 206773.2813 538354.6875)">
		<stop  offset="0" style="stop-color:#55C9EF"/>
		<stop  offset="0.1951" style="stop-color:#55C9EF"/>
		<stop  offset="1" style="stop-color:#7D67AD"/>
	</linearGradient>
	<polygon class="st1" points="1413.34,17.75 1573.97,-12.94 1610.4,177.74 1449.77,208.43 	"/>
</g>
<g>
	<defs>
		<path id="SVGID_6_" d="M979.61,269.88c0,40.32,33.57,73,74.99,73c41.42,0,74.99-32.68,74.99-73c0-40.31-33.57-73-74.99-73
			C1013.18,196.88,979.61,229.56,979.61,269.88"/>
	</defs>
	<clipPath id="SVGID_7_">
		<use xlink:href="#SVGID_6_"  style="overflow:visible;"/>
	</clipPath>
	
		<linearGradient id="SVGID_8_" gradientUnits="userSpaceOnUse" x1="-165.2913" y1="926.5197" x2="-164.2913" y2="926.5197" gradientTransform="matrix(601.3273 -114.8915 -114.8915 -601.3273 206789.875 538441.5)">
		<stop  offset="0" style="stop-color:#55C9EF"/>
		<stop  offset="0.1415" style="stop-color:#55C9EF"/>
		<stop  offset="0.151" style="stop-color:#55C9EF"/>
		<stop  offset="0.3599" style="stop-color:#55C9EF"/>
		<stop  offset="0.3781" style="stop-color:#55C9EF"/>
		<stop  offset="0.9167" style="stop-color:#7D67AD"/>
		<stop  offset="1" style="stop-color:#7D67AD"/>
	</linearGradient>
	<polygon class="st2" points="952.7,202.02 1124.31,169.23 1156.5,337.73 984.89,370.52 	"/>
</g>
<g>
	<defs>
		<path id="SVGID_9_" d="M1142.36,16.53c-38.68,14.41-58.03,56.62-43.22,94.27l73.06,185.17c14.81,37.65,58.17,56.49,96.84,42.08
			c38.68-14.41,58.03-56.62,43.22-94.27L1239.2,58.61c-11.43-29.07-39.88-46.92-70.05-46.92
			C1160.24,11.69,1151.18,13.25,1142.36,16.53"/>
	</defs>
	<clipPath id="SVGID_10_">
		<use xlink:href="#SVGID_9_"  style="overflow:visible;"/>
	</clipPath>
	
		<linearGradient id="SVGID_11_" gradientUnits="userSpaceOnUse" x1="-165.2913" y1="926.512" x2="-164.2913" y2="926.512" gradientTransform="matrix(601.3273 -114.8915 -114.8915 -601.3273 206778.1406 538380.0625)">
		<stop  offset="0" style="stop-color:#55C9EF"/>
		<stop  offset="0.1415" style="stop-color:#55C9EF"/>
		<stop  offset="1" style="stop-color:#7D67AD"/>
	</linearGradient>
	<polygon class="st3" points="1021.51,23.69 1318.52,-33.06 1389.89,340.46 1092.88,397.21 	"/>
</g>
<g>
	<defs>
		<path id="SVGID_12_" d="M1328.93,16.53c-38.68,14.41-58.03,56.62-43.22,94.27l73.06,185.17c14.81,37.65,58.17,56.49,96.84,42.08
			c38.68-14.41,58.03-56.62,43.22-94.27l-73.06-185.17c-11.43-29.07-39.88-46.92-70.05-46.92
			C1346.81,11.69,1337.75,13.25,1328.93,16.53"/>
	</defs>
	<clipPath id="SVGID_13_">
		<use xlink:href="#SVGID_12_"  style="overflow:visible;"/>
	</clipPath>
	
		<linearGradient id="SVGID_14_" gradientUnits="userSpaceOnUse" x1="-165.2913" y1="926.512" x2="-164.2913" y2="926.512" gradientTransform="matrix(601.3273 -114.8915 -114.8915 -601.3273 206784.7031 538414.4375)">
		<stop  offset="0" style="stop-color:#55C9EF"/>
		<stop  offset="0.1415" style="stop-color:#55C9EF"/>
		<stop  offset="1" style="stop-color:#7D67AD"/>
	</linearGradient>
	<polygon class="st4" points="1208.08,23.69 1505.09,-33.06 1576.46,340.46 1279.45,397.21 	"/>
</g>
<g>
	<defs>
		<rect id="SVGID_15_" x="-165.29" y="-153.48" width="1920" height="1080"/>
	</defs>
	<clipPath id="SVGID_16_">
		<use xlink:href="#SVGID_15_"  style="overflow:visible;"/>
	</clipPath>
	<polygon class="st5" points="17.6,447.2 51.23,447.2 147.57,657.04 244.25,447.2 277.89,447.2 277.89,695.93 247.76,695.93 
		247.76,507.11 246.01,507.11 159.13,695.93 136.36,695.93 49.47,507.11 47.73,507.11 47.73,695.93 17.6,695.93 	"/>
	<path class="st5" d="M296.45,604.84c0-60.95,47.3-94.59,94.6-94.59c47.29,0,94.58,33.63,94.58,94.59
		c0,60.96-47.3,94.59-94.58,94.59C343.75,699.44,296.45,665.81,296.45,604.84 M456.21,604.84c0-43.08-31.54-67.6-65.16-67.6
		c-33.64,0-65.17,24.52-65.17,67.6c0,43.09,31.53,67.61,65.17,67.61C424.67,672.46,456.21,647.94,456.21,604.84"/>
	<path class="st5" d="M665.69,588.73v107.2h-29.43V592.94c0-36.78-21.72-55.7-50.79-55.7c-29.08,0-51.85,18.91-51.85,55.7v102.99
		h-29.43V513.77h29.43v29.78c9.46-17.52,29.43-33.29,60.95-33.29C632.76,510.26,665.69,534.08,665.69,588.73"/>
	<path class="st5" d="M732.95,537.94v115.26c0,11.21,5.61,18.21,19.27,18.21c4.21,0,9.82-0.7,16.47-3.15v23.47
		c-6.31,4.9-16.11,6.31-24.52,6.31c-24.17,0-40.64-11.91-40.64-39.24V537.94H679v-24.17h24.52v-46.6h29.43v46.6h36.09v24.17H732.95z
		"/>
	<polygon class="st5" points="966.26,513.77 888.84,695.93 859.76,762.5 830.69,762.5 860.81,694.18 784.1,513.77 814.57,513.77 
		875.17,659.5 935.78,513.77 	"/>
</g>
</svg>
