<svg width="400" height="78" viewBox="0 0 400 78" fill="none" xmlns="http://www.w3.org/2000/svg">
<path d="M75.4032 40.4671C75.4032 45.1051 74.0228 49.0117 71.2521 52.1742C68.3608 55.4877 64.6038 57.1511 60.0048 57.1511C55.3935 57.1511 51.6487 55.4877 48.7573 52.1742C45.9855 49.0117 44.5947 45.1051 44.5947 40.4671C44.5947 35.8164 45.9855 31.911 48.7573 28.7599C51.6808 25.4774 55.4379 23.8369 60.0048 23.8369C64.6038 23.8369 68.3608 25.4774 71.2521 28.7599C74.0228 31.911 75.4032 35.8164 75.4032 40.4671ZM66.2465 40.4671C66.2465 38.3664 65.7431 36.5932 64.7355 35.1596C63.6081 33.5301 62.0304 32.7206 60.0048 32.7206C57.9784 32.7206 56.4013 33.5301 55.2727 35.1596C54.2547 36.5932 53.7509 38.3664 53.7509 40.4671C53.7509 42.5562 54.2547 44.3506 55.2727 45.8273C56.4013 47.4568 57.9784 48.2676 60.0048 48.2676C62.0304 48.2676 63.6081 47.4568 64.7355 45.8273C65.7431 44.3506 66.2465 42.5562 66.2465 40.4671ZM108.511 40.4671C108.511 44.7994 107.263 48.5847 104.754 51.8231C102.071 55.3676 98.6102 57.1511 94.4046 57.1511C91.4361 57.1511 88.918 56.287 86.8589 54.5805C86.8589 54.9735 86.9026 55.9256 86.9906 57.4478C87.078 58.9778 87.1212 60.2252 87.1212 61.21C87.1212 66.6491 85.5003 69.3616 82.2593 69.3616C80.9335 69.3616 79.8499 68.891 78.9842 67.9607C78.1301 67.0208 77.7027 65.8917 77.7027 64.5587V29.1869C77.7027 27.8958 78.1411 26.7793 79.0171 25.8394C79.8929 24.9091 80.9778 24.4397 82.2701 24.4397C84.2188 24.4397 85.643 25.4113 86.5414 27.3493C88.4578 25.008 91.0755 23.8369 94.3936 23.8369C98.6102 23.8369 102.06 25.5865 104.754 29.0995C107.252 32.3494 108.511 36.1347 108.511 40.4671ZM99.3544 40.4671C99.3544 38.3664 98.8409 36.5932 97.8332 35.1596C96.704 33.5301 95.1276 32.7206 93.1012 32.7206C91.0755 32.7206 89.4984 33.5301 88.3699 35.1596C87.3622 36.5932 86.8589 38.3664 86.8589 40.4671C86.8589 42.5562 87.3622 44.3506 88.3699 45.8273C89.4984 47.4568 91.0755 48.2676 93.1012 48.2676C95.1276 48.2676 96.704 47.4568 97.8332 45.8273C98.8409 44.3506 99.3544 42.5562 99.3544 40.4671ZM141.827 39.4834C141.827 41.0135 141.465 42.0638 140.742 42.6557C140.02 43.2348 138.892 43.5302 137.369 43.5302H120.842C120.842 45.2809 121.664 46.626 123.307 47.5659C124.632 48.3004 126.253 48.6733 128.169 48.6733C129.66 48.6733 131.444 48.1791 133.536 47.2069C135.628 46.2215 136.975 45.7393 137.556 45.7393C138.618 45.7393 139.516 46.1227 140.261 46.9104C140.994 47.6879 141.367 48.6284 141.367 49.7121C141.367 52.2161 139.495 54.1657 135.748 55.5654C132.89 56.615 129.988 57.1511 127.02 57.1511C122.245 57.1511 118.39 55.5653 115.444 52.4041C112.497 49.2415 111.02 45.27 111.02 40.4671C111.02 35.8928 112.552 31.9874 115.619 28.7284C118.674 25.4664 122.475 23.8369 127.009 23.8369C131.225 23.8369 134.752 25.3797 137.578 28.4647C140.403 31.5507 141.827 35.2263 141.827 39.4834ZM132.671 37.1844C132.627 35.7836 131.981 34.5149 130.732 33.3652C129.484 32.2172 128.159 31.649 126.757 31.649C125.311 31.649 123.964 32.2172 122.716 33.3652C121.468 34.5149 120.842 35.7836 120.842 37.1844H132.671ZM172.591 51.7455C172.591 53.0815 172.164 54.2076 171.311 55.1487C170.445 56.0796 169.36 56.5502 168.035 56.5502C164.837 56.5502 163.238 54.0116 163.238 48.9462C163.238 47.9723 163.304 46.4411 163.435 44.3294C163.578 42.2281 163.644 40.686 163.644 39.7121C163.644 34.3391 161.902 31.649 158.43 31.649C154.958 31.649 153.228 34.3391 153.228 39.7121C153.228 40.686 153.283 42.2281 153.381 44.3294C153.491 46.4411 153.545 47.9723 153.545 48.9462C153.545 54.0116 151.968 56.5502 148.815 56.5502C147.489 56.5502 146.405 56.0796 145.55 55.1487C144.685 54.2076 144.258 53.0815 144.258 51.7455V29.1772C144.258 27.8509 144.685 26.726 145.55 25.8175C146.405 24.8982 147.5 24.4397 148.826 24.4397C151.016 24.4397 152.538 25.4113 153.392 27.3493C154.871 25.008 157.488 23.8369 161.234 23.8369C164.705 23.8369 167.466 24.7551 169.492 26.5822C171.562 28.5422 172.591 31.2324 172.591 34.6574V51.7455ZM201.317 50.7733C201.317 52.8406 199.973 54.4811 197.277 55.686C195.142 56.6584 192.822 57.1582 190.476 57.1511C185.864 57.1511 182.119 55.4877 179.228 52.1742C176.457 49.0117 175.066 45.1051 175.066 40.4671C175.066 35.8164 176.479 31.8897 179.315 28.6727C182.152 25.4458 185.864 23.8369 190.476 23.8369C193.137 23.8369 195.426 24.2306 197.333 25.008C199.993 26.0583 201.317 27.6987 201.317 29.931C201.317 31.0571 200.968 32.0529 200.266 32.9177C199.566 33.7709 198.667 34.2087 197.573 34.2087C196.827 34.2087 195.753 33.9571 194.352 33.4658C192.951 32.9613 191.835 32.7206 191.014 32.7206C188.833 32.7206 187.135 33.4974 185.92 35.0504C184.791 36.4513 184.222 38.2457 184.222 40.4671C184.222 42.5562 184.725 44.3294 185.746 45.7624C186.871 47.4367 188.461 48.2676 190.486 48.2676C191.386 48.2676 192.611 48.005 194.177 47.4676C195.744 46.9444 196.873 46.6708 197.573 46.6708C198.592 46.6708 199.466 47.1075 200.213 47.9614C200.947 48.8255 201.317 49.7546 201.317 50.7733ZM234.601 51.7455C234.601 53.0815 234.174 54.2076 233.319 55.1487C232.455 56.0796 231.36 56.5502 230.033 56.5502C228.04 56.5502 226.617 55.5757 225.762 53.6393C223.847 55.9814 221.228 57.1511 217.911 57.1511C213.662 57.1511 210.179 55.3676 207.484 51.8231C205.031 48.5847 203.795 44.7994 203.795 40.4671C203.795 36.1347 205.031 32.3494 207.484 29.0995C210.223 25.5865 213.694 23.8369 217.911 23.8369C221.228 23.8369 223.847 25.008 225.762 27.3493C226.617 25.4113 228.04 24.4397 230.033 24.4397C231.327 24.4397 232.411 24.9091 233.288 25.8394C234.163 26.7793 234.601 27.8848 234.601 29.1772V51.7455ZM225.445 40.4671C225.445 38.3664 224.943 36.5932 223.934 35.1596C222.762 33.5301 221.185 32.7206 219.203 32.7206C217.177 32.7206 215.601 33.5301 214.471 35.1596C213.453 36.5932 212.951 38.3664 212.951 40.4671C212.951 42.5562 213.441 44.3506 214.415 45.8273C215.578 47.4568 217.177 48.2676 219.203 48.2676C221.228 48.2676 222.806 47.4568 223.934 45.8273C224.943 44.3506 225.445 42.5562 225.445 40.4671ZM257.962 28.5738C257.962 30.532 257.009 31.8776 255.104 32.6101C253.341 33.202 251.587 33.8048 249.836 34.4264C247.917 35.5216 246.966 37.5563 246.966 40.5107V51.7455C246.966 53.0815 246.527 54.2076 245.674 55.1487C244.807 56.0796 243.713 56.5502 242.388 56.5502C241.053 56.5502 239.956 56.0796 239.104 55.1487C238.237 54.2076 237.81 53.0815 237.81 51.7455V29.1772C237.81 27.8509 238.237 26.726 239.091 25.8175C239.956 24.8982 241.053 24.4397 242.378 24.4397C244.567 24.4397 246.089 25.4113 246.945 27.3493C248.905 25.008 251.009 23.8369 253.275 23.8369C254.566 23.8369 255.673 24.3064 256.593 25.2365C257.501 26.1777 257.962 27.2935 257.962 28.5738ZM281.849 28.9898C281.849 31.0243 281.049 32.3045 279.463 32.8527C278.683 33.1256 277.05 33.2675 274.564 33.2675V51.7455C274.564 53.0815 274.126 54.2076 273.274 55.1487C272.407 56.0796 271.312 56.5502 269.988 56.5502C268.696 56.5502 267.599 56.0796 266.722 55.1487C265.848 54.2076 265.41 53.0815 265.41 51.7455V33.2675C263.525 33.2675 262.157 33.0268 261.292 32.5574C260.111 31.9007 259.526 30.7078 259.526 28.9898C259.526 27.2729 260.129 26.1019 261.345 25.4774C262.167 25.0177 263.525 24.7781 265.41 24.7781V20.8612C265.41 16.2554 266.93 13.9582 269.988 13.9582C273.032 13.9582 274.564 16.2554 274.564 20.8612V24.7781C277.05 24.7781 278.683 24.92 279.463 25.1929C281.049 25.7399 281.849 27.0103 281.849 28.9898ZM355.405 23.4343C355.38 20.6259 350.186 19.3512 336.738 19.3512C305.187 19.3512 297.182 18.0049 288.616 9C292.22 14.4069 294.191 24.5483 327.541 24.0437C362.335 23.5082 341.109 33.0062 334.932 43.737C346.071 33.8061 355.372 27.2602 355.405 23.4749V23.4343ZM311.068 52.2719C311.067 54.8822 308.917 57.0299 306.304 57.0305C303.664 57.0305 301.529 54.8983 301.529 52.2719C301.529 52.2706 301.529 52.2694 301.529 52.2681C301.529 49.6534 303.683 47.5017 306.301 47.5017C306.303 47.5017 306.303 47.5017 306.304 47.5017C308.935 47.5017 311.068 49.6345 311.068 52.2719ZM332.796 52.2719C332.795 54.8822 330.646 57.0299 328.032 57.0305C325.395 57.0305 323.259 54.8983 323.259 52.2719C323.259 52.2706 323.259 52.2694 323.259 52.2681C323.259 49.6534 325.412 47.5017 328.03 47.5017C328.031 47.5017 328.031 47.5017 328.032 47.5017C330.663 47.5017 332.796 49.6345 332.796 52.2719Z" fill="url(#paint0_linear_2730_14360)"/>
<defs>
<linearGradient id="paint0_linear_2730_14360" x1="200" y1="56.7485" x2="200" y2="9.00013" gradientUnits="userSpaceOnUse">
<stop stop-color="#04B6F0"/>
<stop offset="1" stop-color="#3ECAF0"/>
</linearGradient>
</defs>
</svg>
