<svg width="70" height="70" viewBox="0 0 70 70" fill="none" xmlns="http://www.w3.org/2000/svg">
<g clip-path="url(#clip0_870_4423)">
<path d="M45.1875 42H44.9375V42.25V48.0625C44.9375 48.9901 44.1776 49.75 43.25 49.75H37.4375C36.4907 49.75 35.75 48.9593 35.75 48.0625V46.125C35.75 44.9174 34.7701 43.9375 33.5625 43.9375C32.3549 43.9375 31.375 44.9174 31.375 46.125V48.0625C31.375 49.0955 30.523 49.75 29.6875 49.75H21.9375C21.0099 49.75 20.25 48.9901 20.25 48.0625V40.3125C20.25 39.2814 21.125 38.625 21.9375 38.625H23.875C25.0826 38.625 26.0625 37.6451 26.0625 36.4375C26.0625 35.2299 25.0826 34.25 23.875 34.25H21.9375C20.939 34.25 20.25 33.4272 20.25 32.5625V26.75C20.25 25.8224 21.0099 25.0625 21.9375 25.0625H27.75H28V24.8125C28 21.7411 30.4911 19.25 33.5625 19.25C36.6339 19.25 39.125 21.7411 39.125 24.8125V25.0625H39.375H43.25C44.1776 25.0625 44.9375 25.8224 44.9375 26.75V30.625V30.875H45.1875C48.2589 30.875 50.75 33.3661 50.75 36.4375C50.75 39.5089 48.2589 42 45.1875 42ZM41.5625 38.625H45.1875C46.3951 38.625 47.375 37.6451 47.375 36.4375C47.375 35.2299 46.3951 34.25 45.1875 34.25H41.5625V28.6875V28.4375H41.3125H35.75V24.8125C35.75 23.6049 34.7701 22.625 33.5625 22.625C32.3549 22.625 31.375 23.6049 31.375 24.8125V28.4375H23.875H23.625V28.6875V30.625V30.875H23.875C26.9464 30.875 29.4375 33.3661 29.4375 36.4375C29.4375 39.5089 26.9464 42 23.875 42H23.625V42.25V46.125V46.375H23.875H27.75H28V46.125C28 43.0536 30.4911 40.5625 33.5625 40.5625C36.6339 40.5625 39.125 43.0536 39.125 46.125V46.375H39.375H41.3125H41.5625V46.125V38.625Z" fill="white" stroke="#20303E" stroke-width="0.5"/>
</g>
<defs>
<clipPath id="clip0_870_4423">
<rect width="31" height="31" fill="white" transform="translate(20 19)"/>
</clipPath>
</defs>
</svg>
