<svg width="300" height="77" viewBox="0 0 300 77" fill="none" xmlns="http://www.w3.org/2000/svg">
<path fill-rule="evenodd" clip-rule="evenodd" d="M124.722 32.3392C126.886 34.1574 127.982 36.5234 128.012 39.4381L128.058 39.5289L110.569 46.876C112.131 48.7993 114.257 49.7608 116.947 49.7608C119.636 49.7608 121.853 48.709 123.595 46.6051L126.571 49.8958C123.715 52.8409 120.35 54.313 116.474 54.313C113.078 54.313 110.164 53.1861 107.729 50.9324C105.295 48.6786 104.078 45.704 104.078 42.008C104.078 39.4542 104.71 37.2076 105.972 35.2695C107.234 33.331 108.796 31.9041 110.66 30.9869C112.522 30.0707 114.491 29.6123 116.564 29.6123C119.838 29.6123 122.559 30.5214 124.722 32.3392ZM108.947 42.0976C108.947 42.4884 108.962 42.7741 108.992 42.9539L122.289 37.23C121.267 35.2464 119.449 34.2545 116.835 34.2545C114.852 34.2545 113.042 34.9459 111.404 36.3281C109.766 37.7108 108.947 39.6336 108.947 42.0976Z" fill="white"/>
<path d="M98.3066 31.0993C96.9088 32.0616 95.8043 33.2932 94.9935 34.7952V29.9729H89.9453V53.9519H94.9935V43.6748C94.9935 40.9408 95.6245 38.7621 96.8873 37.1393C98.1484 35.517 100.027 34.7053 102.521 34.7053H102.792L102.747 29.6116C101.183 29.6424 99.7036 30.1383 98.3066 31.0993" fill="white"/>
<path d="M146.109 41.7373C145.298 41.1963 144.539 40.7759 143.833 40.4754C143.127 40.1749 142.398 39.9048 141.647 39.6638C140.896 39.424 140.032 39.1839 139.055 38.9429C138.079 38.7028 137.32 38.447 136.779 38.1765C135.998 37.816 135.608 37.2454 135.608 36.4642C135.608 35.5926 135.983 34.9393 136.734 34.5033C137.485 34.0682 138.462 33.85 139.664 33.85C141.947 33.85 144.066 34.4961 146.02 35.788L147.912 32.047C145.448 30.4246 142.834 29.6125 140.07 29.6125C137.305 29.6125 135.059 30.2819 133.331 31.619C131.603 32.9561 130.739 34.7367 130.739 36.9601C130.739 40.1154 133.233 42.3683 138.222 43.7206C138.341 43.7509 138.521 43.8113 138.762 43.9012C141.947 44.8631 143.54 45.9448 143.54 47.1468C143.54 47.958 143.209 48.6265 142.548 49.1524C141.887 49.6783 140.986 49.9408 139.844 49.9408C137.23 49.9408 134.526 48.8895 131.731 46.7855L129.297 50.7068C130.739 51.8489 132.399 52.7352 134.277 53.3662C136.155 53.9972 137.965 54.3129 139.708 54.3129C142.293 54.3129 144.411 53.6295 146.064 52.2621C147.716 50.8946 148.543 49.0697 148.543 46.7855C148.543 44.5022 147.732 42.819 146.109 41.7373" fill="white"/>
<path fill-rule="evenodd" clip-rule="evenodd" d="M72.6219 22.4463C77.3996 22.4463 80.8853 23.3634 83.0792 25.196C85.2722 27.029 86.3695 29.8542 86.3695 33.67C86.3695 37.4862 85.2494 40.2815 83.0116 42.0537C80.7726 43.8267 77.3401 44.713 72.7123 44.713H67.1234V53.9531H61.8047V22.4463H72.6219ZM73.2933 39.8898C76.2375 39.8898 78.2431 39.326 79.3105 38.1995C80.377 37.0722 80.9105 35.4207 80.9105 33.2416C80.9105 31.063 80.2344 29.5229 78.8821 28.6214C77.5299 27.7195 75.4116 27.2687 72.5268 27.2687H67.1182V39.8898H73.2933Z" fill="white"/>
<path d="M160.349 49.9403C159.267 49.9403 158.426 49.6018 157.825 48.9261C157.224 48.25 156.923 47.3417 156.923 46.1992V34.0293H163.234V29.9729H156.923V22.4456H151.875V46.0641C151.875 48.5884 152.633 50.594 154.151 52.0814C155.668 53.5691 157.501 54.3123 159.65 54.3123C161.798 54.3123 163.759 53.5168 165.532 51.9235L163.458 48.3622C162.468 49.4152 161.431 49.9403 160.349 49.9403" fill="white"/>
<path fill-rule="evenodd" clip-rule="evenodd" d="M185.44 34.1196C183.397 31.1155 180.797 29.6123 177.643 29.6123C174.487 29.6123 171.753 30.7244 169.44 32.9478C167.125 35.1716 165.969 38.1471 165.969 41.8721C165.969 45.5985 167.096 48.6043 169.349 50.8872C171.603 53.1705 174.247 54.3126 177.282 54.3126C178.784 54.3126 180.28 53.945 181.767 53.2081C183.254 52.4725 184.478 51.4135 185.44 50.0309V53.9522H190.488V29.9732H185.44V34.1196ZM178.417 49.8502C180.4 49.8502 182.082 49.1222 183.465 47.6644C184.847 46.207 185.538 44.3369 185.538 42.0527C185.538 39.7694 184.847 37.8605 183.465 36.328C182.082 34.7955 180.385 34.0295 178.372 34.0295C176.358 34.0295 174.631 34.7955 173.188 36.328C171.746 37.8605 171.025 39.7762 171.025 42.0751C171.025 44.374 171.76 46.2442 173.233 47.6872C174.705 49.1293 176.434 49.8502 178.417 49.8502Z" fill="white"/>
<path fill-rule="evenodd" clip-rule="evenodd" d="M250.872 33.196C253.275 30.8071 256.28 29.6123 259.886 29.6123C263.492 29.6123 266.496 30.8071 268.901 33.196C271.305 35.5852 272.506 38.5075 272.506 41.9633C272.506 45.4191 271.305 48.341 268.901 50.7302C266.496 53.119 263.492 54.3135 259.886 54.3135C256.28 54.3135 253.275 53.119 250.872 50.7302C248.467 48.341 247.266 45.4191 247.266 41.9633C247.266 38.5075 248.467 35.5852 250.872 33.196ZM259.894 49.8056C262.087 49.8056 263.897 49.0776 265.325 47.6198C266.752 46.1624 267.466 44.2771 267.466 41.963C267.466 39.6489 266.752 37.764 265.325 36.3062C263.898 34.8488 262.087 34.12 259.894 34.12C257.7 34.12 255.89 34.8488 254.463 36.3062C253.035 37.764 252.322 39.6493 252.322 41.963C252.322 44.2771 253.035 46.1624 254.463 47.6198C255.889 49.0776 257.7 49.8056 259.894 49.8056Z" fill="#E2066F"/>
<path fill-rule="evenodd" clip-rule="evenodd" d="M288.323 29.6125C291.538 29.6125 294.288 30.7247 296.572 32.948C298.855 35.1718 299.997 38.1317 299.997 41.8276C299.997 45.5236 298.862 48.5294 296.593 50.8427C294.325 53.1568 291.68 54.3133 288.661 54.3133C285.641 54.3133 282.929 52.9918 280.525 50.3472V62.697H275.477V29.9738H280.525V34.1657C282.508 31.1307 285.107 29.6125 288.323 29.6125ZM287.553 49.8055C289.537 49.8055 291.264 49.0842 292.737 47.6416C294.209 46.1994 294.945 44.3289 294.945 42.03C294.945 39.7314 294.224 37.8233 292.782 36.3061C291.34 34.7883 289.611 34.0295 287.598 34.0295C285.584 34.0295 283.887 34.7883 282.505 36.3061C281.122 37.8233 280.431 39.7247 280.431 42.0076C280.431 44.2917 281.122 46.1623 282.505 47.6196C283.887 49.0774 285.569 49.8055 287.553 49.8055Z" fill="#E2066F"/>
<path d="M235.519 29.6124C233.836 29.6124 232.266 30.034 230.808 30.8743C229.351 31.7163 228.262 32.8732 227.541 34.3457V20.553H222.492V53.9527H227.541V40.9711C227.541 38.7473 228.187 37.0574 229.479 35.9001C230.77 34.7437 232.288 34.1651 234.032 34.1651C237.697 34.1651 239.531 36.3733 239.531 40.7905V53.9527H244.579V39.258C244.579 36.1331 243.745 33.7447 242.077 32.0915C240.409 30.4396 238.223 29.6124 235.519 29.6124" fill="#E2066F"/>
<path d="M216.452 38.808C214.814 37.3958 212.38 36.2993 209.15 35.5176C205.92 34.7368 203.809 34.0075 202.817 33.3314C201.826 32.6557 201.33 31.6791 201.33 30.4015C201.33 29.1248 201.826 28.1705 202.817 27.54C203.809 26.9086 205.078 26.5929 206.626 26.5929C208.174 26.5929 209.743 26.8634 211.336 27.4045C212.928 27.9451 214.19 28.6365 215.123 29.4781L217.961 25.4664C216.519 24.2653 214.807 23.3325 212.823 22.672C210.84 22.0111 208.841 21.6802 206.829 21.6802C203.703 21.6802 201.081 22.4694 198.963 24.0462C196.845 25.6239 195.786 27.87 195.786 30.7847C195.786 33.6994 196.717 35.8633 198.58 37.2755C199.511 38.0263 200.578 38.6354 201.78 39.1005C202.982 39.5668 204.74 40.0775 207.054 40.6329C209.368 41.1896 210.997 41.805 211.944 42.4811C212.891 43.1573 213.364 44.1035 213.364 45.3207C213.364 46.5379 212.861 47.5145 211.854 48.2506C210.847 48.9875 209.487 49.3551 207.775 49.3551C204.349 49.3551 201.043 47.9729 197.859 45.208L194.523 49.2196C198.339 52.6159 202.711 54.3134 207.64 54.3134C211.005 54.3134 213.724 53.4571 215.798 51.7439C217.871 50.0317 218.908 47.8007 218.908 45.0506C218.908 42.3005 218.09 40.221 216.452 38.808" fill="#E2066F"/>
<path d="M15.8802 51.293C16.2715 51.1187 16.6678 50.9587 17.0679 50.8085C17.5195 50.6388 17.9749 50.4793 18.4362 50.34C19.0106 50.167 19.5896 50.0104 20.1767 49.8859C20.9681 49.7179 21.7687 49.5934 22.5757 49.5149C22.1232 50.9376 21.6231 52.3524 21.0812 53.7578C21.1044 54.03 21.1171 54.3039 21.1242 54.5783C22.2152 54.363 23.3426 54.2478 24.4969 54.2478C25.6512 54.2478 26.7785 54.363 27.8695 54.5783C27.8767 54.3035 27.8889 54.0296 27.9126 53.7578C27.3706 52.3524 26.8705 50.9376 26.4181 49.5149C27.225 49.5934 28.0257 49.7175 28.817 49.8859C29.4037 50.0104 29.9832 50.167 30.5576 50.34C31.0193 50.4789 31.4743 50.6388 31.9259 50.8085C32.326 50.9587 32.7227 51.1191 33.114 51.293C35.8898 52.5292 38.4204 54.3626 40.4957 56.7422C45.6975 52.2498 48.9946 45.6117 48.9946 38.1992C48.9946 24.6698 38.0267 13.7019 24.4973 13.7019C10.9679 13.7019 0 24.6698 0 38.1992C0 45.6117 3.29667 52.2502 8.49891 56.7422C10.5737 54.3626 13.1044 52.5288 15.8802 51.293Z" fill="#A0DBE8"/>
<path d="M17.4818 55.7245C18.6319 55.2159 19.8462 54.8272 21.1111 54.5778C21.1039 54.303 21.0916 54.0291 21.068 53.7573C21.6099 52.3519 22.1101 50.9371 22.5625 49.5144C21.7555 49.5929 20.9549 49.717 20.1635 49.8854C19.5769 50.0099 18.9974 50.1665 18.423 50.3395C17.9617 50.4784 17.5063 50.6379 17.0547 50.808L18.8404 51.2406L17.4818 55.7245Z" fill="#525353"/>
<path d="M13.2948 58.3665C13.3395 57.9098 13.3669 57.4494 13.3669 56.9843C13.3669 56.7044 13.594 56.4774 13.8738 56.4774H14.3191L15.89 51.2937C13.1141 52.5299 10.5835 54.3633 8.50781 56.7428C9.652 57.7309 10.8874 58.6142 12.2016 59.3794C12.5515 59.0262 12.9162 58.6881 13.2948 58.3665Z" fill="#525353"/>
<path d="M33.1172 51.2925L34.6881 56.4762H35.1329C35.4132 56.4762 35.6398 56.7032 35.6398 56.983C35.6398 57.4486 35.6672 57.909 35.712 58.3653C36.091 58.6869 36.4552 59.0254 36.8051 59.3778C38.1194 58.6126 39.3547 57.7292 40.4989 56.7412C38.4237 54.3621 35.893 52.5287 33.1172 51.2925Z" fill="#525353"/>
<path d="M30.1444 51.2406L31.9297 50.808C31.4781 50.6383 31.0227 50.4788 30.5614 50.3395C29.987 50.1665 29.4079 50.0099 28.8208 49.8854C28.0295 49.7174 27.2288 49.5929 26.4219 49.5144C26.8743 50.9371 27.3745 52.3519 27.9164 53.7573C27.8932 54.0295 27.8805 54.3035 27.8733 54.5778C29.1386 54.8272 30.3529 55.2159 31.503 55.7245L30.1444 51.2406Z" fill="#525353"/>
<path d="M24.4989 56.4769H27.9508C27.8799 55.8409 27.8546 55.207 27.8715 54.5785C26.7805 54.3633 25.6532 54.248 24.4989 54.248C23.3445 54.248 22.2177 54.3633 21.1262 54.5785C21.1427 55.207 21.1174 55.8409 21.0469 56.4769H24.4989Z" fill="white"/>
<path d="M12.1953 59.379C12.4802 59.5448 12.7672 59.7065 13.0588 59.8609C13.161 59.3701 13.2391 58.8717 13.2884 58.3665C12.9099 58.6881 12.5452 59.0261 12.1953 59.379Z" fill="white"/>
<path d="M17.2656 56.4773H21.0434C21.1143 55.8412 21.1397 55.2073 21.1228 54.5789C19.8579 54.8283 18.6432 55.217 17.4935 55.7256L17.2656 56.4773Z" fill="white"/>
<path d="M35.7031 58.3665C35.7525 58.8717 35.8306 59.3701 35.9327 59.8609C36.2244 59.7065 36.5118 59.5448 36.7962 59.379C36.4464 59.0261 36.0821 58.6881 35.7031 58.3665Z" fill="white"/>
<path d="M31.7218 56.4768L31.4939 55.7256C30.3438 55.217 29.1295 54.8283 27.8642 54.5789C27.8478 55.2073 27.8731 55.8412 27.9436 56.4773L31.7218 56.4768V56.4768Z" fill="white"/>
<path d="M17.2776 56.4774L17.5056 55.7258L18.8646 51.2414L17.0789 50.8088C16.6788 50.9591 16.282 51.1195 15.8912 51.2934L14.3203 56.477H16.0068L17.2776 56.4774V56.4774Z" fill="#AA9678"/>
<path d="M31.4914 55.7258L31.7193 56.477H32.9901H34.6771L33.1062 51.2934C32.7149 51.119 32.3182 50.9591 31.9181 50.8088L30.1328 51.2414L31.4914 55.7258Z" fill="#AA9678"/>
<path d="M14.3519 57.5234C14.3671 57.5124 14.3827 57.5014 14.3983 57.4905H14.354C14.3536 57.5014 14.3523 57.512 14.3519 57.5234Z" fill="#C0B098"/>
<path d="M24.5058 57.4905H20.9014H16.9687H14.4166C14.401 57.5015 14.3853 57.5124 14.3701 57.5234C14.3364 58.4806 14.2081 59.4193 14 60.3326C17.184 61.8465 20.7453 62.6965 24.5058 62.6965V57.4905Z" fill="#C0B098"/>
<path d="M34.6306 57.4905H34.5863C34.6019 57.5014 34.6175 57.5124 34.6327 57.5234C34.6318 57.5124 34.6306 57.5019 34.6306 57.4905Z" fill="#AA9678"/>
<path d="M34.5888 57.4905H32.037H28.1039H24.5V57.4905V62.6965C28.2605 62.6965 31.8218 61.8469 35.0058 60.3326C34.7977 59.4193 34.6698 58.481 34.6356 57.5234C34.62 57.5124 34.6044 57.5019 34.5888 57.4905Z" fill="#AA9678"/>
<rect x="24.5" y="56.9844" width="0.113942" height="0.506887" fill="#786453"/>
<path d="M35.7076 58.3659C35.6629 57.9093 35.6354 57.4488 35.6354 56.9837C35.6354 56.7039 35.4084 56.4768 35.1285 56.4768H34.6837H32.9968H31.7259H27.9481H24.4962H21.0438H17.2659H15.9951H14.3086H13.8633C13.5831 56.4768 13.3565 56.7039 13.3565 56.9837C13.3565 57.4492 13.329 57.9097 13.2843 58.3659C13.2349 58.8711 13.1568 59.3696 13.0547 59.8604C13.3632 60.0238 13.6743 60.1824 13.99 60.3327C14.198 59.4194 14.3259 58.4811 14.3601 57.5235C14.3605 57.5125 14.3618 57.5016 14.3622 57.4906H14.4065H16.9587H20.8914H24.4957V57.4906H28.0997H32.0328H34.5845H34.6288C34.6293 57.5016 34.6305 57.5125 34.6309 57.5235C34.6647 58.4807 34.793 59.4194 35.0011 60.3327C35.3172 60.1824 35.6283 60.0238 35.9364 59.8604C35.8351 59.3691 35.757 58.8711 35.7076 58.3659Z" fill="#8B7460"/>
<path d="M31.5053 52.9806C31.4314 52.8958 31.3551 52.8046 31.2761 52.7012C31.3551 52.805 31.4314 52.8958 31.5053 52.9806V52.9806Z" fill="#525353"/>
<path d="M32.0791 53.5396C32.0791 53.5396 32.0808 53.5455 32.0841 53.5557C32.0808 53.5455 32.0791 53.5396 32.0791 53.5396C32.0791 53.5396 31.8309 53.3429 31.5156 52.98V52.98C31.8305 53.3429 32.0791 53.5396 32.0791 53.5396Z" fill="#AA9678"/>
<circle cx="39.5742" cy="31.3975" r="0.569709" transform="rotate(-4.57141 39.5742 31.3975)" fill="white"/>
<path d="M40.8097 32.7473V32.7473V32.7473C40.8054 32.7418 40.8012 32.7367 40.7974 32.7312H40.7979C40.5944 32.4485 40.3842 32.1906 40.169 31.9563C40.1686 31.9555 40.1677 31.9547 40.1669 31.9542C40.1673 31.9551 40.1681 31.9559 40.169 31.9563C40.1669 31.9542 40.1652 31.9517 40.1635 31.9496V31.9496C40.0656 31.8437 39.9668 31.7419 39.8668 31.6461C39.8288 31.6098 39.79 31.5782 39.752 31.5436C39.6891 31.4866 39.6262 31.4275 39.5625 31.3748V31.376V33.6538L40.4349 37.6494V37.6494C40.4442 37.6807 40.456 37.7094 40.464 37.7419L41.0684 38.4193L41.0743 38.4125H41.707C41.7078 38.3538 41.7112 38.296 41.7112 38.2374V38.2365C41.7112 36.352 41.4014 34.541 40.8405 32.8448V32.8448C40.8299 32.8127 40.8206 32.7798 40.8097 32.7473Z" fill="#BBBCBD"/>
<path d="M40.5175 38.0402C40.5183 38.0466 40.52 38.0525 40.5209 38.0592C40.5213 38.063 40.5226 38.0668 40.523 38.0706C40.523 38.071 40.523 38.0715 40.523 38.0723C40.5344 38.166 40.539 38.2635 40.5411 38.3623C40.5415 38.3804 40.5445 38.3973 40.5445 38.4154C40.5445 38.4175 40.5449 38.4197 40.5449 38.4222C40.5449 38.4247 40.5445 38.4268 40.5445 38.4294C40.5445 38.4488 40.5415 38.4669 40.5411 38.4863C40.539 38.583 40.5348 38.6788 40.5234 38.7708C40.5234 38.7712 40.5234 38.7716 40.5234 38.7721C40.523 38.7767 40.5217 38.7809 40.5209 38.786C40.52 38.7936 40.5179 38.8003 40.5166 38.8075C40.5031 38.9075 40.4854 39.005 40.4618 39.0975C40.4618 39.0979 40.4618 39.0983 40.4614 39.0987V39.0987L40.4647 39.0949C40.4652 39.0932 40.4656 39.092 40.466 39.0903V39.0903L41.0653 38.4201L40.4609 37.7427C40.4609 37.7431 40.4609 37.7435 40.4614 37.7439C40.4854 37.8385 40.5036 37.9377 40.5175 38.0402Z" fill="#676A6A"/>
<path fill-rule="evenodd" clip-rule="evenodd" d="M40.5086 38.7891C40.5073 38.7951 40.5061 38.8012 40.5052 38.8075C40.4917 38.9075 40.474 39.005 40.4503 39.097C40.4284 39.184 40.4018 39.2663 40.3718 39.3448C40.3669 39.3579 40.3614 39.3704 40.3559 39.3828C40.3526 39.3904 40.3493 39.3979 40.3461 39.4055C40.3225 39.4621 40.2963 39.5153 40.2689 39.5659C40.2656 39.5719 40.2623 39.578 40.259 39.5841C40.2476 39.6052 40.2362 39.6264 40.2237 39.6461C40.1988 39.6862 40.1718 39.7221 40.1448 39.7575C40.1055 39.8086 40.0642 39.8546 40.0207 39.8951C40.016 39.8996 40.0113 39.9042 40.0066 39.9088C39.9936 39.9214 39.9807 39.9341 39.9671 39.9449C39.9333 39.9715 39.8987 39.9943 39.8628 40.0146C39.8493 40.0226 39.8358 40.0298 39.8219 40.0365C39.7362 40.0787 39.6459 40.1032 39.5522 40.1032C39.0078 40.1032 38.5663 39.3469 38.5663 38.4137H38.5625C38.5625 38.405 38.5631 38.3965 38.5638 38.388C38.5643 38.3811 38.5648 38.3742 38.565 38.3673C38.5667 38.2537 38.5747 38.1427 38.5899 38.0364C38.5923 38.0174 38.5959 37.9992 38.5996 37.981C38.6016 37.9705 38.6037 37.9601 38.6055 37.9494C38.6224 37.8541 38.6427 37.7612 38.668 37.6734C38.6701 37.6658 38.6727 37.6582 38.6752 37.6506C38.733 37.459 38.8124 37.2898 38.9061 37.1488C38.9187 37.1302 38.9318 37.1117 38.9449 37.0939C38.9706 37.0593 38.9964 37.0256 39.0238 36.9956C39.0643 36.9517 39.1061 36.9112 39.1504 36.8779C39.1604 36.87 39.1709 36.8637 39.1814 36.8576C39.1883 36.8535 39.1952 36.8494 39.2019 36.8449C39.2403 36.8205 39.2791 36.7989 39.3197 36.7825C39.337 36.7753 39.3543 36.7685 39.372 36.7631C39.4294 36.7453 39.4872 36.7327 39.5476 36.7327C39.6079 36.7327 39.6662 36.7453 39.7231 36.7631C39.7409 36.7685 39.7582 36.7753 39.7755 36.7825C39.816 36.7989 39.8553 36.8205 39.8932 36.8449C39.9 36.8494 39.9069 36.8535 39.9138 36.8576C39.9243 36.8639 39.9349 36.8702 39.9451 36.8779C39.9895 36.9112 40.0312 36.9517 40.0718 36.9956C40.0992 37.0256 40.1249 37.0593 40.1507 37.0939C40.1638 37.1112 40.1764 37.1298 40.1891 37.1484L40.1891 37.1484C40.2828 37.2889 40.3621 37.4586 40.42 37.6502C40.4238 37.6631 40.4281 37.6754 40.4323 37.6877C40.4386 37.7062 40.4449 37.7246 40.4499 37.7443C40.474 37.8389 40.4921 37.9381 40.5061 38.0402C40.5068 38.045 40.5078 38.0496 40.5087 38.0542C40.51 38.0602 40.5113 38.0661 40.512 38.0723C40.5234 38.166 40.528 38.2635 40.5301 38.3622C40.5303 38.3715 40.531 38.3806 40.5318 38.3897C40.5326 38.4003 40.5335 38.411 40.5335 38.4221C40.5335 38.4338 40.5325 38.445 40.5316 38.4562C40.5307 38.4661 40.5299 38.476 40.5297 38.4863C40.5276 38.583 40.5234 38.6788 40.512 38.7708C40.5111 38.7771 40.5099 38.7831 40.5086 38.7891ZM39.2101 37.5632C39.2101 37.9131 39.3756 38.1967 39.5798 38.1967C39.7841 38.1967 39.9495 37.9131 39.9495 37.5632C39.9495 37.2133 39.7841 36.9297 39.5798 36.9297C39.3756 36.9297 39.2101 37.2133 39.2101 37.5632Z" fill="white"/>
<ellipse cx="39.5885" cy="37.5629" rx="0.36972" ry="0.633503" fill="white"/>
<path d="M38.6875 37.6504V37.6504C38.7453 37.4583 38.8247 37.2891 38.9184 37.1486C38.931 37.1296 38.9441 37.1114 38.9572 37.0937C38.9825 37.0591 39.0087 37.0257 39.0361 36.9953C39.0766 36.951 39.1188 36.9114 39.1627 36.8776C39.1796 36.8649 39.1973 36.8561 39.2142 36.8447C39.2522 36.8198 39.2915 36.7987 39.332 36.7822C39.3493 36.775 39.3666 36.7683 39.3843 36.7628C39.4413 36.7451 39.4995 36.7324 39.5599 36.7324C39.6202 36.7324 39.6785 36.7446 39.7355 36.7628C39.7532 36.7683 39.7705 36.775 39.7878 36.7822C39.8279 36.7987 39.8671 36.8198 39.9055 36.8447C39.9229 36.8561 39.9406 36.8649 39.9575 36.8776C40.0018 36.9114 40.0436 36.951 40.0841 36.9953C40.1115 37.0253 40.1377 37.0591 40.163 37.0937C40.1761 37.1114 40.1887 37.1296 40.2014 37.1481C40.2951 37.2891 40.374 37.4583 40.4323 37.65V37.6504V37.6504L39.5599 33.6548L38.6875 37.6504V37.6504Z" fill="#909393"/>
<path fill-rule="evenodd" clip-rule="evenodd" d="M27.9819 38.1471C27.9912 38.2256 27.9963 38.3049 27.9976 38.3851C27.9976 38.3875 27.9977 38.3899 27.9978 38.3922C27.998 38.3955 27.9982 38.3986 27.998 38.4016C27.998 38.4043 27.9982 38.4069 27.9984 38.4096C27.9986 38.4122 27.9988 38.4148 27.9988 38.4176C27.9988 38.7362 27.9342 39.0401 27.8173 39.3161C27.7591 39.4542 27.6873 39.5854 27.6046 39.7082C27.4388 39.9539 27.2269 40.1657 26.9812 40.3316C26.8584 40.4143 26.7272 40.4861 26.5892 40.5443C26.3127 40.6612 26.0093 40.7258 25.6906 40.7258C25.6096 40.7258 25.5298 40.7212 25.4509 40.7131C25.4405 40.7119 25.4301 40.7102 25.4198 40.7084C25.412 40.7071 25.4042 40.7058 25.3964 40.7047C25.3361 40.6967 25.2761 40.6887 25.2175 40.6764C25.2082 40.6745 25.1993 40.6721 25.1902 40.6697C25.1832 40.6678 25.1762 40.6658 25.1689 40.6642C25.1086 40.6503 25.0487 40.6355 24.9904 40.6169C24.9851 40.615 24.9799 40.613 24.9746 40.611C24.9693 40.609 24.964 40.607 24.9588 40.6051C24.8955 40.5836 24.833 40.5612 24.7726 40.5346C24.7692 40.5333 24.7659 40.5316 24.7626 40.53C24.7607 40.529 24.7587 40.528 24.7566 40.527C24.6916 40.4979 24.6275 40.4662 24.5654 40.4316L24.5625 40.4299C24.3641 40.3177 24.1834 40.1771 24.0264 40.0138C23.8281 39.807 23.6673 39.5635 23.5563 39.2942C23.5559 39.2934 23.5555 39.2924 23.5552 39.2915C23.5549 39.2905 23.5546 39.2896 23.5542 39.2887C23.4993 39.1558 23.4571 39.0165 23.428 38.8726L23.4267 38.8633C23.3984 38.7189 23.3828 38.57 23.3828 38.4172C23.3828 38.3361 23.387 38.2555 23.3955 38.1766C23.3965 38.1673 23.3981 38.1582 23.3997 38.1492C23.4013 38.1401 23.4029 38.131 23.4039 38.1217C23.4119 38.061 23.4204 38.001 23.4326 37.9419C23.4346 37.933 23.437 37.9243 23.4394 37.9157C23.4416 37.9075 23.4439 37.8995 23.4457 37.8913C23.4596 37.8314 23.4744 37.7718 23.493 37.714C23.4952 37.707 23.4978 37.7002 23.5004 37.6934C23.5023 37.6884 23.5043 37.6833 23.5061 37.6782C23.5272 37.6161 23.5495 37.5545 23.5757 37.495C23.5772 37.4916 23.5789 37.4882 23.5805 37.4848C23.5822 37.4815 23.5839 37.4781 23.5854 37.4747C23.6145 37.4106 23.6453 37.3473 23.6799 37.2865C23.6804 37.2857 23.6809 37.2849 23.6815 37.2841C23.6824 37.2827 23.6834 37.2813 23.6842 37.2797C23.7973 37.0814 23.9387 36.9011 24.1033 36.745L24.1117 36.7429L24.1142 36.7349C24.2172 36.6382 24.3291 36.5508 24.4485 36.474C24.4489 36.474 24.4493 36.474 24.4498 36.4736C24.5679 36.3976 24.6937 36.3322 24.8254 36.2786L24.8359 36.2748C24.9655 36.2225 25.101 36.1815 25.2411 36.1537C25.2436 36.1533 25.2462 36.153 25.2487 36.1526C25.2512 36.1523 25.2538 36.152 25.2563 36.1516C25.3973 36.1246 25.5425 36.1094 25.6914 36.1094C25.843 36.1094 25.9911 36.125 26.1342 36.1528C26.1359 36.1533 26.1377 36.1535 26.1395 36.1537C26.1413 36.1539 26.143 36.1541 26.1447 36.1545C26.2878 36.1832 26.4258 36.225 26.5579 36.279L26.5647 36.2816C26.8323 36.3917 27.0754 36.5508 27.2817 36.7475C27.4442 36.9024 27.5844 37.0809 27.6966 37.2772C27.7333 37.3414 27.7671 37.408 27.7975 37.476C27.7983 37.4773 27.7992 37.4789 27.7996 37.4802C27.8296 37.5477 27.8566 37.6174 27.8802 37.6883C27.8804 37.6891 27.8808 37.69 27.8811 37.6908C27.8814 37.6917 27.8817 37.6925 27.8819 37.6933C27.9055 37.7642 27.9254 37.8364 27.9418 37.9103L27.9431 37.9162C27.9596 37.9909 27.9722 38.0669 27.9815 38.1437C27.9815 38.1443 27.9816 38.1448 27.9817 38.1454C27.9818 38.1459 27.9819 38.1464 27.9819 38.1471ZM24.8185 37.2477C24.8185 37.7263 25.2063 38.1146 25.6854 38.1146C26.1644 38.1146 26.5527 37.7263 26.5523 37.2477C26.5523 36.769 26.1644 36.3808 25.6854 36.3808C25.2068 36.3808 24.8185 36.7686 24.8185 37.2477Z" fill="white"/>
<circle cx="25.695" cy="37.2468" r="0.8669" fill="white"/>
<path d="M24.1079 36.7453V36.7453L24.1163 36.7432L24.1189 36.7352V36.7352L25.7083 31.874C25.7083 31.874 25.7083 31.5861 25.7083 31.2987C25.7083 31.2177 25.7083 31.1375 25.7083 31.0628C25.7083 31.0379 25.7083 31.0134 25.7083 30.9902C25.7083 30.9539 25.7083 30.921 25.7083 30.8902C25.7083 30.8687 25.7083 30.8476 25.7083 30.8298C25.7083 30.8058 25.7083 30.7859 25.7083 30.7695C25.7083 30.756 25.7083 30.7442 25.7083 30.7366C25.7083 30.7281 25.7083 30.7235 25.7083 30.7235C24.8233 30.542 23.9129 30.4424 22.981 30.4424C22.67 30.4424 22.3614 30.4555 22.055 30.4766C22.0103 30.4795 21.9656 30.4825 21.9208 30.4859C20.325 30.607 18.7541 31.0231 17.2993 31.687C16.0517 32.2568 14.8923 33.0072 13.8503 33.8969V33.8969C13.8499 33.8973 13.849 33.8982 13.8486 33.8986C13.5688 34.1362 13.3008 34.3873 13.0387 34.6444C12.9897 34.6925 12.9399 34.7397 12.8918 34.7883C12.6453 35.0369 12.4069 35.2935 12.1764 35.5577C12.1262 35.6151 12.0772 35.6737 12.0279 35.732C11.7966 36.0051 11.5712 36.2832 11.3576 36.571C11.3399 36.5951 11.323 36.6204 11.3053 36.6445C11.1015 36.9218 10.9077 37.2062 10.7208 37.4958C10.6845 37.5523 10.6469 37.608 10.611 37.665C10.4599 37.9047 10.319 38.1512 10.1797 38.3981H17.4082H17.4209L24.1079 36.7453Z" fill="#BBBCBD"/>
<path d="M30.2231 36.1977C30.2379 36.0082 30.2501 35.8183 30.2598 35.6288C30.2729 35.3718 30.2818 35.1147 30.2868 34.8577C30.2906 34.6581 30.2902 34.4584 30.2894 34.2588C30.289 34.201 30.2906 34.1436 30.2898 34.0858C30.2843 33.5713 30.2645 33.056 30.2328 32.5406V32.5406V32.5406C30.2316 32.5398 30.2299 32.5385 30.2286 32.5377C30.2278 32.5364 30.2273 32.5351 30.2265 32.5339C30.2244 32.5326 30.2172 32.5284 30.2105 32.5246C30.2041 32.5212 30.1991 32.5178 30.1872 32.5115C30.0927 32.4571 29.8602 32.3241 29.6517 32.2055C29.6474 32.203 29.6428 32.2004 29.6386 32.1979C29.5858 32.1679 29.5347 32.1392 29.4887 32.1131C29.4879 32.1127 29.4866 32.1118 29.4862 32.1114C29.4465 32.089 29.4132 32.0705 29.3824 32.0531C29.3761 32.0498 29.3676 32.0447 29.3621 32.0418C29.3284 32.0228 29.3018 32.0084 29.2866 32.0008C28.9536 31.8282 28.6138 31.6682 28.2686 31.5222C27.4452 31.1744 26.336 30.8697 25.7109 30.7224V31.1601V31.2622V31.2977C25.7109 31.5855 25.7109 31.8729 25.7109 31.8729L27.2865 36.7422L27.2882 36.7464C27.4506 36.9013 27.5908 37.0798 27.703 37.2761V37.2761C27.7398 37.3406 27.7735 37.4069 27.8039 37.4749C27.8047 37.4761 27.8052 37.4774 27.806 37.4791C27.8364 37.5466 27.863 37.6162 27.8866 37.6872C27.887 37.6888 27.8879 37.6905 27.8883 37.6922C27.9115 37.7631 27.9318 37.8353 27.9482 37.9092C27.9487 37.9113 27.9491 37.913 27.9495 37.9151C27.966 37.9893 27.9791 38.0653 27.9879 38.1425C27.9879 38.1438 27.9883 38.1447 27.9883 38.1459C27.9976 38.224 28.0027 38.3034 28.004 38.384V38.384L28.0099 38.397H29.9391C30.0695 37.691 30.1602 36.9756 30.2181 36.2572C30.2193 36.2374 30.2214 36.2176 30.2231 36.1977Z" fill="#E2DDDB"/>
<path d="M28.0095 45.3355C28.4471 44.9 28.8603 44.483 29.2545 44.074C29.4888 43.8313 29.7175 43.5908 29.9361 43.3536C31.5484 41.6033 32.7323 39.9653 33.4443 37.8584C33.4611 37.8082 33.478 37.7423 33.4941 37.6685C33.4966 37.6571 33.4991 37.6461 33.5017 37.6343C33.5185 37.5558 33.5346 37.4684 33.5506 37.3697C33.5569 37.3017 33.5637 37.2359 33.5696 37.1722C33.3907 36.2546 33.0433 35.3632 32.7369 34.4824C32.7382 34.4854 32.739 34.4883 32.7403 34.4913C32.7386 34.4896 32.7327 34.4841 32.7314 34.4828C32.6727 34.4271 32.6111 34.3752 32.5516 34.3203C32.3701 34.1532 32.1857 33.9899 31.9979 33.8316C31.4344 33.3564 30.8427 32.9233 30.2215 32.5405V32.5405C30.2531 33.0559 30.2729 33.5712 30.2784 34.0857C30.2793 34.1435 30.2776 34.2009 30.278 34.2587C30.2788 34.4583 30.2793 34.658 30.2755 34.8576C30.2704 35.1146 30.2615 35.3717 30.2485 35.6287C30.2388 35.8186 30.2265 36.0081 30.2117 36.1976C30.2101 36.2175 30.2079 36.2369 30.2067 36.2567C30.1493 36.9755 30.0581 37.6904 29.9277 38.3965L29.7011 39.4681C29.2279 41.3868 28.2665 43.1273 27.476 44.9244C27.2662 45.4009 27.0674 45.8829 26.8931 46.3738C26.8771 46.4189 26.8602 46.4662 26.8438 46.5126C27.0907 46.2531 27.3093 46.029 27.4756 45.8644C27.657 45.685 27.8352 45.509 28.0095 45.3355Z" fill="#FBB040"/>
<path d="M24.1172 36.7351V36.7351C24.2202 36.6384 24.332 36.5511 24.4515 36.4742C24.4519 36.4738 24.4523 36.4738 24.4527 36.4738C24.5709 36.3978 24.6967 36.3324 24.8283 36.2788C24.8317 36.2776 24.8355 36.2763 24.8389 36.275C24.9685 36.2227 25.104 36.1818 25.2441 36.1539C25.2491 36.1531 25.2542 36.1526 25.2593 36.1518C25.4002 36.1248 25.5454 36.1096 25.6944 36.1096C25.8459 36.1096 25.9936 36.1252 26.1371 36.1531C26.1409 36.1539 26.1443 36.1539 26.1477 36.1547C26.2908 36.1834 26.4288 36.2256 26.5609 36.2792C26.563 36.2801 26.5651 36.2809 26.5676 36.2818C26.8356 36.3919 27.0783 36.5511 27.2847 36.7477L27.283 36.7435L25.7075 31.8743L24.1172 36.7351Z" fill="#909393"/>
<path d="M23.5495 39.2896C23.495 39.1566 23.4524 39.0173 23.4233 38.8734C23.4228 38.8705 23.4224 38.8675 23.422 38.8641C23.3937 38.7198 23.3781 38.5708 23.3781 38.418C23.3781 38.3366 23.3823 38.2564 23.3908 38.1775C23.3929 38.1589 23.3967 38.1412 23.3992 38.1226C23.4072 38.0622 23.4152 38.0019 23.4279 37.9428C23.4317 37.9255 23.4368 37.909 23.441 37.8921C23.4549 37.8322 23.4697 37.7727 23.4883 37.7149C23.4921 37.7026 23.4971 37.6913 23.5013 37.679C23.5224 37.617 23.5448 37.5553 23.571 37.4958C23.5739 37.4891 23.5777 37.4823 23.5807 37.4756C23.6098 37.4114 23.6406 37.3481 23.6752 37.2873C23.6765 37.2848 23.6782 37.2827 23.6795 37.2806C23.7926 37.0822 23.9339 36.902 24.0985 36.7458V36.7458L17.4111 38.3978H17.3984L24.0222 40.0142C23.8238 39.8074 23.663 39.5639 23.552 39.2946C23.5507 39.2934 23.5503 39.2913 23.5495 39.2896Z" fill="#676A6A"/>
<path d="M38.6007 38.0364C38.6049 38.0064 38.6113 37.9786 38.6163 37.9495C38.6332 37.8545 38.6531 37.7617 38.6788 37.6734C38.6818 37.6637 38.683 37.6523 38.6856 37.6426L39.5579 33.647V31.3688C38.8451 30.78 38.0816 30.458 37.2864 30.458C36.2824 30.458 35.3458 31.0126 34.6457 31.6976C33.8792 32.4471 33.2875 33.3904 32.8085 34.3422C32.7865 34.3861 32.7641 34.4279 32.7422 34.4722C32.8899 34.6 33.0359 34.7296 33.1799 34.8613C33.5061 35.1597 33.8252 35.4657 34.1396 35.7763C34.2865 35.9211 34.43 36.0688 34.5743 36.2161C34.7275 36.3718 34.8807 36.5276 35.0314 36.6858C35.2251 36.8897 35.4176 37.0952 35.6079 37.3029C35.6881 37.3902 35.7679 37.478 35.8472 37.5658C36.0764 37.8199 36.3047 38.0748 36.5293 38.3335L36.5297 38.334C36.5673 38.3736 36.5939 38.4015 36.604 38.4133H38.5716C38.5716 38.3973 38.575 38.3829 38.575 38.3669C38.5779 38.2538 38.5855 38.1428 38.6007 38.0364Z" fill="#E2DDDB"/>
<path d="M32.7433 34.4825C32.7425 34.4804 32.7421 34.4783 32.7412 34.4766V34.4766C32.74 34.4787 32.7391 34.4808 32.7378 34.4834C32.7391 34.4846 32.745 34.4901 32.7467 34.4918C32.7459 34.4889 32.7446 34.4859 32.7433 34.4825Z" fill="#E2DDDB"/>
<path d="M8.98807 40.9117C8.99356 40.8969 8.99989 40.8826 9.00538 40.8678C9.13199 40.5365 9.27085 40.2094 9.41688 39.8857C9.4574 39.7953 9.4996 39.7063 9.54139 39.6164C9.66083 39.3623 9.78702 39.1116 9.91786 38.863C9.97104 38.7617 10.023 38.6604 10.0782 38.5604C10.1086 38.5051 10.1432 38.4524 10.174 38.3971C10.3137 38.1502 10.4543 37.9037 10.6054 37.664C10.6413 37.607 10.6788 37.5513 10.7151 37.4947C10.9021 37.2056 11.0962 36.9207 11.2997 36.6434C11.3174 36.6194 11.3339 36.5941 11.352 36.57C11.5656 36.2826 11.7909 36.004 12.0222 35.731C12.0716 35.6727 12.1206 35.6141 12.1708 35.5567C12.4012 35.2925 12.6393 35.0358 12.8862 34.7873C12.9347 34.7387 12.9841 34.6914 13.033 34.6433C13.2951 34.3863 13.5631 34.1356 13.843 33.8976C13.8434 33.8971 13.8442 33.8963 13.8447 33.8959C14.9449 30.2088 18.3125 27.525 22.2971 27.525C23.9014 27.525 25.4959 27.9871 26.8629 28.8232C28.265 29.6808 29.4075 30.9373 30.1499 32.4018C30.1537 32.409 30.1575 32.4166 30.1608 32.4237C30.1794 32.4609 30.2005 32.4963 30.2191 32.5339V32.5339V32.5339C30.2195 32.5352 30.2204 32.5364 30.2212 32.5377C30.2225 32.5385 30.2242 32.5398 30.2254 32.5407C30.8463 32.923 31.4384 33.3565 32.0018 33.8317C32.1897 33.99 32.3741 34.1533 32.5556 34.3205C32.6151 34.3753 32.6767 34.4272 32.7354 34.4829C32.7366 34.4808 32.7375 34.4783 32.7388 34.4762C32.7396 34.4749 32.7404 34.4732 32.7409 34.472C32.7611 34.4302 32.781 34.388 32.8016 34.3475C33.363 30.8035 34.9263 28.2505 36.7702 28.2505C38.16 28.2505 39.3912 29.6998 40.1542 31.9304L40.1618 31.9544C40.1627 31.9553 40.1631 31.9561 40.164 31.957C40.3792 32.1912 40.5894 32.4491 40.7928 32.7318H40.7924C40.7966 32.7373 40.8004 32.7424 40.8046 32.7479V32.7475V32.7479C40.8156 32.7804 40.8249 32.8133 40.8354 32.8458V32.8458L40.8063 32.7297C38.5125 25.9389 32.0896 21.0498 24.5247 21.0498C15.0357 21.0498 7.34375 28.7422 7.34375 38.2308C7.34375 40.1013 7.64256 41.9022 8.19757 43.5782C8.19841 43.5748 8.19925 43.5719 8.19968 43.5685C8.30899 43.0629 8.4394 42.5606 8.59176 42.0635C8.71205 41.6756 8.84415 41.2915 8.98807 40.9117Z" fill="#525353"/>
<path d="M41.0673 38.4206L40.468 39.0908V39.0908C40.4676 39.0925 40.4672 39.0937 40.4667 39.0954C40.4439 39.1832 40.4161 39.2659 40.3853 39.3453C40.3773 39.3664 40.3684 39.3858 40.3595 39.4061C40.3355 39.4622 40.3102 39.5158 40.2823 39.5664C40.2675 39.5935 40.2528 39.6213 40.2371 39.6466C40.2122 39.6867 40.1856 39.7226 40.1582 39.7581C40.119 39.8091 40.0776 39.8551 40.0341 39.8957C40.0164 39.9125 39.9991 39.9307 39.9805 39.9455C39.9468 39.9725 39.9117 39.9948 39.8763 40.0151C39.8628 40.0227 39.8493 40.0303 39.8353 40.037C39.7497 40.0788 39.6593 40.1037 39.5656 40.1037C39.0212 40.1037 38.5797 39.3474 38.5797 38.4142H38.5759H38.5751H36.6075H36.6016C36.602 38.4147 36.6024 38.4151 36.6028 38.4155C36.97 38.8397 37.3313 39.2697 37.6871 39.7036C37.6913 39.7087 37.6955 39.7142 37.7002 39.7192C38.0463 40.1417 38.3877 40.5684 38.7249 40.9972C38.7414 41.0183 38.7583 41.039 38.7747 41.0601C39.0946 41.4682 39.4112 41.8789 39.7248 42.2904C39.7552 42.3305 39.786 42.3702 39.8163 42.4098C40.1481 42.8462 40.4769 43.2839 40.8027 43.722C40.8048 43.7249 40.8073 43.7283 40.8094 43.7313C41.3746 42.0587 41.6907 40.2721 41.7105 38.4138H41.7063H41.0736L41.0673 38.4206Z" fill="white"/>
<path d="M21.9151 30.4855C21.9599 30.4821 22.0046 30.4792 22.0493 30.4762C22.3557 30.4555 22.6643 30.442 22.9753 30.442C23.9068 30.442 24.8172 30.5421 25.7026 30.7231C25.7026 30.7231 25.7026 30.7278 25.7026 30.7362C25.7026 30.7438 25.7026 30.7556 25.7026 30.7691C25.7026 30.7856 25.7026 30.8063 25.7026 30.8295C25.7026 30.8476 25.7026 30.8683 25.7026 30.8898C25.7026 30.9202 25.7026 30.9544 25.7026 30.9899C25.7026 31.0131 25.7026 31.0375 25.7026 31.0624C25.7026 31.0941 25.7026 31.127 25.7026 31.1608V30.7231C26.3277 30.8704 27.4369 31.1751 28.2603 31.5229C28.6059 31.6689 28.9457 31.8285 29.2783 32.0015C29.2935 32.0095 29.3201 32.0239 29.3538 32.0425C29.3597 32.0458 29.3682 32.0505 29.3741 32.0539C29.4049 32.0712 29.4387 32.0897 29.4779 32.1121C29.4788 32.1125 29.48 32.1134 29.4804 32.1138C29.5269 32.14 29.5771 32.1687 29.6303 32.1986C29.6345 32.2012 29.6391 32.2037 29.6434 32.2062C29.8552 32.3265 30.0895 32.4607 30.1789 32.5122C30.1903 32.519 30.1958 32.5219 30.2022 32.5253C30.2064 32.5278 30.2169 32.5337 30.2182 32.5346V32.5346C30.1996 32.4974 30.1785 32.4616 30.1599 32.4244C30.1561 32.4172 30.1528 32.4096 30.149 32.4025C29.407 30.9379 28.2641 29.6815 26.862 28.8239C25.495 27.9878 23.9 27.5256 22.2962 27.5256C18.3116 27.5256 14.944 30.2095 13.8438 33.8965C14.8858 33.0069 16.0448 32.2564 17.2928 31.6867C18.7484 31.0224 20.3198 30.6066 21.9151 30.4855Z" fill="white"/>
<path d="M34.6408 31.698C35.341 31.013 36.2776 30.4584 37.2816 30.4584C38.0768 30.4584 38.8403 30.7804 39.5531 31.3692C39.5531 31.3692 39.5531 31.3742 39.5531 31.3759V31.3772V31.3759C39.6169 31.4283 39.6793 31.4874 39.7426 31.5448C39.7806 31.5794 39.8199 31.611 39.8574 31.6473C39.9574 31.7431 40.0562 31.8444 40.1541 31.9508V31.9508C40.1562 31.9529 40.1579 31.9554 40.1596 31.9575C40.1592 31.9567 40.1583 31.9558 40.1575 31.9554V31.9554L40.1495 31.9314C39.3864 29.7008 38.1553 28.2515 36.7655 28.2515C34.9215 28.2515 33.3582 30.8045 32.7969 34.3485L32.8028 34.3434C33.2827 33.3908 33.8748 32.4475 34.6408 31.698Z" fill="white"/>
<path d="M18.3603 54.2565C18.5173 54.3169 18.6768 54.3713 18.8359 54.427C20.6132 55.0495 22.5217 55.3927 24.5121 55.3927C26.7815 55.3927 28.9458 54.9487 30.929 54.1493C31.0341 54.1071 31.1367 54.0607 31.2405 54.0164C31.4089 53.9446 31.5761 53.8707 31.7415 53.7939C31.8896 53.7251 32.0378 53.6568 32.1834 53.5842C32.1484 53.5884 32.1129 53.5951 32.0779 53.5994V53.5994C31.4613 53.6686 30.8497 53.6728 30.2517 53.5871C26.7165 53.079 25.9332 51.3743 26.0455 49.5991C25.791 49.4523 25.5318 49.2872 25.2685 49.096C22.5496 47.1238 20.9361 45.0224 20.9361 45.0224C20.9361 45.0224 23.0333 46.6414 26.1662 47.8531C26.2333 47.8793 26.2962 47.9016 26.3624 47.9265C26.5089 47.4205 26.6819 46.9394 26.8343 46.5131V46.5131C26.8507 46.4667 26.8676 46.4194 26.8837 46.3742C27.058 45.8834 27.2568 45.4018 27.4665 44.9249C28.257 43.1278 29.218 41.3872 29.6916 39.4686L29.9182 38.397H27.989H27.9848V38.397C27.9848 38.3982 27.9848 38.3995 27.9848 38.4008L27.984 38.4012V38.4012C27.984 38.4067 27.9848 38.4117 27.9848 38.4172C27.9848 38.7359 27.9202 39.0393 27.8033 39.3158C27.7446 39.4538 27.6733 39.5851 27.5906 39.7079C27.4247 39.9535 27.2129 40.1654 26.9672 40.3312C26.8444 40.4144 26.7131 40.4857 26.5751 40.544C26.2991 40.6609 25.9952 40.7254 25.6766 40.7254C25.5955 40.7254 25.5158 40.7212 25.4369 40.7128C25.4183 40.7107 25.4006 40.7069 25.3824 40.7043C25.3221 40.6967 25.2621 40.6883 25.2035 40.6761C25.187 40.6727 25.1714 40.6676 25.1549 40.6638C25.0946 40.6499 25.0346 40.6351 24.9764 40.6166C24.9658 40.6132 24.9553 40.6085 24.9447 40.6047C24.8819 40.5836 24.819 40.5608 24.7586 40.5343C24.7531 40.5317 24.7481 40.5292 24.7426 40.5267C24.6772 40.4975 24.613 40.4663 24.5514 40.4313C24.5505 40.4309 24.5493 40.43 24.5484 40.4296C24.3496 40.3177 24.169 40.1772 24.0124 40.0134L17.3887 38.397H10.1602C10.1289 38.4518 10.0948 38.505 10.0644 38.5603C10.0091 38.6603 9.95717 38.762 9.90399 38.8629C9.77316 39.1111 9.64654 39.3618 9.52752 39.6163C9.48532 39.7058 9.44353 39.7952 9.40302 39.8856C9.25741 40.2093 9.11855 40.5364 8.99151 40.8677C8.98603 40.8825 8.9797 40.8968 8.97421 40.9116C8.83029 41.2914 8.69819 41.6755 8.57959 42.0629C8.42765 42.5601 8.29681 43.0624 8.1875 43.568C9.32578 47.039 11.5395 50.0212 14.4339 52.1234C14.5179 52.1846 14.6069 52.2391 14.6922 52.2986C15.1818 52.6409 15.6874 52.9608 16.2124 53.2516C16.9012 53.6327 17.6175 53.9712 18.3603 54.2565Z" fill="white"/>
<path d="M30.2315 48.9204C30.2053 49.1045 30.1872 49.2855 30.1821 49.4602C30.172 49.778 30.1939 50.0798 30.2404 50.3651C30.2712 50.5555 30.3125 50.7382 30.3623 50.913C30.437 51.1755 30.5307 51.4207 30.6358 51.6473C30.7405 51.874 30.8566 52.082 30.9756 52.2711C31.0153 52.334 31.0553 52.3948 31.0954 52.4535C31.1558 52.5412 31.2162 52.624 31.2757 52.7016C31.3546 52.805 31.431 52.8958 31.5048 52.981C31.8201 53.3436 32.0683 53.5407 32.0683 53.5407C32.0683 53.5407 32.07 53.5466 32.0733 53.5567C32.0767 53.5668 32.0818 53.582 32.0877 53.6002V53.6002C32.1227 53.5964 32.1582 53.5896 32.1932 53.585C32.9592 53.4892 33.7312 53.2815 34.4926 53.0076C34.8808 52.8679 35.2674 52.7164 35.6481 52.5429C35.7642 52.4897 35.8777 52.4311 35.993 52.3754C39.9286 50.4723 43.224 47.1064 43.224 47.1064C38.2784 49.5358 33.4454 49.4391 30.2315 48.9204Z" fill="#9F2255"/>
<path d="M39.7192 42.2906C39.4056 41.8787 39.0895 41.468 38.7692 41.0603C38.7527 41.0392 38.7358 41.0185 38.7194 40.9974C38.3821 40.5682 38.0407 40.1419 37.6946 39.7195C37.6904 39.7144 37.6862 39.7089 37.6815 39.7038C37.3253 39.27 36.9645 38.8399 36.5973 38.4157C36.5741 38.3887 36.5508 38.3617 36.5272 38.3347C36.3027 38.0764 36.0743 37.8211 35.8452 37.567C35.7654 37.4792 35.6861 37.3914 35.6059 37.304C35.4155 37.0964 35.2235 36.8908 35.0293 36.687C34.8782 36.5287 34.7255 36.373 34.5722 36.2173C34.4279 36.0704 34.284 35.9222 34.1375 35.7775C33.8223 35.4673 33.5036 35.1608 33.1778 34.8625C33.0334 34.7308 32.8874 34.6008 32.7397 34.4729C32.7388 34.4746 32.7384 34.4759 32.7376 34.4771C33.0482 35.3693 33.4023 36.273 33.5796 37.2032C33.6256 37.445 33.664 37.6809 33.6948 37.911C34.1274 41.1317 33.0955 43.2343 31.4562 46.0005C31.3389 46.1988 31.2182 46.4002 31.0949 46.6061C30.7202 47.2308 30.48 47.8225 30.3412 48.3783C30.2947 48.5636 30.2597 48.7447 30.2344 48.9215C33.4483 49.4402 38.2813 49.5369 43.2261 47.1071C43.2261 47.1071 42.2566 45.6818 40.7971 43.7226C40.4709 43.2846 40.1421 42.8469 39.8108 42.4105C39.7804 42.37 39.7496 42.3303 39.7192 42.2906Z" fill="#E2066F"/>
<path d="M32.0681 53.54C32.0681 53.54 31.82 53.3434 31.5047 52.9804C31.4308 52.8951 31.3549 52.8044 31.2755 52.701C31.216 52.6233 31.1556 52.5406 31.0953 52.4528C31.0552 52.3942 31.0151 52.3334 30.9754 52.2705C30.8564 52.0819 30.7403 51.8738 30.6357 51.6467C30.531 51.4201 30.4373 51.1749 30.3622 50.9123C30.3124 50.7372 30.271 50.5544 30.2402 50.3645C30.1942 50.0792 30.1723 49.7774 30.182 49.4596C30.1875 49.2849 30.2052 49.1038 30.2314 48.9198C30.2567 48.743 30.2917 48.5615 30.3381 48.3766C30.477 47.8212 30.7171 47.2295 31.0919 46.6044C31.0932 46.6027 31.094 46.6011 31.0949 46.5994C31.2173 46.3955 31.3367 46.1955 31.4532 45.9992C33.092 43.2331 34.124 41.1304 33.6918 37.9097C33.661 37.6797 33.6226 37.4442 33.5766 37.2019C33.5521 37.369 33.5268 37.513 33.501 37.6341C33.4985 37.6459 33.4959 37.6569 33.4934 37.6683C33.4769 37.7417 33.4605 37.8084 33.4436 37.8582C32.7316 39.9651 31.5477 41.6031 29.9355 43.3533C29.7169 43.5905 29.4881 43.8311 29.2539 44.0738C28.8597 44.4823 28.4465 44.8998 28.0088 45.3353C27.8345 45.5088 27.6564 45.6852 27.4753 45.8646C27.309 46.0292 27.0904 46.2537 26.8435 46.5128V46.5128C26.6912 46.9395 26.5177 47.4207 26.3717 47.9263C26.3058 47.9014 26.2429 47.879 26.1754 47.8529C23.0429 46.6411 20.9453 45.0221 20.9453 45.0221C20.9453 45.0221 22.5588 47.1236 25.2777 49.0958C25.5411 49.287 25.8002 49.452 26.0547 49.5989C25.9424 51.3741 26.7258 53.0787 30.2609 53.5869C30.8585 53.673 31.4705 53.6688 32.0871 53.5991C32.0808 53.581 32.0761 53.5658 32.0728 53.5557C32.0698 53.546 32.0681 53.54 32.0681 53.54Z" fill="white"/>
</svg>
