<svg width="106" height="106" viewBox="0 0 106 106" fill="none" xmlns="http://www.w3.org/2000/svg">
<path d="M40.1736 38.3494C39.1679 38.3494 38.3525 39.1648 38.3525 40.1705V44.7226C38.3525 45.7282 37.5374 46.5434 36.5317 46.5434C35.526 46.5434 34.7109 45.7282 34.7109 44.7226V40.1705C34.7109 37.1535 37.1566 34.7078 40.1736 34.7078H44.7257C45.7314 34.7078 46.5465 35.5229 46.5465 36.5286C46.5465 37.5343 45.7314 38.3494 44.7257 38.3494H40.1736Z" fill="white"/>
<path d="M59.2891 36.5286C59.2891 35.5229 60.1042 34.7078 61.1098 34.7078H65.662C68.6792 34.7078 71.1246 37.1535 71.1246 40.1705V44.7226C71.1246 45.7282 70.3095 46.5434 69.3038 46.5434C68.2982 46.5434 67.4831 45.7282 67.4831 44.7226V40.1705C67.4831 39.1648 66.6676 38.3494 65.662 38.3494H61.1098C60.1042 38.3494 59.2891 37.5343 59.2891 36.5286V36.5286Z" fill="white"/>
<path d="M36.5317 59.2899C37.5374 59.2899 38.3525 60.1051 38.3525 61.1107V65.6628C38.3525 66.6685 39.1679 67.4839 40.1736 67.4839H44.7257C45.7314 67.4839 46.5465 68.299 46.5465 69.3047C46.5465 70.3104 45.7314 71.1255 44.7257 71.1255H40.1736C37.1566 71.1255 34.7109 68.6801 34.7109 65.6628V61.1107C34.7109 60.1051 35.526 59.2899 36.5317 59.2899V59.2899Z" fill="white"/>
<path d="M69.3077 59.2899C70.3133 59.2899 71.1284 60.1051 71.1284 61.1107V65.6628C71.1284 68.6801 68.683 71.1255 65.6658 71.1255H62.0242C61.0185 71.1255 60.2031 70.3104 60.2031 69.3047C60.2031 68.299 61.0185 67.4839 62.0242 67.4839H65.6658C66.6715 67.4839 67.4869 66.6685 67.4869 65.6628V61.1107C67.4869 60.1051 68.302 59.2899 69.3077 59.2899V59.2899Z" fill="white"/>
<path d="M43.8125 45.6333C43.8125 44.6276 44.6279 43.8122 45.6336 43.8122H49.2752C50.2808 43.8122 51.0963 44.6276 51.0963 45.6333V49.2748C51.0963 50.2805 50.2808 51.0959 49.2752 51.0959H45.6336C44.6279 51.0959 43.8125 50.2805 43.8125 49.2748V45.6333Z" fill="white"/>
<path d="M45.6336 54.7372C44.6279 54.7372 43.8125 55.5526 43.8125 56.5583V60.1999C43.8125 61.2056 44.6279 62.021 45.6336 62.021H49.2752C50.2808 62.021 51.0963 61.2056 51.0963 60.1999V56.5583C51.0963 55.5526 50.2808 54.7372 49.2752 54.7372H45.6336Z" fill="white"/>
<path d="M54.7422 45.6333C54.7422 44.6276 55.5576 43.8122 56.5633 43.8122H60.2048C61.2105 43.8122 62.0259 44.6276 62.0259 45.6333V49.2748C62.0259 50.2805 61.2105 51.0959 60.2048 51.0959H56.5633C55.5576 51.0959 54.7422 50.2805 54.7422 49.2748V45.6333Z" fill="white"/>
<path d="M56.5633 54.7372C55.5576 54.7372 54.7422 55.5526 54.7422 56.5583V60.1999C54.7422 61.2056 55.5576 62.021 56.5633 62.021H60.2048C61.2105 62.021 62.0259 61.2056 62.0259 60.1999V56.5583C62.0259 55.5526 61.2105 54.7372 60.2048 54.7372H56.5633Z" fill="white"/>
</svg>
