<svg width="106" height="106" viewBox="0 0 106 106" fill="none" xmlns="http://www.w3.org/2000/svg">
<path fill-rule="evenodd" clip-rule="evenodd" d="M58.4824 36.7227L54.4024 40.8027C53.6055 41.5996 53.6055 42.8888 54.4024 43.686L58.4824 47.7661C59.2765 48.5629 60.5713 48.5629 61.3657 47.7661C62.1626 46.9719 62.1626 45.6772 61.3657 44.8827L58.7301 42.2444L61.3657 39.606C62.1626 38.8119 62.1626 37.5171 61.3657 36.7227C60.5716 35.9258 59.2768 35.9258 58.4824 36.7227V36.7227Z" fill="white"/>
<path fill-rule="evenodd" clip-rule="evenodd" d="M47.7701 69.5261L51.8501 65.4461C52.647 64.6492 52.647 63.3599 51.8501 62.5627L47.7701 58.4827C46.9759 57.6858 45.6812 57.6858 44.8867 58.4827C44.0898 59.2768 44.0898 60.5716 44.8867 61.366L47.5223 64.0044L44.8867 66.6427C44.0898 67.4369 44.0898 68.7316 44.8867 69.5261C45.6809 70.323 46.9756 70.323 47.7701 69.5261Z" fill="white"/>
<path fill-rule="evenodd" clip-rule="evenodd" d="M58.5634 44.2844H61.2835C64.6644 44.2844 67.4035 47.0235 67.4035 50.4044V55.8444C67.4035 59.2253 64.6644 61.9644 61.2835 61.9644H58.5634C57.4375 61.9644 56.5234 62.8785 56.5234 64.0044C56.5234 65.1304 57.4375 66.0444 58.5634 66.0444H61.2835C66.9165 66.0444 71.4835 61.4775 71.4835 55.8444V50.4044C71.4835 44.7713 66.9165 40.2043 61.2835 40.2043H58.5634C57.4375 40.2043 56.5234 41.1184 56.5234 42.2444C56.5234 43.3703 57.4375 44.2844 58.5634 44.2844Z" fill="white"/>
<path fill-rule="evenodd" clip-rule="evenodd" d="M49.0457 61.9644H44.9657C41.5848 61.9644 38.8456 59.2253 38.8456 55.8444V50.4044C38.8456 47.0235 41.5848 44.2844 44.9657 44.2844H47.6857C48.8116 44.2844 49.7257 43.3703 49.7257 42.2444C49.7257 41.1184 48.8116 40.2043 47.6857 40.2043H44.9657C39.3326 40.2043 34.7656 44.7713 34.7656 50.4044V55.8444C34.7656 61.4775 39.3326 66.0444 44.9657 66.0444H49.0457C50.1716 66.0444 51.0857 65.1304 51.0857 64.0044C51.0857 62.8785 50.1716 61.9644 49.0457 61.9644Z" fill="white"/>
</svg>
