<svg width="106" height="106" viewBox="0 0 106 106" fill="none" xmlns="http://www.w3.org/2000/svg">
<path d="M64.7 47.45C63.5 42.05 58.55 38 53 38C46.4 38 41 43.4 41 50V50.15C38 50.9 35 53.9 35 57.5C35 61.7 38.3 65 42.35 65H48.35V62H42.5C39.95 62 38 60.05 38 57.5C38 54.95 39.95 53 42.5 53H44V50C44 45.05 48.05 41 53 41C57.5 41 61.25 44.3 61.85 48.8L62 49.85L63.05 50C65.9 50.6 67.85 53 67.85 55.85C67.85 59.15 65.15 61.85 61.85 61.85H57.35V64.85H61.85C66.8 64.85 70.85 60.8 70.85 55.85C71 52.1 68.3 48.65 64.7 47.45ZM51.5 63.5H54.5V51.5H51.5V63.5ZM51.5 69.5H54.5V66.5H51.5V69.5Z" fill="white"/>
</svg>
