<svg width="70" height="70" viewBox="0 0 70 70" fill="none" xmlns="http://www.w3.org/2000/svg">
<path fill-rule="evenodd" clip-rule="evenodd" d="M30.3333 20.2917V22.875H27.75C25.6099 22.875 23.875 24.6099 23.875 26.75V29.3333H21.2917C20.5783 29.3333 20 29.9116 20 30.625C20 31.3384 20.5783 31.9167 21.2917 31.9167H23.875V35.7917H21.2917C20.5783 35.7917 20 36.37 20 37.0833C20 37.7967 20.5783 38.375 21.2917 38.375H23.875V42.25C23.875 44.3901 25.6099 46.125 27.75 46.125H30.3333V48.7083C30.3333 49.4217 30.9116 50 31.625 50C32.3384 50 32.9167 49.4217 32.9167 48.7083V46.125H38.0833V48.7083C38.0833 49.4217 38.6616 50 39.375 50C40.0884 50 40.6667 49.4217 40.6667 48.7083V46.125H43.25C45.3901 46.125 47.125 44.3901 47.125 42.25V38.375H49.7083C50.4217 38.375 51 37.7967 51 37.0833C51 36.37 50.4217 35.7917 49.7083 35.7917H47.125V31.9167H49.7083C50.4217 31.9167 51 31.3384 51 30.625C51 29.9116 50.4217 29.3333 49.7083 29.3333H47.125V26.75C47.125 24.6099 45.3901 22.875 43.25 22.875H40.6667V20.2917C40.6667 19.5783 40.0884 19 39.375 19C38.6616 19 38.0833 19.5783 38.0833 20.2917V22.875H32.9167V20.2917C32.9167 19.5783 32.3384 19 31.625 19C30.9116 19 30.3333 19.5783 30.3333 20.2917ZM26.4583 37.0845V42.25C26.4583 42.9634 27.0366 43.5417 27.75 43.5417H31.625H39.375H43.25C43.9634 43.5417 44.5417 42.9634 44.5417 42.25V37.0833V30.625V26.75C44.5417 26.0366 43.9634 25.4583 43.25 25.4583H39.3761L39.375 25.4583L39.3739 25.4583H31.6261L31.625 25.4583L31.6239 25.4583H27.75C27.0366 25.4583 26.4583 26.0366 26.4583 26.75V30.6239L26.4583 30.625L26.4583 30.6261V37.0822C26.4583 37.0826 26.4583 37.083 26.4583 37.0833C26.4583 37.0837 26.4583 37.0841 26.4583 37.0845ZM31.625 29.3333H39.375C40.0884 29.3333 40.6667 29.9116 40.6667 30.625V38.375C40.6667 39.0884 40.0884 39.6667 39.375 39.6667H31.625C30.9116 39.6667 30.3333 39.0884 30.3333 38.375V30.625C30.3333 29.9116 30.9116 29.3333 31.625 29.3333ZM38.0833 37.0833H32.9167V31.9167H38.0833V37.0833Z" fill="white"/>
<mask id="mask0_870_4387" style="mask-type:luminance" maskUnits="userSpaceOnUse" x="20" y="19" width="31" height="31">
<path fill-rule="evenodd" clip-rule="evenodd" d="M30.3333 20.2917V22.875H27.75C25.6099 22.875 23.875 24.6099 23.875 26.75V29.3333H21.2917C20.5783 29.3333 20 29.9116 20 30.625C20 31.3384 20.5783 31.9167 21.2917 31.9167H23.875V35.7917H21.2917C20.5783 35.7917 20 36.37 20 37.0833C20 37.7967 20.5783 38.375 21.2917 38.375H23.875V42.25C23.875 44.3901 25.6099 46.125 27.75 46.125H30.3333V48.7083C30.3333 49.4217 30.9116 50 31.625 50C32.3384 50 32.9167 49.4217 32.9167 48.7083V46.125H38.0833V48.7083C38.0833 49.4217 38.6616 50 39.375 50C40.0884 50 40.6667 49.4217 40.6667 48.7083V46.125H43.25C45.3901 46.125 47.125 44.3901 47.125 42.25V38.375H49.7083C50.4217 38.375 51 37.7967 51 37.0833C51 36.37 50.4217 35.7917 49.7083 35.7917H47.125V31.9167H49.7083C50.4217 31.9167 51 31.3384 51 30.625C51 29.9116 50.4217 29.3333 49.7083 29.3333H47.125V26.75C47.125 24.6099 45.3901 22.875 43.25 22.875H40.6667V20.2917C40.6667 19.5783 40.0884 19 39.375 19C38.6616 19 38.0833 19.5783 38.0833 20.2917V22.875H32.9167V20.2917C32.9167 19.5783 32.3384 19 31.625 19C30.9116 19 30.3333 19.5783 30.3333 20.2917ZM26.4583 37.0845V42.25C26.4583 42.9634 27.0366 43.5417 27.75 43.5417H31.625H39.375H43.25C43.9634 43.5417 44.5417 42.9634 44.5417 42.25V37.0833V30.625V26.75C44.5417 26.0366 43.9634 25.4583 43.25 25.4583H39.3761L39.375 25.4583L39.3739 25.4583H31.6261L31.625 25.4583L31.6239 25.4583H27.75C27.0366 25.4583 26.4583 26.0366 26.4583 26.75V30.6239L26.4583 30.625L26.4583 30.6261V37.0822C26.4583 37.0826 26.4583 37.083 26.4583 37.0833C26.4583 37.0837 26.4583 37.0841 26.4583 37.0845ZM31.625 29.3333H39.375C40.0884 29.3333 40.6667 29.9116 40.6667 30.625V38.375C40.6667 39.0884 40.0884 39.6667 39.375 39.6667H31.625C30.9116 39.6667 30.3333 39.0884 30.3333 38.375V30.625C30.3333 29.9116 30.9116 29.3333 31.625 29.3333ZM38.0833 37.0833H32.9167V31.9167H38.0833V37.0833Z" fill="white"/>
</mask>
<g mask="url(#mask0_870_4387)">
</g>
</svg>
