<svg width="300" height="77" viewBox="0 0 300 77" fill="none" xmlns="http://www.w3.org/2000/svg">
<g clip-path="url(#clip0_1614_4376)">
<path fill-rule="evenodd" clip-rule="evenodd" d="M0.751948 13.692C2.14538 10.3184 5.6423 7.93488 9.30591 7.94155C36.8646 7.93155 64.4233 7.94488 91.9819 7.93488C94.3721 7.88155 96.7656 8.77161 98.5291 10.3884C100.549 12.1952 101.699 14.8954 101.643 17.6023C101.633 28.1664 101.663 38.7268 101.629 49.2912C101.609 54.0646 97.439 58.3249 92.6687 58.4549C82.6179 58.4986 72.5639 58.4586 62.5131 58.4752C63.8632 61.8018 65.23 65.1254 66.5801 68.456C60.593 65.1591 54.6659 61.7451 48.6454 58.5182C35.4245 58.4019 22.1935 58.5282 8.96921 58.4516C4.20553 58.3186 0.0518969 54.0613 0.0252282 49.2976C-0.0147747 38.9571 0.0252282 28.6131 0.00522679 18.269C-0.0314426 16.7155 0.115235 15.1287 0.751948 13.692" fill="#9C5C8F"/>
<path fill-rule="evenodd" clip-rule="evenodd" d="M41.1854 14.4616C42.7122 12.8382 45.6091 13.3649 46.7358 15.2017C47.3459 16.1651 47.3992 17.4518 46.9092 18.4786C44.7857 22.6556 43.899 27.3092 43.0822 31.8829C42.1155 37.8467 41.3121 43.8868 41.6255 49.9409C41.7121 51.484 40.9654 53.3578 39.3086 53.7178C37.7418 54.0675 36.3151 53.0408 35.3317 51.934C30.8313 47.0937 28.2845 40.8232 26.4477 34.5664C24.5909 38.23 22.7274 41.8933 20.9273 45.5869C19.6672 48.0837 18.3371 50.6306 16.3236 52.6144C15.4736 53.4578 14.0368 54.2209 12.94 53.3541C11.2902 51.9107 10.8836 49.6105 10.1832 47.634C7.52631 38.4697 6.01953 29.026 4.47609 19.6253C4.12273 18.0586 4.77944 16.1818 6.34289 15.555C7.60631 15.0817 9.2231 15.015 10.2998 15.9451C11.0502 16.6151 11.2566 17.6519 11.3966 18.5986C12.48 25.8758 13.7701 33.1297 15.5272 40.2765C18.5374 34.5698 21.5307 28.8527 24.5309 23.1389C24.9776 22.3022 25.511 21.4621 26.331 20.9421C27.4278 20.2387 29.0545 20.2887 29.9713 21.2721C30.7413 22.0789 30.998 23.2023 31.2114 24.2623C32.1081 28.986 33.3215 33.663 35.085 38.14C35.845 31.3929 36.7751 24.5624 39.2386 18.1919C39.7953 16.9085 40.2854 15.5517 41.1854 14.4616ZM58.1091 18.0743C61.3494 17.6776 64.8463 18.7544 67.0531 21.2179C68.8532 23.2547 69.8633 25.8982 70.2033 28.5717C70.7534 33.1454 69.93 37.8991 67.7298 41.956C66.4864 44.2692 64.8596 46.486 62.5661 47.8461C59.2059 49.8863 54.6989 49.6363 51.452 47.4828C48.8585 45.706 47.4017 42.6794 46.8083 39.6622C45.6149 32.8354 47.655 25.2248 52.8254 20.4578C54.3088 19.1777 56.159 18.311 58.1091 18.0743ZM58.7822 25.0993C57.2254 25.616 56.242 27.0427 55.4053 28.3695C53.3085 31.7464 52.7018 36.2001 54.3886 39.8733C54.8319 40.8401 55.5453 41.8568 56.6687 42.0602C57.8621 42.2568 58.9722 41.5738 59.8423 40.8304C61.7591 39.1866 62.7125 36.7168 63.1759 34.2933C63.6959 31.5331 63.4292 28.4762 61.8091 26.1127C61.1591 25.1493 59.8823 24.7126 58.7822 25.0993ZM84.1084 18.0816C87.2753 17.6882 90.7122 18.6649 92.929 21.0284C94.9125 23.1683 95.9859 26.0321 96.2893 28.909C96.756 33.3293 95.9426 37.8997 93.8458 41.8296C92.5857 44.2065 90.9222 46.4936 88.5621 47.8771C85.3352 49.8102 81.0748 49.6335 77.8779 47.7267C75.7178 46.4266 74.281 44.2065 73.4543 41.8733C71.1875 34.7361 73.1009 26.3388 78.3246 20.9518C79.8914 19.4247 81.9249 18.3549 84.1084 18.0816ZM84.7951 25.1092C83.0949 25.716 82.0749 27.3394 81.1915 28.8128C79.278 32.1864 78.808 36.5301 80.5381 40.0737C81.0048 41.0534 81.8315 42.0401 83.0016 42.0935C84.275 42.1405 85.3718 41.3338 86.2552 40.5C88.1786 38.6032 89.0587 35.8934 89.3654 33.2632C89.6821 30.7997 89.2721 28.1528 87.8386 26.086C87.1819 25.1226 85.8918 24.7125 84.7951 25.1092V25.1092Z" fill="white"/>
<path fill-rule="evenodd" clip-rule="evenodd" d="M118.774 19.018C121.537 18.4079 124.444 18.4913 127.194 19.1313C127.204 21.3815 127.194 23.6317 127.201 25.8818C124.944 25.3385 122.42 24.8284 120.23 25.8852C117.613 27.1653 116.183 30.1155 116.157 32.949C116.01 35.7725 116.95 38.9158 119.45 40.5026C121.747 42.0227 124.681 41.6993 127.201 40.9763C127.194 43.2261 127.201 45.4766 127.194 47.7264C123.861 48.6932 120.217 48.5731 116.963 47.3631C113.056 45.8966 109.946 42.523 108.756 38.5261C107.856 35.4925 107.739 32.2056 108.469 29.1221C109.646 24.175 113.823 20.1214 118.774 19.018ZM139.082 18.685C142.482 18.3049 146.182 18.8283 148.929 21.0085C151.579 23.0653 152.903 26.3822 153.363 29.6224C153.829 33.1694 153.726 36.8596 152.629 40.2862C151.696 43.1968 149.743 45.8866 146.929 47.21C144.069 48.5571 140.735 48.6468 137.692 47.9604C134.871 47.3267 132.388 45.4566 130.988 42.9331C129.051 39.5295 128.698 35.4895 128.848 31.6492C129.008 28.3357 129.844 24.8821 132.071 22.3286C133.818 20.2517 136.405 18.9883 139.082 18.685ZM140.127 25.138C138.667 25.508 137.84 26.9481 137.474 28.3048C136.75 30.9884 136.874 33.8119 137.057 36.5588C137.234 38.0422 137.394 39.682 138.451 40.8388C139.854 42.4359 142.674 42.2189 143.964 40.5854C144.818 39.5387 145.038 38.1589 145.234 36.8655C145.508 34.552 145.578 32.1985 145.224 29.8916C144.978 28.5082 144.594 27.0481 143.578 26.0147C142.704 25.1079 141.324 24.8313 140.127 25.138ZM273.476 19.1345C276.363 18.3778 279.423 18.4878 282.326 19.1079C282.393 21.3647 282.34 23.6249 282.356 25.8817C280.146 25.3517 277.706 24.855 275.542 25.8084C273.056 26.9418 271.549 29.6086 271.356 32.2722C271.049 35.2591 271.872 38.6926 274.506 40.4391C276.813 42.0259 279.803 41.7162 282.356 40.9761C282.326 43.2426 282.423 45.5131 282.303 47.7763C278.749 48.6997 274.879 48.5764 271.492 47.1066C267.772 45.4861 264.888 42.1262 263.818 38.2193C262.998 35.219 262.905 31.9921 263.662 28.9686C264.845 24.2416 268.775 20.3613 273.476 19.1345H273.476ZM157.851 19.3584C161.065 19.3514 164.282 19.3517 167.498 19.3584C168.662 24.5721 169.769 29.8025 170.735 35.0562C171.656 29.7791 172.892 24.5654 174.136 19.3584C177.433 19.3514 180.729 19.355 184.03 19.355C185.31 28.7924 186.583 38.2297 187.853 47.6668C185.33 47.6701 182.809 47.6704 180.286 47.6668C179.586 41.203 178.966 34.7328 178.226 28.2724C176.696 34.7462 175.082 41.1996 173.522 47.6668C171.802 47.6734 170.078 47.6704 168.358 47.6668C166.709 41.193 165.085 34.7095 163.422 28.239C162.772 34.7162 162.128 41.193 161.471 47.6704C159.061 47.6668 156.647 47.6734 154.238 47.6668C155.438 38.2297 156.647 28.7957 157.851 19.3584ZM192.447 19.3545C195.664 19.3578 198.881 19.3478 202.102 19.3578C203.262 24.5649 204.358 29.7853 205.332 35.0323C206.265 29.7653 207.488 24.5549 208.735 19.3545C212.019 19.3545 215.305 19.3545 218.589 19.3545C219.866 28.7918 221.139 38.2292 222.409 47.6662C219.889 47.6729 217.369 47.6629 214.849 47.6729C214.149 41.2058 213.495 34.7389 212.805 28.2718C211.232 34.7356 209.689 41.2058 208.115 47.6699C206.395 47.6662 204.678 47.6699 202.962 47.6699C201.311 41.1891 199.671 34.7056 198.025 28.2218C197.365 34.7023 196.728 41.1858 196.071 47.6662C193.658 47.6696 191.247 47.6699 188.834 47.6662C190.037 38.2292 191.244 28.7918 192.447 19.3545ZM224.57 19.4485C229.733 19.3321 234.903 19.4321 240.07 19.3988C240.081 21.4089 240.064 23.4157 240.08 25.4259C237.474 25.4559 234.867 25.4292 232.26 25.4426C232.257 27.1694 232.257 28.8961 232.26 30.6229C234.517 30.6296 236.774 30.6229 239.03 30.6263C239.031 32.5831 239.034 34.5366 239.03 36.49C236.774 36.4934 234.517 36.4867 232.26 36.4934C232.257 38.2202 232.257 39.95 232.26 41.6767C234.877 41.6834 237.497 41.6767 240.114 41.6801C240.114 43.6902 240.117 45.7004 240.114 47.7105C234.947 47.7139 229.78 47.7139 224.616 47.7105C224.583 38.2902 224.673 28.8661 224.569 19.4488L224.57 19.4485ZM242.299 19.3554C245.533 19.3687 248.766 19.3287 252 19.3754C255.047 19.4721 258.277 20.2321 260.55 22.3889C262.604 24.2991 263.314 27.416 262.517 30.0728C261.887 32.233 260.267 33.9865 258.244 34.9332C260.267 39.1832 262.31 43.4201 264.334 47.6671C261.644 47.6705 258.954 47.6671 256.267 47.6708C254.157 43.3371 252.113 38.9665 249.976 34.6465C249.923 38.9865 249.97 43.3271 249.953 47.6671C247.399 47.6705 244.849 47.6708 242.299 47.6671C242.296 38.2301 242.296 28.7927 242.299 19.3554ZM249.909 24.7979C249.903 27.0481 249.902 29.3016 249.909 31.5551C251.292 31.4584 252.796 31.4051 253.973 30.5684C255.326 29.5916 255.179 27.5015 254.326 26.2414C253.27 24.9479 251.432 24.9213 249.909 24.7979H249.909ZM284.5 19.3614C289.657 19.348 294.814 19.3614 299.972 19.3547C299.975 21.3679 299.972 23.3817 299.972 25.3952C297.355 25.3985 294.738 25.3952 292.121 25.3985C292.118 27.1219 292.118 28.8454 292.118 30.5722C294.374 30.5789 296.631 30.5689 298.888 30.5755C298.888 32.5323 298.891 34.4925 298.888 36.4493C296.631 36.4493 294.378 36.4493 292.124 36.4493C292.114 38.1761 292.118 39.9025 292.121 41.633C294.748 41.6393 297.375 41.633 300.005 41.6363C300.005 43.6461 300.005 45.6566 300.002 47.6701C294.838 47.6698 289.671 47.6701 284.507 47.6664C284.497 38.2328 284.507 28.7954 284.5 19.3614V19.3614Z" fill="white"/>
</g>
<defs>
<clipPath id="clip0_1614_4376">
<rect width="300" height="76.4423" fill="white"/>
</clipPath>
</defs>
</svg>
